G04 #@! TF.GenerationSoftware,KiCad,Pcbnew,7.0.1*
G04 #@! TF.CreationDate,2023-05-27T09:10:49+02:00*
G04 #@! TF.ProjectId,K_Munin400,4b5f4d75-6e69-46e3-9430-302e6b696361,rev?*
G04 #@! TF.SameCoordinates,Original*
G04 #@! TF.FileFunction,Copper,L2,Bot*
G04 #@! TF.FilePolarity,Positive*
%FSLAX46Y46*%
G04 Gerber Fmt 4.6, Leading zero omitted, Abs format (unit mm)*
G04 Created by KiCad (PCBNEW 7.0.1) date 2023-05-27 09:10:49*
%MOMM*%
%LPD*%
G01*
G04 APERTURE LIST*
G04 #@! TA.AperFunction,ComponentPad*
%ADD10C,1.998980*%
G04 #@! TD*
G04 #@! TA.AperFunction,ComponentPad*
%ADD11C,2.499360*%
G04 #@! TD*
G04 #@! TA.AperFunction,ComponentPad*
%ADD12C,2.300000*%
G04 #@! TD*
G04 #@! TA.AperFunction,ComponentPad*
%ADD13C,3.900000*%
G04 #@! TD*
G04 #@! TA.AperFunction,ConnectorPad*
%ADD14C,7.000000*%
G04 #@! TD*
G04 #@! TA.AperFunction,ComponentPad*
%ADD15R,1.950000X1.950000*%
G04 #@! TD*
G04 #@! TA.AperFunction,ComponentPad*
%ADD16C,1.950000*%
G04 #@! TD*
G04 #@! TA.AperFunction,ViaPad*
%ADD17C,0.800000*%
G04 #@! TD*
G04 APERTURE END LIST*
D10*
X54500000Y-88998860D03*
D11*
X51960000Y-86458860D03*
X51960000Y-91538860D03*
X57040000Y-86458860D03*
X57040000Y-91538860D03*
D12*
X149920000Y-147460000D03*
X149920000Y-150000000D03*
X149920000Y-152540000D03*
X155000000Y-147460000D03*
X155000000Y-150000000D03*
X155000000Y-152540000D03*
D13*
X154000000Y-70000000D03*
D14*
X154000000Y-70000000D03*
D13*
X154100000Y-164600000D03*
D14*
X154100000Y-164600000D03*
D15*
X107500000Y-161700000D03*
D16*
X102420000Y-161700000D03*
D13*
X55000000Y-165000000D03*
D14*
X55000000Y-165000000D03*
D13*
X79000000Y-106000000D03*
D14*
X79000000Y-106000000D03*
D12*
X141300000Y-161500000D03*
X141300000Y-164040000D03*
X141300000Y-166580000D03*
X146380000Y-161500000D03*
X146380000Y-164040000D03*
X146380000Y-166580000D03*
D13*
X55000000Y-70000000D03*
D14*
X55000000Y-70000000D03*
D10*
X153460000Y-78540000D03*
D11*
X156000000Y-81080000D03*
X156000000Y-76000000D03*
X150920000Y-81080000D03*
X150920000Y-76000000D03*
D17*
X105000000Y-122500000D03*
X105000000Y-117500000D03*
X111500000Y-114000000D03*
X111500000Y-109000000D03*
X111500000Y-99000000D03*
X111500000Y-94000000D03*
X111500000Y-104000000D03*
X128500000Y-117600000D03*
X128500000Y-121000000D03*
X128500000Y-124200000D03*
X128500000Y-116000000D03*
X128500000Y-122600000D03*
X128500000Y-119200000D03*
X54500000Y-146500000D03*
X102000000Y-122000000D03*
X135000000Y-77500000D03*
X75000000Y-154500000D03*
X68300000Y-79900000D03*
X72000000Y-106000000D03*
X77000000Y-101000000D03*
X137000000Y-113000000D03*
X74500000Y-104500000D03*
X77000000Y-118000000D03*
X110000000Y-82500000D03*
X145000000Y-67500000D03*
X65000000Y-159000000D03*
X102000000Y-98500000D03*
X65000000Y-157000000D03*
X72000000Y-104000000D03*
X80000000Y-98000000D03*
X128000000Y-89500000D03*
X135000000Y-87500000D03*
X118000000Y-148500000D03*
X72000000Y-108000000D03*
X75000000Y-149800000D03*
X60000000Y-84000000D03*
X71000000Y-161000000D03*
X98500000Y-163000000D03*
X125000000Y-82500000D03*
X68000000Y-163000000D03*
X83000000Y-100000000D03*
X52000000Y-117500000D03*
X134100000Y-151000000D03*
X56500000Y-123500000D03*
X52000000Y-84000000D03*
X86000000Y-104000000D03*
X61500000Y-117500000D03*
X150000000Y-120000000D03*
X78000000Y-98000000D03*
X78000000Y-154500000D03*
X73500000Y-101500000D03*
X150000000Y-82700000D03*
X109000000Y-148500000D03*
X109000000Y-136000000D03*
X137000000Y-99500000D03*
X100000000Y-82500000D03*
X66500000Y-148000000D03*
X63500000Y-133000000D03*
X74000000Y-106000000D03*
X145000000Y-107500000D03*
X100000000Y-72500000D03*
X81000000Y-116000000D03*
X90000000Y-72500000D03*
X71000000Y-163000000D03*
X51500000Y-111500000D03*
X63800000Y-148000000D03*
X149900000Y-93000000D03*
X145000000Y-125000000D03*
X82000000Y-109500000D03*
X83500000Y-104500000D03*
X82500000Y-111000000D03*
X128000000Y-92900000D03*
X77000000Y-110000000D03*
X59000000Y-123500000D03*
X51500000Y-114500000D03*
X56500000Y-108500000D03*
X68000000Y-130500000D03*
X137000000Y-108000000D03*
X68000000Y-159000000D03*
X140000000Y-92500000D03*
X125000000Y-67500000D03*
X95000000Y-67500000D03*
X77000000Y-99000000D03*
X102000000Y-113500000D03*
X94000000Y-141000000D03*
X140500000Y-107500000D03*
X65000000Y-161000000D03*
X150000000Y-111200000D03*
X61000000Y-144000000D03*
X145000000Y-77500000D03*
X77000000Y-95000000D03*
X115000000Y-77500000D03*
X145000000Y-115000000D03*
X65000000Y-138500000D03*
X59000000Y-117500000D03*
X76000000Y-109500000D03*
X114000000Y-153000000D03*
X75000000Y-111000000D03*
X145000000Y-97500000D03*
X155000000Y-115000000D03*
X90400000Y-163000000D03*
X51500000Y-108500000D03*
X155600000Y-107400000D03*
X61500000Y-123500000D03*
X81000000Y-101000000D03*
X56500000Y-111500000D03*
X114000000Y-131000000D03*
X140000000Y-72500000D03*
X84500000Y-109500000D03*
X102000000Y-89500000D03*
X99000000Y-127000000D03*
X83000000Y-109000000D03*
X105500000Y-103500000D03*
X54000000Y-108500000D03*
X119000000Y-159000000D03*
X81000000Y-118000000D03*
X84000000Y-106000000D03*
X122500000Y-133000000D03*
X63500000Y-130500000D03*
X52000000Y-146500000D03*
X65000000Y-163000000D03*
X65000000Y-80000000D03*
X60000000Y-91500000D03*
X66500000Y-78900000D03*
X145000000Y-87500000D03*
X85500000Y-102500000D03*
X99000000Y-136000000D03*
X137000000Y-102000000D03*
X122500000Y-135200000D03*
X105000000Y-93500000D03*
X130000000Y-82500000D03*
X135000000Y-120000000D03*
X135000000Y-125000000D03*
X68000000Y-161000000D03*
X130000000Y-72500000D03*
X137000000Y-97000000D03*
X78000000Y-149200000D03*
X92000000Y-148500000D03*
X120000000Y-72500000D03*
X128000000Y-86300000D03*
X125000000Y-77500000D03*
X135900000Y-148400000D03*
X86000000Y-106000000D03*
X105000000Y-77500000D03*
X150000000Y-72500000D03*
X79000000Y-113000000D03*
X94000000Y-131000000D03*
X63800000Y-145800000D03*
X79000000Y-111000000D03*
X52000000Y-128000000D03*
X81000000Y-114000000D03*
X76000000Y-102000000D03*
X79000000Y-101000000D03*
X105500000Y-108500000D03*
X56500000Y-117500000D03*
X99000000Y-148500000D03*
X67000000Y-69000000D03*
X90000000Y-82500000D03*
X135500000Y-137000000D03*
X137000000Y-110500000D03*
X74000000Y-161000000D03*
X79000000Y-99000000D03*
X77000000Y-112000000D03*
X105000000Y-86000000D03*
X115000000Y-67500000D03*
X105000000Y-98500000D03*
X87600000Y-163000000D03*
X81000000Y-149200000D03*
X134100000Y-149200000D03*
X117500000Y-134500000D03*
X81000000Y-97000000D03*
X95500000Y-163000000D03*
X110000000Y-72500000D03*
X57000000Y-79000000D03*
X104000000Y-141000000D03*
X81000000Y-95000000D03*
X81000000Y-110000000D03*
X79000000Y-112000000D03*
X104000000Y-153000000D03*
X128000000Y-94500000D03*
X82000000Y-102000000D03*
X102000000Y-93500000D03*
X110000000Y-86000000D03*
X84500000Y-101500000D03*
X81000000Y-99000000D03*
X134100000Y-154400000D03*
X115000000Y-82500000D03*
X74500000Y-108000000D03*
X52000000Y-132000000D03*
X132700000Y-137000000D03*
X86000000Y-108000000D03*
X102000000Y-117000000D03*
X155000000Y-125000000D03*
X66500000Y-145800000D03*
X75000000Y-100000000D03*
X88000000Y-148500000D03*
X75000000Y-109000000D03*
X117625000Y-136500000D03*
X73500000Y-109500000D03*
X81000000Y-93000000D03*
X120000000Y-82500000D03*
X104000000Y-131000000D03*
X77000000Y-116000000D03*
X68000000Y-157000000D03*
X56500000Y-132000000D03*
X135000000Y-115000000D03*
X149900000Y-104400000D03*
X81000000Y-112000000D03*
X139100000Y-137000000D03*
X140000000Y-82500000D03*
X128000000Y-87900000D03*
X65000000Y-140000000D03*
X77000000Y-97000000D03*
X71400000Y-149800000D03*
X95000000Y-77500000D03*
X77000000Y-114000000D03*
X100000000Y-86000000D03*
X68000000Y-133000000D03*
X83500000Y-108000000D03*
X128000000Y-91300000D03*
X77000000Y-93000000D03*
X72500000Y-102500000D03*
X54500000Y-138500000D03*
X54000000Y-114500000D03*
X83000000Y-103000000D03*
X52000000Y-123500000D03*
X105500000Y-113500000D03*
X135000000Y-67500000D03*
X60000000Y-74000000D03*
X75000000Y-103000000D03*
X79000000Y-100000000D03*
X54500000Y-140000000D03*
X105000000Y-67500000D03*
X52000000Y-74000000D03*
X119000000Y-168000000D03*
X56500000Y-144000000D03*
X134100000Y-152800000D03*
G04 #@! TA.AperFunction,Conductor*
G36*
X157937500Y-144816613D02*
G01*
X157982887Y-144862000D01*
X157999500Y-144924000D01*
X157999500Y-155276000D01*
X157982887Y-155338000D01*
X157937500Y-155383387D01*
X157875500Y-155400000D01*
X147724000Y-155400000D01*
X147662000Y-155383387D01*
X147616613Y-155338000D01*
X147600000Y-155276000D01*
X147600000Y-144924000D01*
X147616613Y-144862000D01*
X147662000Y-144816613D01*
X147724000Y-144800000D01*
X157875500Y-144800000D01*
X157937500Y-144816613D01*
G37*
G04 #@! TD.AperFunction*
G04 #@! TA.AperFunction,Conductor*
G36*
X157937500Y-65017113D02*
G01*
X157982887Y-65062500D01*
X157999500Y-65124500D01*
X157999500Y-143170500D01*
X157982887Y-143232500D01*
X157937500Y-143277887D01*
X157875500Y-143294500D01*
X147724000Y-143294500D01*
X147603071Y-143302426D01*
X147527486Y-143307380D01*
X147334348Y-143345799D01*
X147272336Y-143362415D01*
X147085873Y-143425710D01*
X146909248Y-143512813D01*
X146745507Y-143622221D01*
X146597447Y-143752066D01*
X146552066Y-143797447D01*
X146422221Y-143945507D01*
X146312813Y-144109248D01*
X146225710Y-144285873D01*
X146162415Y-144472336D01*
X146145799Y-144534348D01*
X146107380Y-144727486D01*
X146107380Y-144727491D01*
X146094500Y-144924000D01*
X146094500Y-155276000D01*
X146103086Y-155407005D01*
X146107380Y-155472513D01*
X146145799Y-155665651D01*
X146162415Y-155727663D01*
X146225710Y-155914126D01*
X146312813Y-156090751D01*
X146422221Y-156254492D01*
X146552066Y-156402552D01*
X146597447Y-156447933D01*
X146697190Y-156535405D01*
X146745509Y-156577780D01*
X146909249Y-156687187D01*
X147085868Y-156774287D01*
X147085871Y-156774288D01*
X147085873Y-156774289D01*
X147272336Y-156837584D01*
X147272345Y-156837587D01*
X147334345Y-156854200D01*
X147527491Y-156892620D01*
X147724000Y-156905500D01*
X147724008Y-156905500D01*
X157875500Y-156905500D01*
X157937500Y-156922113D01*
X157982887Y-156967500D01*
X157999500Y-157029500D01*
X157999500Y-168875500D01*
X157982887Y-168937500D01*
X157937500Y-168982887D01*
X157875500Y-168999500D01*
X50124500Y-168999500D01*
X50062500Y-168982887D01*
X50017113Y-168937500D01*
X50000500Y-168875500D01*
X50000500Y-162757838D01*
X105024500Y-162757838D01*
X105030919Y-162861237D01*
X105081950Y-163104616D01*
X105172343Y-163336272D01*
X105299634Y-163549896D01*
X105460349Y-163739650D01*
X105650103Y-163900365D01*
X105863727Y-164027656D01*
X106095386Y-164118050D01*
X106338763Y-164169081D01*
X106442158Y-164175500D01*
X108557838Y-164175500D01*
X108557842Y-164175500D01*
X108661237Y-164169081D01*
X108904614Y-164118050D01*
X109136273Y-164027656D01*
X109349894Y-163900366D01*
X109349893Y-163900366D01*
X109349896Y-163900365D01*
X109539650Y-163739650D01*
X109700365Y-163549896D01*
X109731353Y-163497890D01*
X109827656Y-163336273D01*
X109918050Y-163104614D01*
X109969081Y-162861237D01*
X109975500Y-162757842D01*
X109975500Y-160642158D01*
X109969081Y-160538763D01*
X109918050Y-160295386D01*
X109827656Y-160063727D01*
X109700365Y-159850103D01*
X109539650Y-159660349D01*
X109349896Y-159499634D01*
X109136272Y-159372343D01*
X108904616Y-159281950D01*
X108661237Y-159230919D01*
X108661236Y-159230918D01*
X108557842Y-159224500D01*
X106442158Y-159224500D01*
X106359442Y-159229635D01*
X106338762Y-159230919D01*
X106095383Y-159281950D01*
X105863727Y-159372343D01*
X105650103Y-159499634D01*
X105460349Y-159660349D01*
X105299634Y-159850103D01*
X105172343Y-160063727D01*
X105081950Y-160295383D01*
X105030919Y-160538762D01*
X105024500Y-160642162D01*
X105024500Y-162757838D01*
X50000500Y-162757838D01*
X50000500Y-145000000D01*
X68999459Y-145000000D01*
X68999500Y-145000099D01*
X68999616Y-145000382D01*
X68999617Y-145000383D01*
X68999618Y-145000384D01*
X68999808Y-145000461D01*
X69000000Y-145000541D01*
X69000002Y-145000539D01*
X69024616Y-145000524D01*
X69024616Y-145000528D01*
X69024760Y-145000500D01*
X88975240Y-145000500D01*
X88975383Y-145000528D01*
X88975384Y-145000524D01*
X88999997Y-145000539D01*
X89000000Y-145000541D01*
X89000383Y-145000383D01*
X89000500Y-145000099D01*
X89000541Y-145000000D01*
X89000541Y-144975446D01*
X89000500Y-144975240D01*
X89000500Y-120024760D01*
X89000528Y-120024616D01*
X89000524Y-120024616D01*
X89000539Y-120000002D01*
X89000541Y-120000000D01*
X89000461Y-119999808D01*
X89000384Y-119999618D01*
X89000380Y-119999614D01*
X89000194Y-119999538D01*
X89000002Y-119999459D01*
X88975446Y-119999459D01*
X88975240Y-119999500D01*
X69024760Y-119999500D01*
X69024554Y-119999459D01*
X68999998Y-119999459D01*
X68999807Y-119999538D01*
X68999619Y-119999615D01*
X68999615Y-119999618D01*
X68999459Y-119999999D01*
X68999476Y-120024616D01*
X68999471Y-120024616D01*
X68999500Y-120024760D01*
X68999500Y-144975240D01*
X68999459Y-144975446D01*
X68999459Y-145000000D01*
X50000500Y-145000000D01*
X50000500Y-91400000D01*
X68899459Y-91400000D01*
X68899500Y-91400099D01*
X68899617Y-91400383D01*
X68899618Y-91400384D01*
X68899808Y-91400461D01*
X68900000Y-91400541D01*
X68900002Y-91400539D01*
X68924616Y-91400524D01*
X68924616Y-91400528D01*
X68924760Y-91400500D01*
X88875240Y-91400500D01*
X88875383Y-91400528D01*
X88875384Y-91400524D01*
X88899997Y-91400539D01*
X88900000Y-91400541D01*
X88900383Y-91400383D01*
X88900500Y-91400099D01*
X88900541Y-91400000D01*
X88900541Y-91375446D01*
X88900500Y-91375240D01*
X88900500Y-78540000D01*
X151454900Y-78540000D01*
X151475310Y-78825355D01*
X151536121Y-79104900D01*
X151636097Y-79372948D01*
X151773201Y-79624036D01*
X151858924Y-79738549D01*
X151944647Y-79853061D01*
X152146939Y-80055353D01*
X152318706Y-80183936D01*
X152375963Y-80226798D01*
X152627051Y-80363902D01*
X152761074Y-80413889D01*
X152895098Y-80463878D01*
X153174645Y-80524690D01*
X153460000Y-80545099D01*
X153745355Y-80524690D01*
X154024902Y-80463878D01*
X154292948Y-80363902D01*
X154544038Y-80226797D01*
X154773061Y-80055353D01*
X154975353Y-79853061D01*
X155146797Y-79624038D01*
X155283902Y-79372948D01*
X155383878Y-79104902D01*
X155444690Y-78825355D01*
X155465099Y-78540000D01*
X155444690Y-78254645D01*
X155383878Y-77975098D01*
X155283902Y-77707052D01*
X155283902Y-77707051D01*
X155146798Y-77455963D01*
X155103936Y-77398706D01*
X154975353Y-77226939D01*
X154773061Y-77024647D01*
X154636535Y-76922445D01*
X154544036Y-76853201D01*
X154292948Y-76716097D01*
X154024900Y-76616121D01*
X153745355Y-76555310D01*
X153460000Y-76534900D01*
X153174644Y-76555310D01*
X152895099Y-76616121D01*
X152627051Y-76716097D01*
X152375963Y-76853201D01*
X152146936Y-77024649D01*
X151944649Y-77226936D01*
X151773201Y-77455963D01*
X151636097Y-77707051D01*
X151536121Y-77975099D01*
X151475310Y-78254644D01*
X151454900Y-78540000D01*
X88900500Y-78540000D01*
X88900500Y-66424760D01*
X88900528Y-66424616D01*
X88900524Y-66424616D01*
X88900539Y-66400002D01*
X88900541Y-66400000D01*
X88900462Y-66399808D01*
X88900384Y-66399618D01*
X88900380Y-66399614D01*
X88900194Y-66399538D01*
X88900002Y-66399459D01*
X88875446Y-66399459D01*
X88875240Y-66399500D01*
X68924760Y-66399500D01*
X68924554Y-66399459D01*
X68899998Y-66399459D01*
X68899807Y-66399538D01*
X68899619Y-66399615D01*
X68899615Y-66399618D01*
X68899459Y-66399999D01*
X68899476Y-66424616D01*
X68899471Y-66424616D01*
X68899500Y-66424760D01*
X68899500Y-91375240D01*
X68899459Y-91375446D01*
X68899459Y-91400000D01*
X50000500Y-91400000D01*
X50000500Y-88998860D01*
X52694962Y-88998860D01*
X52715123Y-89267885D01*
X52775156Y-89530906D01*
X52873717Y-89782034D01*
X52873718Y-89782036D01*
X53008608Y-90015674D01*
X53176814Y-90226597D01*
X53374578Y-90410095D01*
X53597482Y-90562068D01*
X53840546Y-90679122D01*
X54098340Y-90758640D01*
X54098341Y-90758641D01*
X54365108Y-90798850D01*
X54365109Y-90798850D01*
X54634891Y-90798850D01*
X54634892Y-90798850D01*
X54768275Y-90778745D01*
X54901659Y-90758641D01*
X55159454Y-90679122D01*
X55402519Y-90562068D01*
X55625422Y-90410095D01*
X55823186Y-90226597D01*
X55991392Y-90015674D01*
X56126282Y-89782036D01*
X56224844Y-89530904D01*
X56284876Y-89267887D01*
X56305037Y-88998860D01*
X56284876Y-88729833D01*
X56224844Y-88466816D01*
X56126282Y-88215684D01*
X55991392Y-87982046D01*
X55823186Y-87771123D01*
X55823185Y-87771122D01*
X55625424Y-87587626D01*
X55567902Y-87548408D01*
X55402519Y-87435652D01*
X55159454Y-87318598D01*
X55079933Y-87294069D01*
X54901658Y-87239078D01*
X54634892Y-87198870D01*
X54634891Y-87198870D01*
X54365109Y-87198870D01*
X54365108Y-87198870D01*
X54098341Y-87239078D01*
X53840546Y-87318598D01*
X53597484Y-87435650D01*
X53374576Y-87587626D01*
X53176814Y-87771123D01*
X53008607Y-87982047D01*
X52873717Y-88215685D01*
X52775156Y-88466813D01*
X52715123Y-88729834D01*
X52694962Y-88998860D01*
X50000500Y-88998860D01*
X50000500Y-65124500D01*
X50017113Y-65062500D01*
X50062500Y-65017113D01*
X50124500Y-65000500D01*
X157875500Y-65000500D01*
X157937500Y-65017113D01*
G37*
G04 #@! TD.AperFunction*
M02*
