G04 #@! TF.GenerationSoftware,KiCad,Pcbnew,7.0.1*
G04 #@! TF.CreationDate,2023-05-25T18:43:52+02:00*
G04 #@! TF.ProjectId,K_Munin400,4b5f4d75-6e69-46e3-9430-302e6b696361,rev?*
G04 #@! TF.SameCoordinates,Original*
G04 #@! TF.FileFunction,Soldermask,Top*
G04 #@! TF.FilePolarity,Negative*
%FSLAX46Y46*%
G04 Gerber Fmt 4.6, Leading zero omitted, Abs format (unit mm)*
G04 Created by KiCad (PCBNEW 7.0.1) date 2023-05-25 18:43:52*
%MOMM*%
%LPD*%
G01*
G04 APERTURE LIST*
G04 Aperture macros list*
%AMRoundRect*
0 Rectangle with rounded corners*
0 $1 Rounding radius*
0 $2 $3 $4 $5 $6 $7 $8 $9 X,Y pos of 4 corners*
0 Add a 4 corners polygon primitive as box body*
4,1,4,$2,$3,$4,$5,$6,$7,$8,$9,$2,$3,0*
0 Add four circle primitives for the rounded corners*
1,1,$1+$1,$2,$3*
1,1,$1+$1,$4,$5*
1,1,$1+$1,$6,$7*
1,1,$1+$1,$8,$9*
0 Add four rect primitives between the rounded corners*
20,1,$1+$1,$2,$3,$4,$5,0*
20,1,$1+$1,$4,$5,$6,$7,0*
20,1,$1+$1,$6,$7,$8,$9,0*
20,1,$1+$1,$8,$9,$2,$3,0*%
G04 Aperture macros list end*
%ADD10RoundRect,1.625000X1.625000X1.625000X-1.625000X1.625000X-1.625000X-1.625000X1.625000X-1.625000X0*%
%ADD11RoundRect,1.625000X-1.625000X1.625000X-1.625000X-1.625000X1.625000X-1.625000X1.625000X1.625000X0*%
%ADD12RoundRect,1.000000X1.000000X-1.000000X1.000000X1.000000X-1.000000X1.000000X-1.000000X-1.000000X0*%
%ADD13RoundRect,1.000000X-1.000000X-3.000000X1.000000X-3.000000X1.000000X3.000000X-1.000000X3.000000X0*%
%ADD14C,1.998980*%
%ADD15C,2.499360*%
%ADD16RoundRect,0.250000X0.475000X-0.337500X0.475000X0.337500X-0.475000X0.337500X-0.475000X-0.337500X0*%
%ADD17RoundRect,0.250000X-0.475000X0.337500X-0.475000X-0.337500X0.475000X-0.337500X0.475000X0.337500X0*%
%ADD18C,2.300000*%
%ADD19RoundRect,0.250000X-0.537500X-1.450000X0.537500X-1.450000X0.537500X1.450000X-0.537500X1.450000X0*%
%ADD20RoundRect,0.250000X0.337500X0.475000X-0.337500X0.475000X-0.337500X-0.475000X0.337500X-0.475000X0*%
%ADD21R,3.150000X1.000000*%
%ADD22R,1.190000X2.790000*%
%ADD23C,3.900000*%
%ADD24C,7.000000*%
%ADD25RoundRect,0.250000X0.250000X-0.250000X0.250000X0.250000X-0.250000X0.250000X-0.250000X-0.250000X0*%
%ADD26RoundRect,0.250000X-0.450000X0.350000X-0.450000X-0.350000X0.450000X-0.350000X0.450000X0.350000X0*%
%ADD27RoundRect,0.250000X-0.350000X-0.450000X0.350000X-0.450000X0.350000X0.450000X-0.350000X0.450000X0*%
%ADD28RoundRect,0.250000X1.450000X-0.537500X1.450000X0.537500X-1.450000X0.537500X-1.450000X-0.537500X0*%
%ADD29RoundRect,0.250000X-0.250000X0.250000X-0.250000X-0.250000X0.250000X-0.250000X0.250000X0.250000X0*%
%ADD30RoundRect,0.500000X-0.500000X1.500000X-0.500000X-1.500000X0.500000X-1.500000X0.500000X1.500000X0*%
%ADD31RoundRect,0.250000X-1.025000X0.875000X-1.025000X-0.875000X1.025000X-0.875000X1.025000X0.875000X0*%
%ADD32RoundRect,0.249999X-4.550001X4.150001X-4.550001X-4.150001X4.550001X-4.150001X4.550001X4.150001X0*%
%ADD33RoundRect,0.249999X2.450001X-0.737501X2.450001X0.737501X-2.450001X0.737501X-2.450001X-0.737501X0*%
%ADD34RoundRect,0.491801X1.008199X1.008199X-1.008199X1.008199X-1.008199X-1.008199X1.008199X-1.008199X0*%
%ADD35RoundRect,0.150000X0.825000X0.150000X-0.825000X0.150000X-0.825000X-0.150000X0.825000X-0.150000X0*%
%ADD36C,1.950000*%
%ADD37R,1.950000X1.950000*%
%ADD38RoundRect,0.250000X-1.450000X0.400000X-1.450000X-0.400000X1.450000X-0.400000X1.450000X0.400000X0*%
%ADD39RoundRect,0.250000X-1.450000X0.537500X-1.450000X-0.537500X1.450000X-0.537500X1.450000X0.537500X0*%
%ADD40RoundRect,0.150000X-0.825000X-0.150000X0.825000X-0.150000X0.825000X0.150000X-0.825000X0.150000X0*%
%ADD41O,3.600000X3.600000*%
%ADD42RoundRect,0.875000X-0.875000X-2.125000X0.875000X-2.125000X0.875000X2.125000X-0.875000X2.125000X0*%
%ADD43RoundRect,0.250001X-0.799999X1.999999X-0.799999X-1.999999X0.799999X-1.999999X0.799999X1.999999X0*%
%ADD44R,2.100000X2.600000*%
%ADD45RoundRect,0.250000X0.350000X0.450000X-0.350000X0.450000X-0.350000X-0.450000X0.350000X-0.450000X0*%
%ADD46RoundRect,0.150000X0.150000X-0.587500X0.150000X0.587500X-0.150000X0.587500X-0.150000X-0.587500X0*%
%ADD47RoundRect,0.250000X-0.350000X0.850000X-0.350000X-0.850000X0.350000X-0.850000X0.350000X0.850000X0*%
%ADD48RoundRect,0.249997X-2.650003X2.950003X-2.650003X-2.950003X2.650003X-2.950003X2.650003X2.950003X0*%
%ADD49RoundRect,0.491801X-1.008199X1.008199X-1.008199X-1.008199X1.008199X-1.008199X1.008199X1.008199X0*%
%ADD50RoundRect,0.500000X0.500000X-1.500000X0.500000X1.500000X-0.500000X1.500000X-0.500000X-1.500000X0*%
%ADD51RoundRect,1.625000X1.625000X-1.625000X1.625000X1.625000X-1.625000X1.625000X-1.625000X-1.625000X0*%
G04 APERTURE END LIST*
D10*
X135500000Y-109800000D03*
D11*
X157500000Y-100400000D03*
X157500000Y-89000000D03*
X135300000Y-99800000D03*
D12*
X54000000Y-100500000D03*
X54000000Y-111500000D03*
X64000000Y-111500000D03*
X64000000Y-100500000D03*
D13*
X66300000Y-88000000D03*
X91700000Y-88000000D03*
X66300000Y-124000000D03*
X91700000Y-124000000D03*
D14*
X54500000Y-88998860D03*
D15*
X51960000Y-86458860D03*
X51960000Y-91538860D03*
X57040000Y-86458860D03*
X57040000Y-91538860D03*
D16*
X58500000Y-119462500D03*
X58500000Y-121537500D03*
D17*
X168200000Y-156162500D03*
X168200000Y-158237500D03*
D18*
X162360000Y-147660000D03*
X162360000Y-150200000D03*
X162360000Y-152740000D03*
X167440000Y-147660000D03*
X167440000Y-150200000D03*
X167440000Y-152740000D03*
D19*
X125000000Y-117050000D03*
X129275000Y-117050000D03*
D20*
X54037500Y-144500000D03*
X51962500Y-144500000D03*
D21*
X78975000Y-160700000D03*
X84025000Y-160700000D03*
X78975000Y-163240000D03*
X84025000Y-163240000D03*
X78975000Y-165780000D03*
X84025000Y-165780000D03*
D22*
X140340000Y-134385000D03*
X137800000Y-139215000D03*
X135260000Y-134385000D03*
D23*
X165000000Y-65000000D03*
D24*
X165000000Y-65000000D03*
D25*
X54000000Y-107250000D03*
X54000000Y-104750000D03*
D19*
X124725000Y-97050000D03*
X129000000Y-97050000D03*
D26*
X128500000Y-144800000D03*
X128500000Y-146800000D03*
D27*
X67500000Y-116000000D03*
X69500000Y-116000000D03*
D17*
X86000000Y-154962500D03*
X86000000Y-157037500D03*
D28*
X93000000Y-107637500D03*
X93000000Y-103362500D03*
D29*
X66500000Y-80250000D03*
X66500000Y-82750000D03*
D30*
X96400000Y-100100000D03*
D11*
X119200000Y-110000000D03*
X98400000Y-109900000D03*
X119400000Y-119500000D03*
D26*
X65500000Y-118000000D03*
X65500000Y-116000000D03*
D31*
X73000000Y-152300000D03*
X73000000Y-158700000D03*
D23*
X165000000Y-165000000D03*
D24*
X165000000Y-165000000D03*
X165000000Y-165000000D03*
D32*
X135600000Y-151650000D03*
X135600000Y-165150000D03*
D33*
X164500000Y-134137500D03*
X164500000Y-128862500D03*
D34*
X86500000Y-152000000D03*
X78500000Y-152000000D03*
D35*
X131000000Y-142080000D03*
X131000000Y-140810000D03*
X131000000Y-139540000D03*
X131000000Y-138270000D03*
X131000000Y-137000000D03*
X131000000Y-135730000D03*
X131000000Y-134460000D03*
X126050000Y-134460000D03*
X126050000Y-135730000D03*
X126050000Y-137000000D03*
X126050000Y-138270000D03*
X126050000Y-139540000D03*
X126050000Y-140810000D03*
X126050000Y-142080000D03*
D16*
X62500000Y-127037500D03*
X62500000Y-124962500D03*
D27*
X52000000Y-142000000D03*
X54000000Y-142000000D03*
D19*
X125000000Y-122000000D03*
X129275000Y-122000000D03*
D36*
X101920000Y-163000000D03*
D37*
X107000000Y-163000000D03*
D29*
X60500000Y-119250000D03*
X60500000Y-121750000D03*
D28*
X94000000Y-97637500D03*
X94000000Y-93362500D03*
D16*
X62000000Y-149037500D03*
X62000000Y-146962500D03*
D19*
X124725000Y-92000000D03*
X129000000Y-92000000D03*
X124725000Y-102000000D03*
X129000000Y-102000000D03*
D16*
X68000000Y-101037500D03*
X68000000Y-98962500D03*
D38*
X66500000Y-103775000D03*
X66500000Y-108225000D03*
D39*
X90000000Y-114225000D03*
X90000000Y-118500000D03*
D20*
X81837500Y-147000000D03*
X79762500Y-147000000D03*
D40*
X54525000Y-126095000D03*
X54525000Y-127365000D03*
X54525000Y-128635000D03*
X54525000Y-129905000D03*
X59475000Y-129905000D03*
X59475000Y-128635000D03*
X59475000Y-127365000D03*
X59475000Y-126095000D03*
D20*
X148875000Y-151400000D03*
X146800000Y-151400000D03*
D17*
X63000000Y-141962500D03*
X63000000Y-144037500D03*
D28*
X89000000Y-107775000D03*
X89000000Y-103500000D03*
D20*
X148837500Y-153600000D03*
X146762500Y-153600000D03*
D23*
X55000000Y-165000000D03*
D24*
X55000000Y-165000000D03*
D22*
X51960000Y-139330000D03*
X54500000Y-134500000D03*
X57040000Y-139330000D03*
D16*
X73500000Y-165537500D03*
X73500000Y-163462500D03*
D35*
X156637500Y-153640000D03*
X156637500Y-152370000D03*
X156637500Y-151100000D03*
X156637500Y-149830000D03*
X151687500Y-149830000D03*
X151687500Y-151100000D03*
X151687500Y-152370000D03*
X151687500Y-153640000D03*
D16*
X56000000Y-121537500D03*
X56000000Y-119462500D03*
D38*
X157500000Y-136550000D03*
X157500000Y-141000000D03*
D26*
X62500000Y-119000000D03*
X62500000Y-121000000D03*
D22*
X62960000Y-139330000D03*
X65500000Y-134500000D03*
X68040000Y-139330000D03*
D16*
X90000000Y-152075000D03*
X90000000Y-150000000D03*
D41*
X79000000Y-136707500D03*
D42*
X73550000Y-116847500D03*
X79000000Y-116847500D03*
X84450000Y-116847500D03*
D43*
X93000000Y-154400000D03*
X93000000Y-161600000D03*
D26*
X52000000Y-121000000D03*
X52000000Y-119000000D03*
D44*
X71550000Y-147000000D03*
X76450000Y-147000000D03*
D23*
X79000000Y-106000000D03*
D24*
X79000000Y-106000000D03*
D17*
X66000000Y-141962500D03*
X66000000Y-144037500D03*
D25*
X55000000Y-151250000D03*
X55000000Y-148750000D03*
D45*
X65500000Y-95500000D03*
X63500000Y-95500000D03*
D29*
X66000000Y-129250000D03*
X66000000Y-131750000D03*
D38*
X165500000Y-136550000D03*
X165500000Y-141000000D03*
D41*
X79000000Y-74792500D03*
D42*
X73550000Y-94652500D03*
X79000000Y-94652500D03*
X84450000Y-94652500D03*
D46*
X57550000Y-148937500D03*
X59450000Y-148937500D03*
X58500000Y-147062500D03*
D17*
X166000000Y-156325000D03*
X166000000Y-158400000D03*
D18*
X152220000Y-162460000D03*
X152220000Y-165000000D03*
X152220000Y-167540000D03*
X157300000Y-162460000D03*
X157300000Y-165000000D03*
X157300000Y-167540000D03*
D20*
X67537500Y-150000000D03*
X65462500Y-150000000D03*
D39*
X94000000Y-114362500D03*
X94000000Y-118637500D03*
D38*
X161500000Y-136550000D03*
X161500000Y-141000000D03*
D19*
X124725000Y-112000000D03*
X129000000Y-112000000D03*
D47*
X68780000Y-152460000D03*
D48*
X66500000Y-158760000D03*
D47*
X64220000Y-152460000D03*
D23*
X55000000Y-65000000D03*
D24*
X55000000Y-65000000D03*
D49*
X60000000Y-141000000D03*
X60000000Y-133000000D03*
D28*
X90000000Y-97637500D03*
X90000000Y-93362500D03*
D19*
X124725000Y-87050000D03*
X129000000Y-87050000D03*
D50*
X96400000Y-109400000D03*
D51*
X119200000Y-99500000D03*
X98400000Y-99400000D03*
X119200000Y-90000000D03*
D45*
X137600000Y-142200000D03*
X135600000Y-142200000D03*
D26*
X133600000Y-142200000D03*
X133600000Y-144200000D03*
D14*
X165500000Y-88750000D03*
D15*
X168040000Y-91290000D03*
X168040000Y-86210000D03*
X162960000Y-91290000D03*
X162960000Y-86210000D03*
D27*
X57500000Y-151000000D03*
X59500000Y-151000000D03*
X67500000Y-95500000D03*
X69500000Y-95500000D03*
D17*
X68000000Y-110962500D03*
X68000000Y-113037500D03*
D19*
X124725000Y-107050000D03*
X129000000Y-107050000D03*
D29*
X54000000Y-121750000D03*
X54000000Y-119250000D03*
M02*
