G04 #@! TF.GenerationSoftware,KiCad,Pcbnew,7.0.1*
G04 #@! TF.CreationDate,2023-05-25T18:43:52+02:00*
G04 #@! TF.ProjectId,K_Munin400,4b5f4d75-6e69-46e3-9430-302e6b696361,rev?*
G04 #@! TF.SameCoordinates,Original*
G04 #@! TF.FileFunction,Soldermask,Bot*
G04 #@! TF.FilePolarity,Negative*
%FSLAX46Y46*%
G04 Gerber Fmt 4.6, Leading zero omitted, Abs format (unit mm)*
G04 Created by KiCad (PCBNEW 7.0.1) date 2023-05-25 18:43:52*
%MOMM*%
%LPD*%
G01*
G04 APERTURE LIST*
%ADD10C,1.998980*%
%ADD11C,2.499360*%
%ADD12C,2.300000*%
%ADD13C,3.900000*%
%ADD14C,7.000000*%
%ADD15C,1.950000*%
%ADD16R,1.950000X1.950000*%
%ADD17O,3.600000X3.600000*%
G04 APERTURE END LIST*
D10*
X54500000Y-88998860D03*
D11*
X51960000Y-86458860D03*
X51960000Y-91538860D03*
X57040000Y-86458860D03*
X57040000Y-91538860D03*
D12*
X162360000Y-147660000D03*
X162360000Y-150200000D03*
X162360000Y-152740000D03*
X167440000Y-147660000D03*
X167440000Y-150200000D03*
X167440000Y-152740000D03*
D13*
X165000000Y-65000000D03*
D14*
X165000000Y-65000000D03*
D13*
X165000000Y-165000000D03*
D14*
X165000000Y-165000000D03*
D15*
X101920000Y-163000000D03*
D16*
X107000000Y-163000000D03*
D13*
X55000000Y-165000000D03*
D14*
X55000000Y-165000000D03*
D17*
X79000000Y-136707500D03*
D13*
X79000000Y-106000000D03*
D14*
X79000000Y-106000000D03*
D17*
X79000000Y-74792500D03*
D12*
X152220000Y-162460000D03*
X152220000Y-165000000D03*
X152220000Y-167540000D03*
X157300000Y-162460000D03*
X157300000Y-165000000D03*
X157300000Y-167540000D03*
D13*
X55000000Y-65000000D03*
D14*
X55000000Y-65000000D03*
D10*
X165500000Y-88750000D03*
D11*
X168040000Y-91290000D03*
X168040000Y-86210000D03*
X162960000Y-91290000D03*
X162960000Y-86210000D03*
G36*
X169938000Y-60016613D02*
G01*
X169983387Y-60062000D01*
X170000000Y-60124000D01*
X170000000Y-169876000D01*
X169983387Y-169938000D01*
X169938000Y-169983387D01*
X169876000Y-170000000D01*
X50124000Y-170000000D01*
X50062000Y-169983387D01*
X50016613Y-169938000D01*
X50000000Y-169876000D01*
X50000000Y-120000000D01*
X69000000Y-120000000D01*
X69000000Y-145000000D01*
X89000000Y-145000000D01*
X89000000Y-120000000D01*
X69000000Y-120000000D01*
X50000000Y-120000000D01*
X50000000Y-67000000D01*
X69000000Y-67000000D01*
X69000000Y-92000000D01*
X89000000Y-92000000D01*
X89000000Y-67000000D01*
X69000000Y-67000000D01*
X50000000Y-67000000D01*
X50000000Y-60124000D01*
X50016613Y-60062000D01*
X50062000Y-60016613D01*
X50124000Y-60000000D01*
X169876000Y-60000000D01*
X169938000Y-60016613D01*
G37*
M02*
