%TF.GenerationSoftware,KiCad,Pcbnew,7.0.1*%
%TF.CreationDate,2023-05-27T09:10:53+02:00*%
%TF.ProjectId,K_Munin400,4b5f4d75-6e69-46e3-9430-302e6b696361,rev?*%
%TF.SameCoordinates,Original*%
%TF.FileFunction,Drillmap*%
%TF.FilePolarity,Positive*%
%FSLAX45Y45*%
G04 Gerber Fmt 4.5, Leading zero omitted, Abs format (unit mm)*
G04 Created by KiCad (PCBNEW 7.0.1) date 2023-05-27 09:10:53*
%MOMM*%
%LPD*%
G01*
G04 APERTURE LIST*
%ADD10C,0.100000*%
%ADD11C,0.150000*%
%ADD12C,0.200000*%
%ADD13C,0.360000*%
G04 APERTURE END LIST*
D10*
X5000000Y-6500000D02*
X15800000Y-6500000D01*
X15800000Y-16900000D01*
X5000000Y-16900000D01*
X5000000Y-6500000D01*
D11*
X6900000Y-12000000D02*
X8900000Y-12000000D01*
X8900000Y-14500000D01*
X6900000Y-14500000D01*
X6900000Y-12000000D01*
X6890000Y-6640000D02*
X8890000Y-6640000D01*
X8890000Y-9140000D01*
X6890000Y-9140000D01*
X6890000Y-6640000D01*
D12*
D13*
X7720000Y-7299250D02*
X8080000Y-7659250D01*
X8080000Y-7299250D02*
X7720000Y-7659250D01*
X7720000Y-13490750D02*
X8080000Y-13850750D01*
X8080000Y-13490750D02*
X7720000Y-13850750D01*
D12*
X5242619Y-17217524D02*
X5242619Y-17017524D01*
X5242619Y-17017524D02*
X5290238Y-17017524D01*
X5290238Y-17017524D02*
X5318810Y-17027048D01*
X5318810Y-17027048D02*
X5337857Y-17046095D01*
X5337857Y-17046095D02*
X5347381Y-17065143D01*
X5347381Y-17065143D02*
X5356905Y-17103238D01*
X5356905Y-17103238D02*
X5356905Y-17131810D01*
X5356905Y-17131810D02*
X5347381Y-17169905D01*
X5347381Y-17169905D02*
X5337857Y-17188952D01*
X5337857Y-17188952D02*
X5318810Y-17208000D01*
X5318810Y-17208000D02*
X5290238Y-17217524D01*
X5290238Y-17217524D02*
X5242619Y-17217524D01*
X5442619Y-17217524D02*
X5442619Y-17084190D01*
X5442619Y-17122286D02*
X5452143Y-17103238D01*
X5452143Y-17103238D02*
X5461667Y-17093714D01*
X5461667Y-17093714D02*
X5480714Y-17084190D01*
X5480714Y-17084190D02*
X5499762Y-17084190D01*
X5566429Y-17217524D02*
X5566429Y-17084190D01*
X5566429Y-17017524D02*
X5556905Y-17027048D01*
X5556905Y-17027048D02*
X5566429Y-17036571D01*
X5566429Y-17036571D02*
X5575952Y-17027048D01*
X5575952Y-17027048D02*
X5566429Y-17017524D01*
X5566429Y-17017524D02*
X5566429Y-17036571D01*
X5690238Y-17217524D02*
X5671190Y-17208000D01*
X5671190Y-17208000D02*
X5661667Y-17188952D01*
X5661667Y-17188952D02*
X5661667Y-17017524D01*
X5795000Y-17217524D02*
X5775952Y-17208000D01*
X5775952Y-17208000D02*
X5766428Y-17188952D01*
X5766428Y-17188952D02*
X5766428Y-17017524D01*
X6023571Y-17217524D02*
X6023571Y-17017524D01*
X6023571Y-17017524D02*
X6090238Y-17160381D01*
X6090238Y-17160381D02*
X6156905Y-17017524D01*
X6156905Y-17017524D02*
X6156905Y-17217524D01*
X6337857Y-17217524D02*
X6337857Y-17112762D01*
X6337857Y-17112762D02*
X6328333Y-17093714D01*
X6328333Y-17093714D02*
X6309286Y-17084190D01*
X6309286Y-17084190D02*
X6271190Y-17084190D01*
X6271190Y-17084190D02*
X6252143Y-17093714D01*
X6337857Y-17208000D02*
X6318809Y-17217524D01*
X6318809Y-17217524D02*
X6271190Y-17217524D01*
X6271190Y-17217524D02*
X6252143Y-17208000D01*
X6252143Y-17208000D02*
X6242619Y-17188952D01*
X6242619Y-17188952D02*
X6242619Y-17169905D01*
X6242619Y-17169905D02*
X6252143Y-17150857D01*
X6252143Y-17150857D02*
X6271190Y-17141333D01*
X6271190Y-17141333D02*
X6318809Y-17141333D01*
X6318809Y-17141333D02*
X6337857Y-17131810D01*
X6433095Y-17084190D02*
X6433095Y-17284190D01*
X6433095Y-17093714D02*
X6452143Y-17084190D01*
X6452143Y-17084190D02*
X6490238Y-17084190D01*
X6490238Y-17084190D02*
X6509286Y-17093714D01*
X6509286Y-17093714D02*
X6518809Y-17103238D01*
X6518809Y-17103238D02*
X6528333Y-17122286D01*
X6528333Y-17122286D02*
X6528333Y-17179429D01*
X6528333Y-17179429D02*
X6518809Y-17198476D01*
X6518809Y-17198476D02*
X6509286Y-17208000D01*
X6509286Y-17208000D02*
X6490238Y-17217524D01*
X6490238Y-17217524D02*
X6452143Y-17217524D01*
X6452143Y-17217524D02*
X6433095Y-17208000D01*
X6614048Y-17198476D02*
X6623571Y-17208000D01*
X6623571Y-17208000D02*
X6614048Y-17217524D01*
X6614048Y-17217524D02*
X6604524Y-17208000D01*
X6604524Y-17208000D02*
X6614048Y-17198476D01*
X6614048Y-17198476D02*
X6614048Y-17217524D01*
X6614048Y-17093714D02*
X6623571Y-17103238D01*
X6623571Y-17103238D02*
X6614048Y-17112762D01*
X6614048Y-17112762D02*
X6604524Y-17103238D01*
X6604524Y-17103238D02*
X6614048Y-17093714D01*
X6614048Y-17093714D02*
X6614048Y-17112762D01*
X4795000Y-17445000D02*
X4995000Y-17645000D01*
X4995000Y-17445000D02*
X4795000Y-17645000D01*
X5223571Y-17437524D02*
X5347381Y-17437524D01*
X5347381Y-17437524D02*
X5280714Y-17513714D01*
X5280714Y-17513714D02*
X5309286Y-17513714D01*
X5309286Y-17513714D02*
X5328333Y-17523238D01*
X5328333Y-17523238D02*
X5337857Y-17532762D01*
X5337857Y-17532762D02*
X5347381Y-17551810D01*
X5347381Y-17551810D02*
X5347381Y-17599429D01*
X5347381Y-17599429D02*
X5337857Y-17618476D01*
X5337857Y-17618476D02*
X5328333Y-17628000D01*
X5328333Y-17628000D02*
X5309286Y-17637524D01*
X5309286Y-17637524D02*
X5252143Y-17637524D01*
X5252143Y-17637524D02*
X5233095Y-17628000D01*
X5233095Y-17628000D02*
X5223571Y-17618476D01*
X5433095Y-17618476D02*
X5442619Y-17628000D01*
X5442619Y-17628000D02*
X5433095Y-17637524D01*
X5433095Y-17637524D02*
X5423571Y-17628000D01*
X5423571Y-17628000D02*
X5433095Y-17618476D01*
X5433095Y-17618476D02*
X5433095Y-17637524D01*
X5614048Y-17437524D02*
X5575952Y-17437524D01*
X5575952Y-17437524D02*
X5556905Y-17447048D01*
X5556905Y-17447048D02*
X5547381Y-17456571D01*
X5547381Y-17456571D02*
X5528333Y-17485143D01*
X5528333Y-17485143D02*
X5518810Y-17523238D01*
X5518810Y-17523238D02*
X5518810Y-17599429D01*
X5518810Y-17599429D02*
X5528333Y-17618476D01*
X5528333Y-17618476D02*
X5537857Y-17628000D01*
X5537857Y-17628000D02*
X5556905Y-17637524D01*
X5556905Y-17637524D02*
X5595000Y-17637524D01*
X5595000Y-17637524D02*
X5614048Y-17628000D01*
X5614048Y-17628000D02*
X5623571Y-17618476D01*
X5623571Y-17618476D02*
X5633095Y-17599429D01*
X5633095Y-17599429D02*
X5633095Y-17551810D01*
X5633095Y-17551810D02*
X5623571Y-17532762D01*
X5623571Y-17532762D02*
X5614048Y-17523238D01*
X5614048Y-17523238D02*
X5595000Y-17513714D01*
X5595000Y-17513714D02*
X5556905Y-17513714D01*
X5556905Y-17513714D02*
X5537857Y-17523238D01*
X5537857Y-17523238D02*
X5528333Y-17532762D01*
X5528333Y-17532762D02*
X5518810Y-17551810D01*
X5756905Y-17437524D02*
X5775952Y-17437524D01*
X5775952Y-17437524D02*
X5795000Y-17447048D01*
X5795000Y-17447048D02*
X5804524Y-17456571D01*
X5804524Y-17456571D02*
X5814048Y-17475619D01*
X5814048Y-17475619D02*
X5823571Y-17513714D01*
X5823571Y-17513714D02*
X5823571Y-17561333D01*
X5823571Y-17561333D02*
X5814048Y-17599429D01*
X5814048Y-17599429D02*
X5804524Y-17618476D01*
X5804524Y-17618476D02*
X5795000Y-17628000D01*
X5795000Y-17628000D02*
X5775952Y-17637524D01*
X5775952Y-17637524D02*
X5756905Y-17637524D01*
X5756905Y-17637524D02*
X5737857Y-17628000D01*
X5737857Y-17628000D02*
X5728333Y-17618476D01*
X5728333Y-17618476D02*
X5718809Y-17599429D01*
X5718809Y-17599429D02*
X5709286Y-17561333D01*
X5709286Y-17561333D02*
X5709286Y-17513714D01*
X5709286Y-17513714D02*
X5718809Y-17475619D01*
X5718809Y-17475619D02*
X5728333Y-17456571D01*
X5728333Y-17456571D02*
X5737857Y-17447048D01*
X5737857Y-17447048D02*
X5756905Y-17437524D01*
X5947381Y-17437524D02*
X5966429Y-17437524D01*
X5966429Y-17437524D02*
X5985476Y-17447048D01*
X5985476Y-17447048D02*
X5995000Y-17456571D01*
X5995000Y-17456571D02*
X6004524Y-17475619D01*
X6004524Y-17475619D02*
X6014048Y-17513714D01*
X6014048Y-17513714D02*
X6014048Y-17561333D01*
X6014048Y-17561333D02*
X6004524Y-17599429D01*
X6004524Y-17599429D02*
X5995000Y-17618476D01*
X5995000Y-17618476D02*
X5985476Y-17628000D01*
X5985476Y-17628000D02*
X5966429Y-17637524D01*
X5966429Y-17637524D02*
X5947381Y-17637524D01*
X5947381Y-17637524D02*
X5928333Y-17628000D01*
X5928333Y-17628000D02*
X5918809Y-17618476D01*
X5918809Y-17618476D02*
X5909286Y-17599429D01*
X5909286Y-17599429D02*
X5899762Y-17561333D01*
X5899762Y-17561333D02*
X5899762Y-17513714D01*
X5899762Y-17513714D02*
X5909286Y-17475619D01*
X5909286Y-17475619D02*
X5918809Y-17456571D01*
X5918809Y-17456571D02*
X5928333Y-17447048D01*
X5928333Y-17447048D02*
X5947381Y-17437524D01*
X6099762Y-17637524D02*
X6099762Y-17504190D01*
X6099762Y-17523238D02*
X6109286Y-17513714D01*
X6109286Y-17513714D02*
X6128333Y-17504190D01*
X6128333Y-17504190D02*
X6156905Y-17504190D01*
X6156905Y-17504190D02*
X6175952Y-17513714D01*
X6175952Y-17513714D02*
X6185476Y-17532762D01*
X6185476Y-17532762D02*
X6185476Y-17637524D01*
X6185476Y-17532762D02*
X6195000Y-17513714D01*
X6195000Y-17513714D02*
X6214048Y-17504190D01*
X6214048Y-17504190D02*
X6242619Y-17504190D01*
X6242619Y-17504190D02*
X6261667Y-17513714D01*
X6261667Y-17513714D02*
X6271190Y-17532762D01*
X6271190Y-17532762D02*
X6271190Y-17637524D01*
X6366429Y-17637524D02*
X6366429Y-17504190D01*
X6366429Y-17523238D02*
X6375952Y-17513714D01*
X6375952Y-17513714D02*
X6395000Y-17504190D01*
X6395000Y-17504190D02*
X6423571Y-17504190D01*
X6423571Y-17504190D02*
X6442619Y-17513714D01*
X6442619Y-17513714D02*
X6452143Y-17532762D01*
X6452143Y-17532762D02*
X6452143Y-17637524D01*
X6452143Y-17532762D02*
X6461667Y-17513714D01*
X6461667Y-17513714D02*
X6480714Y-17504190D01*
X6480714Y-17504190D02*
X6509286Y-17504190D01*
X6509286Y-17504190D02*
X6528333Y-17513714D01*
X6528333Y-17513714D02*
X6537857Y-17532762D01*
X6537857Y-17532762D02*
X6537857Y-17637524D01*
X6928333Y-17428000D02*
X6756905Y-17685143D01*
X7185476Y-17437524D02*
X7204524Y-17437524D01*
X7204524Y-17437524D02*
X7223572Y-17447048D01*
X7223572Y-17447048D02*
X7233095Y-17456571D01*
X7233095Y-17456571D02*
X7242619Y-17475619D01*
X7242619Y-17475619D02*
X7252143Y-17513714D01*
X7252143Y-17513714D02*
X7252143Y-17561333D01*
X7252143Y-17561333D02*
X7242619Y-17599429D01*
X7242619Y-17599429D02*
X7233095Y-17618476D01*
X7233095Y-17618476D02*
X7223572Y-17628000D01*
X7223572Y-17628000D02*
X7204524Y-17637524D01*
X7204524Y-17637524D02*
X7185476Y-17637524D01*
X7185476Y-17637524D02*
X7166429Y-17628000D01*
X7166429Y-17628000D02*
X7156905Y-17618476D01*
X7156905Y-17618476D02*
X7147381Y-17599429D01*
X7147381Y-17599429D02*
X7137857Y-17561333D01*
X7137857Y-17561333D02*
X7137857Y-17513714D01*
X7137857Y-17513714D02*
X7147381Y-17475619D01*
X7147381Y-17475619D02*
X7156905Y-17456571D01*
X7156905Y-17456571D02*
X7166429Y-17447048D01*
X7166429Y-17447048D02*
X7185476Y-17437524D01*
X7337857Y-17618476D02*
X7347381Y-17628000D01*
X7347381Y-17628000D02*
X7337857Y-17637524D01*
X7337857Y-17637524D02*
X7328333Y-17628000D01*
X7328333Y-17628000D02*
X7337857Y-17618476D01*
X7337857Y-17618476D02*
X7337857Y-17637524D01*
X7537857Y-17637524D02*
X7423572Y-17637524D01*
X7480714Y-17637524D02*
X7480714Y-17437524D01*
X7480714Y-17437524D02*
X7461667Y-17466095D01*
X7461667Y-17466095D02*
X7442619Y-17485143D01*
X7442619Y-17485143D02*
X7423572Y-17494667D01*
X7709286Y-17504190D02*
X7709286Y-17637524D01*
X7661667Y-17428000D02*
X7614048Y-17570857D01*
X7614048Y-17570857D02*
X7737857Y-17570857D01*
X7918810Y-17637524D02*
X7804524Y-17637524D01*
X7861667Y-17637524D02*
X7861667Y-17437524D01*
X7861667Y-17437524D02*
X7842619Y-17466095D01*
X7842619Y-17466095D02*
X7823572Y-17485143D01*
X7823572Y-17485143D02*
X7804524Y-17494667D01*
X7985476Y-17437524D02*
X8118810Y-17437524D01*
X8118810Y-17437524D02*
X8033095Y-17637524D01*
X8185476Y-17437524D02*
X8185476Y-17475619D01*
X8261667Y-17437524D02*
X8261667Y-17475619D01*
X8556905Y-17713714D02*
X8547381Y-17704190D01*
X8547381Y-17704190D02*
X8528334Y-17675619D01*
X8528334Y-17675619D02*
X8518810Y-17656571D01*
X8518810Y-17656571D02*
X8509286Y-17628000D01*
X8509286Y-17628000D02*
X8499762Y-17580381D01*
X8499762Y-17580381D02*
X8499762Y-17542286D01*
X8499762Y-17542286D02*
X8509286Y-17494667D01*
X8509286Y-17494667D02*
X8518810Y-17466095D01*
X8518810Y-17466095D02*
X8528334Y-17447048D01*
X8528334Y-17447048D02*
X8547381Y-17418476D01*
X8547381Y-17418476D02*
X8556905Y-17408952D01*
X8623572Y-17456571D02*
X8633096Y-17447048D01*
X8633096Y-17447048D02*
X8652143Y-17437524D01*
X8652143Y-17437524D02*
X8699762Y-17437524D01*
X8699762Y-17437524D02*
X8718810Y-17447048D01*
X8718810Y-17447048D02*
X8728334Y-17456571D01*
X8728334Y-17456571D02*
X8737857Y-17475619D01*
X8737857Y-17475619D02*
X8737857Y-17494667D01*
X8737857Y-17494667D02*
X8728334Y-17523238D01*
X8728334Y-17523238D02*
X8614048Y-17637524D01*
X8614048Y-17637524D02*
X8737857Y-17637524D01*
X8975953Y-17637524D02*
X8975953Y-17437524D01*
X9061667Y-17637524D02*
X9061667Y-17532762D01*
X9061667Y-17532762D02*
X9052143Y-17513714D01*
X9052143Y-17513714D02*
X9033096Y-17504190D01*
X9033096Y-17504190D02*
X9004524Y-17504190D01*
X9004524Y-17504190D02*
X8985477Y-17513714D01*
X8985477Y-17513714D02*
X8975953Y-17523238D01*
X9185477Y-17637524D02*
X9166429Y-17628000D01*
X9166429Y-17628000D02*
X9156905Y-17618476D01*
X9156905Y-17618476D02*
X9147381Y-17599429D01*
X9147381Y-17599429D02*
X9147381Y-17542286D01*
X9147381Y-17542286D02*
X9156905Y-17523238D01*
X9156905Y-17523238D02*
X9166429Y-17513714D01*
X9166429Y-17513714D02*
X9185477Y-17504190D01*
X9185477Y-17504190D02*
X9214048Y-17504190D01*
X9214048Y-17504190D02*
X9233096Y-17513714D01*
X9233096Y-17513714D02*
X9242619Y-17523238D01*
X9242619Y-17523238D02*
X9252143Y-17542286D01*
X9252143Y-17542286D02*
X9252143Y-17599429D01*
X9252143Y-17599429D02*
X9242619Y-17618476D01*
X9242619Y-17618476D02*
X9233096Y-17628000D01*
X9233096Y-17628000D02*
X9214048Y-17637524D01*
X9214048Y-17637524D02*
X9185477Y-17637524D01*
X9366429Y-17637524D02*
X9347381Y-17628000D01*
X9347381Y-17628000D02*
X9337858Y-17608952D01*
X9337858Y-17608952D02*
X9337858Y-17437524D01*
X9518810Y-17628000D02*
X9499762Y-17637524D01*
X9499762Y-17637524D02*
X9461667Y-17637524D01*
X9461667Y-17637524D02*
X9442619Y-17628000D01*
X9442619Y-17628000D02*
X9433096Y-17608952D01*
X9433096Y-17608952D02*
X9433096Y-17532762D01*
X9433096Y-17532762D02*
X9442619Y-17513714D01*
X9442619Y-17513714D02*
X9461667Y-17504190D01*
X9461667Y-17504190D02*
X9499762Y-17504190D01*
X9499762Y-17504190D02*
X9518810Y-17513714D01*
X9518810Y-17513714D02*
X9528334Y-17532762D01*
X9528334Y-17532762D02*
X9528334Y-17551810D01*
X9528334Y-17551810D02*
X9433096Y-17570857D01*
X9604524Y-17628000D02*
X9623572Y-17637524D01*
X9623572Y-17637524D02*
X9661667Y-17637524D01*
X9661667Y-17637524D02*
X9680715Y-17628000D01*
X9680715Y-17628000D02*
X9690239Y-17608952D01*
X9690239Y-17608952D02*
X9690239Y-17599429D01*
X9690239Y-17599429D02*
X9680715Y-17580381D01*
X9680715Y-17580381D02*
X9661667Y-17570857D01*
X9661667Y-17570857D02*
X9633096Y-17570857D01*
X9633096Y-17570857D02*
X9614048Y-17561333D01*
X9614048Y-17561333D02*
X9604524Y-17542286D01*
X9604524Y-17542286D02*
X9604524Y-17532762D01*
X9604524Y-17532762D02*
X9614048Y-17513714D01*
X9614048Y-17513714D02*
X9633096Y-17504190D01*
X9633096Y-17504190D02*
X9661667Y-17504190D01*
X9661667Y-17504190D02*
X9680715Y-17513714D01*
X9756905Y-17713714D02*
X9766429Y-17704190D01*
X9766429Y-17704190D02*
X9785477Y-17675619D01*
X9785477Y-17675619D02*
X9795000Y-17656571D01*
X9795000Y-17656571D02*
X9804524Y-17628000D01*
X9804524Y-17628000D02*
X9814048Y-17580381D01*
X9814048Y-17580381D02*
X9814048Y-17542286D01*
X9814048Y-17542286D02*
X9804524Y-17494667D01*
X9804524Y-17494667D02*
X9795000Y-17466095D01*
X9795000Y-17466095D02*
X9785477Y-17447048D01*
X9785477Y-17447048D02*
X9766429Y-17418476D01*
X9766429Y-17418476D02*
X9756905Y-17408952D01*
X10118810Y-17713714D02*
X10109286Y-17704190D01*
X10109286Y-17704190D02*
X10090239Y-17675619D01*
X10090239Y-17675619D02*
X10080715Y-17656571D01*
X10080715Y-17656571D02*
X10071191Y-17628000D01*
X10071191Y-17628000D02*
X10061667Y-17580381D01*
X10061667Y-17580381D02*
X10061667Y-17542286D01*
X10061667Y-17542286D02*
X10071191Y-17494667D01*
X10071191Y-17494667D02*
X10080715Y-17466095D01*
X10080715Y-17466095D02*
X10090239Y-17447048D01*
X10090239Y-17447048D02*
X10109286Y-17418476D01*
X10109286Y-17418476D02*
X10118810Y-17408952D01*
X10195000Y-17504190D02*
X10195000Y-17637524D01*
X10195000Y-17523238D02*
X10204524Y-17513714D01*
X10204524Y-17513714D02*
X10223572Y-17504190D01*
X10223572Y-17504190D02*
X10252143Y-17504190D01*
X10252143Y-17504190D02*
X10271191Y-17513714D01*
X10271191Y-17513714D02*
X10280715Y-17532762D01*
X10280715Y-17532762D02*
X10280715Y-17637524D01*
X10404524Y-17637524D02*
X10385477Y-17628000D01*
X10385477Y-17628000D02*
X10375953Y-17618476D01*
X10375953Y-17618476D02*
X10366429Y-17599429D01*
X10366429Y-17599429D02*
X10366429Y-17542286D01*
X10366429Y-17542286D02*
X10375953Y-17523238D01*
X10375953Y-17523238D02*
X10385477Y-17513714D01*
X10385477Y-17513714D02*
X10404524Y-17504190D01*
X10404524Y-17504190D02*
X10433096Y-17504190D01*
X10433096Y-17504190D02*
X10452143Y-17513714D01*
X10452143Y-17513714D02*
X10461667Y-17523238D01*
X10461667Y-17523238D02*
X10471191Y-17542286D01*
X10471191Y-17542286D02*
X10471191Y-17599429D01*
X10471191Y-17599429D02*
X10461667Y-17618476D01*
X10461667Y-17618476D02*
X10452143Y-17628000D01*
X10452143Y-17628000D02*
X10433096Y-17637524D01*
X10433096Y-17637524D02*
X10404524Y-17637524D01*
X10528334Y-17504190D02*
X10604524Y-17504190D01*
X10556905Y-17437524D02*
X10556905Y-17608952D01*
X10556905Y-17608952D02*
X10566429Y-17628000D01*
X10566429Y-17628000D02*
X10585477Y-17637524D01*
X10585477Y-17637524D02*
X10604524Y-17637524D01*
X10823572Y-17504190D02*
X10823572Y-17704190D01*
X10823572Y-17513714D02*
X10842620Y-17504190D01*
X10842620Y-17504190D02*
X10880715Y-17504190D01*
X10880715Y-17504190D02*
X10899762Y-17513714D01*
X10899762Y-17513714D02*
X10909286Y-17523238D01*
X10909286Y-17523238D02*
X10918810Y-17542286D01*
X10918810Y-17542286D02*
X10918810Y-17599429D01*
X10918810Y-17599429D02*
X10909286Y-17618476D01*
X10909286Y-17618476D02*
X10899762Y-17628000D01*
X10899762Y-17628000D02*
X10880715Y-17637524D01*
X10880715Y-17637524D02*
X10842620Y-17637524D01*
X10842620Y-17637524D02*
X10823572Y-17628000D01*
X11033096Y-17637524D02*
X11014048Y-17628000D01*
X11014048Y-17628000D02*
X11004524Y-17608952D01*
X11004524Y-17608952D02*
X11004524Y-17437524D01*
X11195000Y-17637524D02*
X11195000Y-17532762D01*
X11195000Y-17532762D02*
X11185477Y-17513714D01*
X11185477Y-17513714D02*
X11166429Y-17504190D01*
X11166429Y-17504190D02*
X11128334Y-17504190D01*
X11128334Y-17504190D02*
X11109286Y-17513714D01*
X11195000Y-17628000D02*
X11175953Y-17637524D01*
X11175953Y-17637524D02*
X11128334Y-17637524D01*
X11128334Y-17637524D02*
X11109286Y-17628000D01*
X11109286Y-17628000D02*
X11099762Y-17608952D01*
X11099762Y-17608952D02*
X11099762Y-17589905D01*
X11099762Y-17589905D02*
X11109286Y-17570857D01*
X11109286Y-17570857D02*
X11128334Y-17561333D01*
X11128334Y-17561333D02*
X11175953Y-17561333D01*
X11175953Y-17561333D02*
X11195000Y-17551810D01*
X11261667Y-17504190D02*
X11337858Y-17504190D01*
X11290239Y-17437524D02*
X11290239Y-17608952D01*
X11290239Y-17608952D02*
X11299762Y-17628000D01*
X11299762Y-17628000D02*
X11318810Y-17637524D01*
X11318810Y-17637524D02*
X11337858Y-17637524D01*
X11480715Y-17628000D02*
X11461667Y-17637524D01*
X11461667Y-17637524D02*
X11423572Y-17637524D01*
X11423572Y-17637524D02*
X11404524Y-17628000D01*
X11404524Y-17628000D02*
X11395000Y-17608952D01*
X11395000Y-17608952D02*
X11395000Y-17532762D01*
X11395000Y-17532762D02*
X11404524Y-17513714D01*
X11404524Y-17513714D02*
X11423572Y-17504190D01*
X11423572Y-17504190D02*
X11461667Y-17504190D01*
X11461667Y-17504190D02*
X11480715Y-17513714D01*
X11480715Y-17513714D02*
X11490239Y-17532762D01*
X11490239Y-17532762D02*
X11490239Y-17551810D01*
X11490239Y-17551810D02*
X11395000Y-17570857D01*
X11661667Y-17637524D02*
X11661667Y-17437524D01*
X11661667Y-17628000D02*
X11642620Y-17637524D01*
X11642620Y-17637524D02*
X11604524Y-17637524D01*
X11604524Y-17637524D02*
X11585477Y-17628000D01*
X11585477Y-17628000D02*
X11575953Y-17618476D01*
X11575953Y-17618476D02*
X11566429Y-17599429D01*
X11566429Y-17599429D02*
X11566429Y-17542286D01*
X11566429Y-17542286D02*
X11575953Y-17523238D01*
X11575953Y-17523238D02*
X11585477Y-17513714D01*
X11585477Y-17513714D02*
X11604524Y-17504190D01*
X11604524Y-17504190D02*
X11642620Y-17504190D01*
X11642620Y-17504190D02*
X11661667Y-17513714D01*
X11737858Y-17713714D02*
X11747381Y-17704190D01*
X11747381Y-17704190D02*
X11766429Y-17675619D01*
X11766429Y-17675619D02*
X11775953Y-17656571D01*
X11775953Y-17656571D02*
X11785477Y-17628000D01*
X11785477Y-17628000D02*
X11795000Y-17580381D01*
X11795000Y-17580381D02*
X11795000Y-17542286D01*
X11795000Y-17542286D02*
X11785477Y-17494667D01*
X11785477Y-17494667D02*
X11775953Y-17466095D01*
X11775953Y-17466095D02*
X11766429Y-17447048D01*
X11766429Y-17447048D02*
X11747381Y-17418476D01*
X11747381Y-17418476D02*
X11737858Y-17408952D01*
M02*
