G04 #@! TF.GenerationSoftware,KiCad,Pcbnew,7.0.1*
G04 #@! TF.CreationDate,2023-05-25T18:43:51+02:00*
G04 #@! TF.ProjectId,K_Munin400,4b5f4d75-6e69-46e3-9430-302e6b696361,rev?*
G04 #@! TF.SameCoordinates,Original*
G04 #@! TF.FileFunction,Copper,L2,Bot*
G04 #@! TF.FilePolarity,Positive*
%FSLAX46Y46*%
G04 Gerber Fmt 4.6, Leading zero omitted, Abs format (unit mm)*
G04 Created by KiCad (PCBNEW 7.0.1) date 2023-05-25 18:43:51*
%MOMM*%
%LPD*%
G01*
G04 APERTURE LIST*
G04 #@! TA.AperFunction,ComponentPad*
%ADD10C,1.998980*%
G04 #@! TD*
G04 #@! TA.AperFunction,ComponentPad*
%ADD11C,2.499360*%
G04 #@! TD*
G04 #@! TA.AperFunction,ComponentPad*
%ADD12C,2.300000*%
G04 #@! TD*
G04 #@! TA.AperFunction,ComponentPad*
%ADD13C,3.900000*%
G04 #@! TD*
G04 #@! TA.AperFunction,ConnectorPad*
%ADD14C,7.000000*%
G04 #@! TD*
G04 #@! TA.AperFunction,ComponentPad*
%ADD15C,1.950000*%
G04 #@! TD*
G04 #@! TA.AperFunction,ComponentPad*
%ADD16R,1.950000X1.950000*%
G04 #@! TD*
G04 #@! TA.AperFunction,ViaPad*
%ADD17C,0.800000*%
G04 #@! TD*
G04 #@! TA.AperFunction,Conductor*
%ADD18C,2.000000*%
G04 #@! TD*
G04 APERTURE END LIST*
D10*
X54500000Y-88998860D03*
D11*
X51960000Y-86458860D03*
X51960000Y-91538860D03*
X57040000Y-86458860D03*
X57040000Y-91538860D03*
D12*
X162360000Y-147660000D03*
X162360000Y-150200000D03*
X162360000Y-152740000D03*
X167440000Y-147660000D03*
X167440000Y-150200000D03*
X167440000Y-152740000D03*
D13*
X165000000Y-65000000D03*
D14*
X165000000Y-65000000D03*
D13*
X165000000Y-165000000D03*
D14*
X165000000Y-165000000D03*
D15*
X101920000Y-163000000D03*
D16*
X107000000Y-163000000D03*
D13*
X55000000Y-165000000D03*
D14*
X55000000Y-165000000D03*
D13*
X79000000Y-106000000D03*
D14*
X79000000Y-106000000D03*
D12*
X152220000Y-162460000D03*
X152220000Y-165000000D03*
X152220000Y-167540000D03*
X157300000Y-162460000D03*
X157300000Y-165000000D03*
X157300000Y-167540000D03*
D13*
X55000000Y-65000000D03*
D14*
X55000000Y-65000000D03*
D10*
X165500000Y-88750000D03*
D11*
X168040000Y-91290000D03*
X168040000Y-86210000D03*
X162960000Y-91290000D03*
X162960000Y-86210000D03*
D17*
X113000000Y-96500000D03*
X113000000Y-101000000D03*
X113000000Y-110500000D03*
X113000000Y-106000000D03*
X114500000Y-95000000D03*
X113000000Y-98500000D03*
X113000000Y-103500000D03*
X113000000Y-108500000D03*
X113000000Y-113000000D03*
X114500000Y-114500000D03*
X96000000Y-186500000D03*
X211500000Y-176500000D03*
X78000000Y-154500000D03*
X75000000Y-154500000D03*
X140500000Y-110500000D03*
X140500000Y-113000000D03*
X140000000Y-100000000D03*
X135500000Y-177000000D03*
X119000000Y-168000000D03*
X119000000Y-159000000D03*
X104000000Y-153000000D03*
X114000000Y-153000000D03*
X119000000Y-148500000D03*
X109000000Y-148500000D03*
X99000000Y-148500000D03*
X133400000Y-135600000D03*
X133400000Y-133400000D03*
X128600000Y-135800000D03*
X146400000Y-137400000D03*
X150000000Y-137400000D03*
X143600000Y-137400000D03*
X155600000Y-107400000D03*
X150000000Y-111200000D03*
X140000000Y-92500000D03*
X150000000Y-92500000D03*
X150000000Y-82500000D03*
X120000000Y-62500000D03*
X110000000Y-62500000D03*
X99000000Y-136000000D03*
X109000000Y-136000000D03*
X119000000Y-136000000D03*
X63800000Y-148000000D03*
X66500000Y-148000000D03*
X81000000Y-149200000D03*
X78000000Y-149200000D03*
X75000000Y-149800000D03*
X71400000Y-149800000D03*
X57000000Y-69000000D03*
X57000000Y-79000000D03*
X60000000Y-74000000D03*
X60000000Y-91500000D03*
X87600000Y-163000000D03*
X90400000Y-163000000D03*
X167500000Y-122500000D03*
X167500000Y-117500000D03*
X169000000Y-130000000D03*
X169000000Y-134000000D03*
X169000000Y-138000000D03*
X169000000Y-142000000D03*
X145000000Y-154800000D03*
X145000000Y-153200000D03*
X145000000Y-151400000D03*
X145000000Y-149600000D03*
X146800000Y-148800000D03*
X167500000Y-107500000D03*
X162500000Y-107500000D03*
X167500000Y-97500000D03*
X162500000Y-97500000D03*
X167500000Y-102500000D03*
X167500000Y-112500000D03*
X135000000Y-87500000D03*
X145000000Y-107500000D03*
X140500000Y-107500000D03*
X145000000Y-97500000D03*
X140000000Y-97500000D03*
X150000000Y-102500000D03*
X140000000Y-102500000D03*
X145000000Y-87500000D03*
X135000000Y-120000000D03*
X135000000Y-125000000D03*
X160000000Y-120000000D03*
X150000000Y-120000000D03*
X145000000Y-125000000D03*
X155000000Y-125000000D03*
X135000000Y-115000000D03*
X140500000Y-115000000D03*
X155000000Y-115000000D03*
X145000000Y-115000000D03*
X94000000Y-141000000D03*
X94000000Y-131000000D03*
X114000000Y-141000000D03*
X104000000Y-141000000D03*
X114000000Y-131000000D03*
X104000000Y-131000000D03*
X99000000Y-122000000D03*
X109000000Y-122000000D03*
X104000000Y-122000000D03*
X99000000Y-127000000D03*
X109000000Y-127000000D03*
X99000000Y-117000000D03*
X104000000Y-117000000D03*
X106000000Y-103500000D03*
X106000000Y-108500000D03*
X106000000Y-113500000D03*
X106000000Y-93500000D03*
X106000000Y-98500000D03*
X104000000Y-103500000D03*
X104000000Y-108500000D03*
X104000000Y-113500000D03*
X104000000Y-93500000D03*
X104000000Y-98500000D03*
X70000000Y-62500000D03*
X80000000Y-62500000D03*
X67000000Y-69000000D03*
X52000000Y-84000000D03*
X60000000Y-84000000D03*
X52000000Y-74000000D03*
X105000000Y-86000000D03*
X100000000Y-86000000D03*
X110000000Y-86000000D03*
X100000000Y-91000000D03*
X160000000Y-82500000D03*
X140000000Y-82500000D03*
X130000000Y-82500000D03*
X125000000Y-82500000D03*
X120000000Y-82500000D03*
X115000000Y-82500000D03*
X110000000Y-82500000D03*
X100000000Y-82500000D03*
X90000000Y-82500000D03*
X165000000Y-77500000D03*
X155000000Y-77500000D03*
X145000000Y-77500000D03*
X135000000Y-77500000D03*
X125000000Y-77500000D03*
X115000000Y-77500000D03*
X105000000Y-77500000D03*
X95000000Y-77500000D03*
X160000000Y-72500000D03*
X150000000Y-72500000D03*
X140000000Y-72500000D03*
X130000000Y-72500000D03*
X120000000Y-72500000D03*
X110000000Y-72500000D03*
X100000000Y-72500000D03*
X90000000Y-72500000D03*
X155000000Y-67500000D03*
X145000000Y-67500000D03*
X135000000Y-67500000D03*
X125000000Y-67500000D03*
X115000000Y-67500000D03*
X105000000Y-67500000D03*
X95000000Y-67500000D03*
X160000000Y-62500000D03*
X150000000Y-62500000D03*
X140000000Y-62500000D03*
X130000000Y-62500000D03*
X100000000Y-62500000D03*
X90000000Y-62500000D03*
X60000000Y-62500000D03*
X131000000Y-123600000D03*
X131000000Y-122000000D03*
X131000000Y-120200000D03*
X131000000Y-118800000D03*
X131000000Y-117000000D03*
X131000000Y-115200000D03*
X130600000Y-93600000D03*
X130600000Y-92000000D03*
X130600000Y-90400000D03*
X130600000Y-88600000D03*
X130600000Y-87000000D03*
X130600000Y-85400000D03*
X54000000Y-114500000D03*
X56500000Y-111500000D03*
X56500000Y-108500000D03*
X54000000Y-108500000D03*
X51500000Y-111500000D03*
X51500000Y-114500000D03*
X51500000Y-108500000D03*
X67000000Y-79000000D03*
X68500000Y-80000000D03*
X65000000Y-80000000D03*
X68000000Y-130500000D03*
X63500000Y-130500000D03*
X63500000Y-133000000D03*
X68000000Y-133000000D03*
X92000000Y-148500000D03*
X88000000Y-148500000D03*
X98500000Y-163000000D03*
X95500000Y-163000000D03*
X71000000Y-163000000D03*
X74000000Y-161000000D03*
X71000000Y-161000000D03*
X52000000Y-146500000D03*
X54500000Y-146500000D03*
X66500000Y-145800000D03*
X63800000Y-145800000D03*
X61000000Y-144000000D03*
X56500000Y-144000000D03*
X54500000Y-140000000D03*
X54500000Y-138500000D03*
X65000000Y-140000000D03*
X65000000Y-138500000D03*
X52000000Y-128000000D03*
X52000000Y-117500000D03*
X52000000Y-123500000D03*
X52000000Y-132000000D03*
X56500000Y-132000000D03*
X56500000Y-123500000D03*
X59000000Y-123500000D03*
X61500000Y-123500000D03*
X61500000Y-117500000D03*
X59000000Y-117500000D03*
X56500000Y-117500000D03*
X65000000Y-163000000D03*
X68000000Y-163000000D03*
X68000000Y-161000000D03*
X65000000Y-161000000D03*
X65000000Y-159000000D03*
X68000000Y-159000000D03*
X68000000Y-157000000D03*
X65000000Y-157000000D03*
X72500000Y-102500000D03*
X85500000Y-102500000D03*
X84500000Y-101500000D03*
X73500000Y-101500000D03*
X73500000Y-109500000D03*
X72000000Y-106000000D03*
X77000000Y-101000000D03*
X74500000Y-104500000D03*
X77000000Y-118000000D03*
X72000000Y-104000000D03*
X80000000Y-98000000D03*
X72000000Y-108000000D03*
X83000000Y-100000000D03*
X86000000Y-104000000D03*
X78000000Y-98000000D03*
X74000000Y-106000000D03*
X81000000Y-116000000D03*
X82000000Y-109500000D03*
X83500000Y-104500000D03*
X82500000Y-111000000D03*
X77000000Y-110000000D03*
X77000000Y-99000000D03*
X77000000Y-95000000D03*
X76000000Y-109500000D03*
X75000000Y-111000000D03*
X81000000Y-101000000D03*
X84500000Y-109500000D03*
X83000000Y-109000000D03*
X81000000Y-118000000D03*
X84000000Y-106000000D03*
X86000000Y-106000000D03*
X79000000Y-113000000D03*
X79000000Y-111000000D03*
X81000000Y-114000000D03*
X76000000Y-102000000D03*
X79000000Y-101000000D03*
X79000000Y-99000000D03*
X77000000Y-112000000D03*
X81000000Y-97000000D03*
X81000000Y-95000000D03*
X81000000Y-110000000D03*
X79000000Y-112000000D03*
X82000000Y-102000000D03*
X81000000Y-99000000D03*
X74500000Y-108000000D03*
X86000000Y-108000000D03*
X75000000Y-100000000D03*
X75000000Y-109000000D03*
X81000000Y-93000000D03*
X77000000Y-116000000D03*
X81000000Y-112000000D03*
X77000000Y-97000000D03*
X77000000Y-114000000D03*
X83500000Y-108000000D03*
X77000000Y-93000000D03*
X83000000Y-103000000D03*
X75000000Y-103000000D03*
X79000000Y-100000000D03*
D18*
X167440000Y-152740000D02*
X167440000Y-147660000D01*
X167440000Y-147660000D02*
X162360000Y-152740000D01*
X162360000Y-147660000D02*
X167440000Y-147660000D01*
X162360000Y-152740000D02*
X167440000Y-152740000D01*
X162360000Y-147660000D02*
X162360000Y-152740000D01*
X162360000Y-147660000D02*
X167440000Y-152740000D01*
G04 #@! TA.AperFunction,Conductor*
G36*
X169937500Y-60017113D02*
G01*
X169982887Y-60062500D01*
X169999500Y-60124500D01*
X169999500Y-143370500D01*
X169982887Y-143432500D01*
X169937500Y-143477887D01*
X169875500Y-143494500D01*
X159724000Y-143494500D01*
X159603071Y-143502426D01*
X159527486Y-143507380D01*
X159334348Y-143545799D01*
X159272336Y-143562415D01*
X159085873Y-143625710D01*
X158909248Y-143712813D01*
X158745507Y-143822221D01*
X158597447Y-143952066D01*
X158552066Y-143997447D01*
X158422221Y-144145507D01*
X158312813Y-144309248D01*
X158225710Y-144485873D01*
X158162415Y-144672336D01*
X158145799Y-144734348D01*
X158107380Y-144927486D01*
X158107380Y-144927491D01*
X158094500Y-145124000D01*
X158094500Y-155476000D01*
X158103086Y-155607006D01*
X158107380Y-155672513D01*
X158145799Y-155865651D01*
X158162415Y-155927663D01*
X158225710Y-156114126D01*
X158312813Y-156290751D01*
X158422221Y-156454492D01*
X158552066Y-156602552D01*
X158597447Y-156647933D01*
X158697190Y-156735405D01*
X158745509Y-156777780D01*
X158909249Y-156887187D01*
X159085868Y-156974287D01*
X159085871Y-156974288D01*
X159085873Y-156974289D01*
X159272336Y-157037584D01*
X159272345Y-157037587D01*
X159334345Y-157054200D01*
X159527491Y-157092620D01*
X159724000Y-157105500D01*
X159724008Y-157105500D01*
X169875500Y-157105500D01*
X169937500Y-157122113D01*
X169982887Y-157167500D01*
X169999500Y-157229500D01*
X169999500Y-169875500D01*
X169982887Y-169937500D01*
X169937500Y-169982887D01*
X169875500Y-169999500D01*
X50124500Y-169999500D01*
X50062500Y-169982887D01*
X50017113Y-169937500D01*
X50000500Y-169875500D01*
X50000500Y-164057838D01*
X104524500Y-164057838D01*
X104530919Y-164161237D01*
X104581950Y-164404616D01*
X104672343Y-164636272D01*
X104799634Y-164849896D01*
X104960349Y-165039650D01*
X105150103Y-165200365D01*
X105363727Y-165327656D01*
X105595386Y-165418050D01*
X105838763Y-165469081D01*
X105942158Y-165475500D01*
X108057838Y-165475500D01*
X108057842Y-165475500D01*
X108161237Y-165469081D01*
X108404614Y-165418050D01*
X108636273Y-165327656D01*
X108849894Y-165200366D01*
X108849893Y-165200366D01*
X108849896Y-165200365D01*
X109039650Y-165039650D01*
X109200365Y-164849896D01*
X109231353Y-164797890D01*
X109327656Y-164636273D01*
X109418050Y-164404614D01*
X109469081Y-164161237D01*
X109475500Y-164057842D01*
X109475500Y-161942158D01*
X109469081Y-161838763D01*
X109418050Y-161595386D01*
X109327656Y-161363727D01*
X109327655Y-161363726D01*
X109200365Y-161150103D01*
X109039650Y-160960349D01*
X108849896Y-160799634D01*
X108636272Y-160672343D01*
X108404616Y-160581950D01*
X108161237Y-160530919D01*
X108057842Y-160524500D01*
X105942158Y-160524500D01*
X105859442Y-160529635D01*
X105838762Y-160530919D01*
X105595383Y-160581950D01*
X105363727Y-160672343D01*
X105150103Y-160799634D01*
X104960349Y-160960349D01*
X104799634Y-161150103D01*
X104672343Y-161363727D01*
X104581950Y-161595383D01*
X104530919Y-161838762D01*
X104524500Y-161942162D01*
X104524500Y-164057838D01*
X50000500Y-164057838D01*
X50000500Y-145000000D01*
X68999459Y-145000000D01*
X68999500Y-145000099D01*
X68999616Y-145000382D01*
X68999617Y-145000383D01*
X68999618Y-145000384D01*
X68999808Y-145000461D01*
X69000000Y-145000541D01*
X69000002Y-145000539D01*
X69024616Y-145000524D01*
X69024616Y-145000528D01*
X69024760Y-145000500D01*
X88975240Y-145000500D01*
X88975383Y-145000528D01*
X88975384Y-145000524D01*
X88999997Y-145000539D01*
X89000000Y-145000541D01*
X89000383Y-145000383D01*
X89000500Y-145000099D01*
X89000541Y-145000000D01*
X89000541Y-144975446D01*
X89000500Y-144975240D01*
X89000500Y-120024760D01*
X89000528Y-120024616D01*
X89000524Y-120024616D01*
X89000539Y-120000002D01*
X89000541Y-120000000D01*
X89000461Y-119999808D01*
X89000384Y-119999618D01*
X89000380Y-119999614D01*
X89000194Y-119999538D01*
X89000002Y-119999459D01*
X88975446Y-119999459D01*
X88975240Y-119999500D01*
X69024760Y-119999500D01*
X69024554Y-119999459D01*
X68999998Y-119999459D01*
X68999807Y-119999538D01*
X68999619Y-119999615D01*
X68999615Y-119999618D01*
X68999459Y-119999999D01*
X68999476Y-120024616D01*
X68999471Y-120024616D01*
X68999500Y-120024760D01*
X68999500Y-144975240D01*
X68999459Y-144975446D01*
X68999459Y-145000000D01*
X50000500Y-145000000D01*
X50000500Y-92000000D01*
X68999459Y-92000000D01*
X68999500Y-92000099D01*
X68999617Y-92000383D01*
X68999618Y-92000384D01*
X68999808Y-92000462D01*
X69000000Y-92000541D01*
X69000002Y-92000539D01*
X69024616Y-92000524D01*
X69024616Y-92000528D01*
X69024760Y-92000500D01*
X88975240Y-92000500D01*
X88975383Y-92000528D01*
X88975384Y-92000524D01*
X88999997Y-92000539D01*
X89000000Y-92000541D01*
X89000383Y-92000383D01*
X89000500Y-92000099D01*
X89000541Y-92000000D01*
X89000541Y-91975446D01*
X89000500Y-91975240D01*
X89000500Y-88749999D01*
X163494900Y-88749999D01*
X163515310Y-89035355D01*
X163576121Y-89314900D01*
X163676097Y-89582948D01*
X163813201Y-89834036D01*
X163898924Y-89948549D01*
X163984647Y-90063061D01*
X164186939Y-90265353D01*
X164358706Y-90393935D01*
X164415963Y-90436798D01*
X164667051Y-90573902D01*
X164801075Y-90623890D01*
X164935098Y-90673878D01*
X165214645Y-90734690D01*
X165500000Y-90755099D01*
X165785355Y-90734690D01*
X166064902Y-90673878D01*
X166332948Y-90573902D01*
X166584038Y-90436797D01*
X166813061Y-90265353D01*
X167015353Y-90063061D01*
X167186797Y-89834038D01*
X167323902Y-89582948D01*
X167423878Y-89314902D01*
X167484690Y-89035355D01*
X167505099Y-88750000D01*
X167484690Y-88464645D01*
X167423878Y-88185098D01*
X167323902Y-87917052D01*
X167323902Y-87917051D01*
X167186798Y-87665963D01*
X167143935Y-87608706D01*
X167015353Y-87436939D01*
X166813061Y-87234647D01*
X166698549Y-87148925D01*
X166584036Y-87063201D01*
X166332948Y-86926097D01*
X166064900Y-86826121D01*
X165785355Y-86765310D01*
X165500000Y-86744900D01*
X165214644Y-86765310D01*
X164935099Y-86826121D01*
X164667051Y-86926097D01*
X164415963Y-87063201D01*
X164186936Y-87234649D01*
X163984649Y-87436936D01*
X163813201Y-87665963D01*
X163676097Y-87917051D01*
X163576121Y-88185099D01*
X163515310Y-88464644D01*
X163494900Y-88749999D01*
X89000500Y-88749999D01*
X89000500Y-67024760D01*
X89000528Y-67024616D01*
X89000524Y-67024616D01*
X89000539Y-67000002D01*
X89000541Y-67000000D01*
X89000461Y-66999808D01*
X89000384Y-66999618D01*
X89000380Y-66999614D01*
X89000194Y-66999538D01*
X89000002Y-66999459D01*
X88975446Y-66999459D01*
X88975240Y-66999500D01*
X69024760Y-66999500D01*
X69024554Y-66999459D01*
X68999998Y-66999459D01*
X68999807Y-66999538D01*
X68999619Y-66999615D01*
X68999615Y-66999618D01*
X68999459Y-66999999D01*
X68999476Y-67024616D01*
X68999471Y-67024616D01*
X68999500Y-67024760D01*
X68999500Y-91975240D01*
X68999459Y-91975446D01*
X68999459Y-92000000D01*
X50000500Y-92000000D01*
X50000500Y-88998860D01*
X52694962Y-88998860D01*
X52715123Y-89267885D01*
X52775156Y-89530906D01*
X52873717Y-89782034D01*
X52873718Y-89782036D01*
X53008608Y-90015674D01*
X53176814Y-90226597D01*
X53374578Y-90410095D01*
X53597482Y-90562068D01*
X53840546Y-90679122D01*
X54086858Y-90755099D01*
X54098341Y-90758641D01*
X54365108Y-90798850D01*
X54365109Y-90798850D01*
X54634891Y-90798850D01*
X54634892Y-90798850D01*
X54768275Y-90778745D01*
X54901659Y-90758641D01*
X55159454Y-90679122D01*
X55402519Y-90562068D01*
X55625422Y-90410095D01*
X55823186Y-90226597D01*
X55991392Y-90015674D01*
X56126282Y-89782036D01*
X56224844Y-89530904D01*
X56284876Y-89267887D01*
X56305037Y-88998860D01*
X56284876Y-88729833D01*
X56224844Y-88466816D01*
X56126282Y-88215684D01*
X55991392Y-87982046D01*
X55823186Y-87771123D01*
X55823185Y-87771122D01*
X55625424Y-87587626D01*
X55567902Y-87548408D01*
X55402519Y-87435652D01*
X55159454Y-87318598D01*
X55079933Y-87294069D01*
X54901658Y-87239078D01*
X54634892Y-87198870D01*
X54634891Y-87198870D01*
X54365109Y-87198870D01*
X54365108Y-87198870D01*
X54098341Y-87239078D01*
X53840546Y-87318598D01*
X53597484Y-87435650D01*
X53374576Y-87587626D01*
X53176814Y-87771123D01*
X53008607Y-87982047D01*
X52873717Y-88215685D01*
X52775156Y-88466813D01*
X52715123Y-88729834D01*
X52694962Y-88998860D01*
X50000500Y-88998860D01*
X50000500Y-60124500D01*
X50017113Y-60062500D01*
X50062500Y-60017113D01*
X50124500Y-60000500D01*
X169875500Y-60000500D01*
X169937500Y-60017113D01*
G37*
G04 #@! TD.AperFunction*
G04 #@! TA.AperFunction,Conductor*
G36*
X169937500Y-145016613D02*
G01*
X169982887Y-145062000D01*
X169999500Y-145124000D01*
X169999500Y-155476000D01*
X169982887Y-155538000D01*
X169937500Y-155583387D01*
X169875500Y-155600000D01*
X159724000Y-155600000D01*
X159662000Y-155583387D01*
X159616613Y-155538000D01*
X159600000Y-155476000D01*
X159600000Y-145124000D01*
X159616613Y-145062000D01*
X159662000Y-145016613D01*
X159724000Y-145000000D01*
X169875500Y-145000000D01*
X169937500Y-145016613D01*
G37*
G04 #@! TD.AperFunction*
M02*
