M48
; DRILL file {KiCad 7.0.1} date Sat May 27 09:10:54 2023
; FORMAT={-:-/ absolute / metric / decimal}
; #@! TF.CreationDate,2023-05-27T09:10:54+02:00
; #@! TF.GenerationSoftware,Kicad,Pcbnew,7.0.1
; #@! TF.FileFunction,Plated,1,2,PTH
FMAT,2
METRIC
; #@! TA.AperFunction,Plated,PTH,ViaDrill
T1C0.400
; #@! TA.AperFunction,Plated,PTH,ComponentDrill
T2C1.300
; #@! TA.AperFunction,Plated,PTH,ComponentDrill
T3C1.300
; #@! TA.AperFunction,Plated,PTH,ComponentDrill
T4C1.600
; #@! TA.AperFunction,Plated,PTH,ComponentDrill
T5C3.500
%
G90
G05
T1
X51.5Y-108.5
X51.5Y-111.5
X51.5Y-114.5
X52.0Y-74.0
X52.0Y-84.0
X52.0Y-117.5
X52.0Y-123.5
X52.0Y-128.0
X52.0Y-132.0
X52.0Y-146.5
X54.0Y-108.5
X54.0Y-114.5
X54.5Y-138.5
X54.5Y-140.0
X54.5Y-146.5
X56.5Y-108.5
X56.5Y-111.5
X56.5Y-117.5
X56.5Y-123.5
X56.5Y-132.0
X56.5Y-144.0
X57.0Y-79.0
X59.0Y-117.5
X59.0Y-123.5
X60.0Y-74.0
X60.0Y-84.0
X60.0Y-91.5
X61.0Y-144.0
X61.5Y-117.5
X61.5Y-123.5
X63.5Y-130.5
X63.5Y-133.0
X63.8Y-145.8
X63.8Y-148.0
X65.0Y-80.0
X65.0Y-138.5
X65.0Y-140.0
X65.0Y-157.0
X65.0Y-159.0
X65.0Y-161.0
X65.0Y-163.0
X66.5Y-78.9
X66.5Y-145.8
X66.5Y-148.0
X67.0Y-69.0
X68.0Y-130.5
X68.0Y-133.0
X68.0Y-157.0
X68.0Y-159.0
X68.0Y-161.0
X68.0Y-163.0
X68.3Y-79.9
X71.0Y-161.0
X71.0Y-163.0
X71.4Y-149.8
X72.0Y-104.0
X72.0Y-106.0
X72.0Y-108.0
X72.5Y-102.5
X73.5Y-101.5
X73.5Y-109.5
X74.0Y-106.0
X74.0Y-161.0
X74.5Y-104.5
X74.5Y-108.0
X75.0Y-100.0
X75.0Y-103.0
X75.0Y-109.0
X75.0Y-111.0
X75.0Y-149.8
X75.0Y-154.5
X76.0Y-102.0
X76.0Y-109.5
X77.0Y-93.0
X77.0Y-95.0
X77.0Y-97.0
X77.0Y-99.0
X77.0Y-101.0
X77.0Y-110.0
X77.0Y-112.0
X77.0Y-114.0
X77.0Y-116.0
X77.0Y-118.0
X78.0Y-98.0
X78.0Y-149.2
X78.0Y-154.5
X79.0Y-99.0
X79.0Y-100.0
X79.0Y-101.0
X79.0Y-111.0
X79.0Y-112.0
X79.0Y-113.0
X80.0Y-98.0
X81.0Y-93.0
X81.0Y-95.0
X81.0Y-97.0
X81.0Y-99.0
X81.0Y-101.0
X81.0Y-110.0
X81.0Y-112.0
X81.0Y-114.0
X81.0Y-116.0
X81.0Y-118.0
X81.0Y-149.2
X82.0Y-102.0
X82.0Y-109.5
X82.5Y-111.0
X83.0Y-100.0
X83.0Y-103.0
X83.0Y-109.0
X83.5Y-104.5
X83.5Y-108.0
X84.0Y-106.0
X84.5Y-101.5
X84.5Y-109.5
X85.5Y-102.5
X86.0Y-104.0
X86.0Y-106.0
X86.0Y-108.0
X87.6Y-163.0
X88.0Y-148.5
X90.0Y-72.5
X90.0Y-82.5
X90.4Y-163.0
X92.0Y-148.5
X94.0Y-131.0
X94.0Y-141.0
X95.0Y-67.5
X95.0Y-77.5
X95.5Y-163.0
X98.5Y-163.0
X99.0Y-127.0
X99.0Y-136.0
X99.0Y-148.5
X100.0Y-72.5
X100.0Y-82.5
X100.0Y-86.0
X102.0Y-89.5
X102.0Y-93.5
X102.0Y-98.5
X102.0Y-113.5
X102.0Y-117.0
X102.0Y-122.0
X104.0Y-131.0
X104.0Y-141.0
X104.0Y-153.0
X105.0Y-67.5
X105.0Y-77.5
X105.0Y-86.0
X105.0Y-93.5
X105.0Y-98.5
X105.0Y-117.5
X105.0Y-122.5
X105.5Y-103.5
X105.5Y-108.5
X105.5Y-113.5
X109.0Y-136.0
X109.0Y-148.5
X110.0Y-72.5
X110.0Y-82.5
X110.0Y-86.0
X111.5Y-94.0
X111.5Y-99.0
X111.5Y-104.0
X111.5Y-109.0
X111.5Y-114.0
X114.0Y-131.0
X114.0Y-153.0
X115.0Y-67.5
X115.0Y-77.5
X115.0Y-82.5
X117.5Y-134.5
X117.625Y-136.5
X118.0Y-148.5
X119.0Y-159.0
X119.0Y-168.0
X120.0Y-72.5
X120.0Y-82.5
X122.5Y-133.0
X122.5Y-135.2
X125.0Y-67.5
X125.0Y-77.5
X125.0Y-82.5
X128.0Y-86.3
X128.0Y-87.9
X128.0Y-89.5
X128.0Y-91.3
X128.0Y-92.9
X128.0Y-94.5
X128.5Y-116.0
X128.5Y-117.6
X128.5Y-119.2
X128.5Y-121.0
X128.5Y-122.6
X128.5Y-124.2
X130.0Y-72.5
X130.0Y-82.5
X132.7Y-137.0
X134.1Y-149.2
X134.1Y-151.0
X134.1Y-152.8
X134.1Y-154.4
X135.0Y-67.5
X135.0Y-77.5
X135.0Y-87.5
X135.0Y-115.0
X135.0Y-120.0
X135.0Y-125.0
X135.5Y-137.0
X135.9Y-148.4
X137.0Y-97.0
X137.0Y-99.5
X137.0Y-102.0
X137.0Y-108.0
X137.0Y-110.5
X137.0Y-113.0
X139.1Y-137.0
X140.0Y-72.5
X140.0Y-82.5
X140.0Y-92.5
X140.5Y-107.5
X145.0Y-67.5
X145.0Y-77.5
X145.0Y-87.5
X145.0Y-97.5
X145.0Y-107.5
X145.0Y-115.0
X145.0Y-125.0
X149.9Y-93.0
X149.9Y-104.4
X150.0Y-72.5
X150.0Y-82.7
X150.0Y-111.2
X150.0Y-120.0
X155.0Y-115.0
X155.0Y-125.0
X155.6Y-107.4
T2
X102.42Y-161.7
X107.5Y-161.7
T3
X51.96Y-86.459
X51.96Y-91.539
X54.5Y-88.999
X57.04Y-86.459
X57.04Y-91.539
X150.92Y-76.0
X150.92Y-81.08
X153.46Y-78.54
X156.0Y-76.0
X156.0Y-81.08
T4
X141.3Y-161.5
X141.3Y-164.04
X141.3Y-166.58
X146.38Y-161.5
X146.38Y-164.04
X146.38Y-166.58
X149.92Y-147.46
X149.92Y-150.0
X149.92Y-152.54
X155.0Y-147.46
X155.0Y-150.0
X155.0Y-152.54
T5
X55.0Y-70.0
X55.0Y-165.0
X79.0Y-106.0
X154.0Y-70.0
X154.1Y-164.6
T0
M30
