G04 #@! TF.GenerationSoftware,KiCad,Pcbnew,7.0.1*
G04 #@! TF.CreationDate,2023-05-27T09:10:49+02:00*
G04 #@! TF.ProjectId,K_Munin400,4b5f4d75-6e69-46e3-9430-302e6b696361,rev?*
G04 #@! TF.SameCoordinates,Original*
G04 #@! TF.FileFunction,Copper,L1,Top*
G04 #@! TF.FilePolarity,Positive*
%FSLAX46Y46*%
G04 Gerber Fmt 4.6, Leading zero omitted, Abs format (unit mm)*
G04 Created by KiCad (PCBNEW 7.0.1) date 2023-05-27 09:10:49*
%MOMM*%
%LPD*%
G01*
G04 APERTURE LIST*
G04 Aperture macros list*
%AMRoundRect*
0 Rectangle with rounded corners*
0 $1 Rounding radius*
0 $2 $3 $4 $5 $6 $7 $8 $9 X,Y pos of 4 corners*
0 Add a 4 corners polygon primitive as box body*
4,1,4,$2,$3,$4,$5,$6,$7,$8,$9,$2,$3,0*
0 Add four circle primitives for the rounded corners*
1,1,$1+$1,$2,$3*
1,1,$1+$1,$4,$5*
1,1,$1+$1,$6,$7*
1,1,$1+$1,$8,$9*
0 Add four rect primitives between the rounded corners*
20,1,$1+$1,$2,$3,$4,$5,0*
20,1,$1+$1,$4,$5,$6,$7,0*
20,1,$1+$1,$6,$7,$8,$9,0*
20,1,$1+$1,$8,$9,$2,$3,0*%
G04 Aperture macros list end*
G04 #@! TA.AperFunction,SMDPad,CuDef*
%ADD10RoundRect,0.500000X-0.500000X1.500000X-0.500000X-1.500000X0.500000X-1.500000X0.500000X1.500000X0*%
G04 #@! TD*
G04 #@! TA.AperFunction,SMDPad,CuDef*
%ADD11RoundRect,1.625000X-1.625000X1.625000X-1.625000X-1.625000X1.625000X-1.625000X1.625000X1.625000X0*%
G04 #@! TD*
G04 #@! TA.AperFunction,ComponentPad*
%ADD12C,1.998980*%
G04 #@! TD*
G04 #@! TA.AperFunction,ComponentPad*
%ADD13C,2.499360*%
G04 #@! TD*
G04 #@! TA.AperFunction,SMDPad,CuDef*
%ADD14RoundRect,0.250000X0.475000X-0.337500X0.475000X0.337500X-0.475000X0.337500X-0.475000X-0.337500X0*%
G04 #@! TD*
G04 #@! TA.AperFunction,SMDPad,CuDef*
%ADD15RoundRect,0.250000X-0.475000X0.337500X-0.475000X-0.337500X0.475000X-0.337500X0.475000X0.337500X0*%
G04 #@! TD*
G04 #@! TA.AperFunction,ComponentPad*
%ADD16C,2.300000*%
G04 #@! TD*
G04 #@! TA.AperFunction,SMDPad,CuDef*
%ADD17RoundRect,1.000000X-1.000000X-3.000000X1.000000X-3.000000X1.000000X3.000000X-1.000000X3.000000X0*%
G04 #@! TD*
G04 #@! TA.AperFunction,SMDPad,CuDef*
%ADD18RoundRect,0.250000X-0.537500X-1.450000X0.537500X-1.450000X0.537500X1.450000X-0.537500X1.450000X0*%
G04 #@! TD*
G04 #@! TA.AperFunction,SMDPad,CuDef*
%ADD19RoundRect,0.250000X0.337500X0.475000X-0.337500X0.475000X-0.337500X-0.475000X0.337500X-0.475000X0*%
G04 #@! TD*
G04 #@! TA.AperFunction,SMDPad,CuDef*
%ADD20R,3.150000X1.000000*%
G04 #@! TD*
G04 #@! TA.AperFunction,SMDPad,CuDef*
%ADD21R,1.190000X2.790000*%
G04 #@! TD*
G04 #@! TA.AperFunction,ComponentPad*
%ADD22C,3.900000*%
G04 #@! TD*
G04 #@! TA.AperFunction,ConnectorPad*
%ADD23C,7.000000*%
G04 #@! TD*
G04 #@! TA.AperFunction,SMDPad,CuDef*
%ADD24RoundRect,0.250000X0.250000X-0.250000X0.250000X0.250000X-0.250000X0.250000X-0.250000X-0.250000X0*%
G04 #@! TD*
G04 #@! TA.AperFunction,SMDPad,CuDef*
%ADD25RoundRect,0.250000X-0.450000X0.350000X-0.450000X-0.350000X0.450000X-0.350000X0.450000X0.350000X0*%
G04 #@! TD*
G04 #@! TA.AperFunction,SMDPad,CuDef*
%ADD26RoundRect,0.250000X-0.350000X-0.450000X0.350000X-0.450000X0.350000X0.450000X-0.350000X0.450000X0*%
G04 #@! TD*
G04 #@! TA.AperFunction,SMDPad,CuDef*
%ADD27RoundRect,0.250000X1.450000X-0.537500X1.450000X0.537500X-1.450000X0.537500X-1.450000X-0.537500X0*%
G04 #@! TD*
G04 #@! TA.AperFunction,SMDPad,CuDef*
%ADD28RoundRect,0.250000X-0.250000X0.250000X-0.250000X-0.250000X0.250000X-0.250000X0.250000X0.250000X0*%
G04 #@! TD*
G04 #@! TA.AperFunction,SMDPad,CuDef*
%ADD29RoundRect,0.250000X-1.025000X0.875000X-1.025000X-0.875000X1.025000X-0.875000X1.025000X0.875000X0*%
G04 #@! TD*
G04 #@! TA.AperFunction,SMDPad,CuDef*
%ADD30RoundRect,0.249999X-4.550001X4.150001X-4.550001X-4.150001X4.550001X-4.150001X4.550001X4.150001X0*%
G04 #@! TD*
G04 #@! TA.AperFunction,SMDPad,CuDef*
%ADD31RoundRect,0.249999X2.450001X-0.737501X2.450001X0.737501X-2.450001X0.737501X-2.450001X-0.737501X0*%
G04 #@! TD*
G04 #@! TA.AperFunction,SMDPad,CuDef*
%ADD32RoundRect,0.491801X1.008199X1.008199X-1.008199X1.008199X-1.008199X-1.008199X1.008199X-1.008199X0*%
G04 #@! TD*
G04 #@! TA.AperFunction,SMDPad,CuDef*
%ADD33RoundRect,0.150000X0.825000X0.150000X-0.825000X0.150000X-0.825000X-0.150000X0.825000X-0.150000X0*%
G04 #@! TD*
G04 #@! TA.AperFunction,ComponentPad*
%ADD34R,1.950000X1.950000*%
G04 #@! TD*
G04 #@! TA.AperFunction,ComponentPad*
%ADD35C,1.950000*%
G04 #@! TD*
G04 #@! TA.AperFunction,SMDPad,CuDef*
%ADD36RoundRect,0.250000X-1.450000X0.400000X-1.450000X-0.400000X1.450000X-0.400000X1.450000X0.400000X0*%
G04 #@! TD*
G04 #@! TA.AperFunction,SMDPad,CuDef*
%ADD37RoundRect,0.250000X-1.450000X0.537500X-1.450000X-0.537500X1.450000X-0.537500X1.450000X0.537500X0*%
G04 #@! TD*
G04 #@! TA.AperFunction,SMDPad,CuDef*
%ADD38RoundRect,0.150000X-0.825000X-0.150000X0.825000X-0.150000X0.825000X0.150000X-0.825000X0.150000X0*%
G04 #@! TD*
G04 #@! TA.AperFunction,SMDPad,CuDef*
%ADD39RoundRect,0.875000X-0.875000X-2.125000X0.875000X-2.125000X0.875000X2.125000X-0.875000X2.125000X0*%
G04 #@! TD*
G04 #@! TA.AperFunction,SMDPad,CuDef*
%ADD40RoundRect,0.250001X-0.799999X1.999999X-0.799999X-1.999999X0.799999X-1.999999X0.799999X1.999999X0*%
G04 #@! TD*
G04 #@! TA.AperFunction,SMDPad,CuDef*
%ADD41R,2.100000X2.600000*%
G04 #@! TD*
G04 #@! TA.AperFunction,SMDPad,CuDef*
%ADD42RoundRect,0.750000X1.250000X0.750000X-1.250000X0.750000X-1.250000X-0.750000X1.250000X-0.750000X0*%
G04 #@! TD*
G04 #@! TA.AperFunction,SMDPad,CuDef*
%ADD43RoundRect,0.250000X0.350000X0.450000X-0.350000X0.450000X-0.350000X-0.450000X0.350000X-0.450000X0*%
G04 #@! TD*
G04 #@! TA.AperFunction,SMDPad,CuDef*
%ADD44RoundRect,1.625000X1.625000X1.625000X-1.625000X1.625000X-1.625000X-1.625000X1.625000X-1.625000X0*%
G04 #@! TD*
G04 #@! TA.AperFunction,SMDPad,CuDef*
%ADD45RoundRect,0.150000X0.150000X-0.587500X0.150000X0.587500X-0.150000X0.587500X-0.150000X-0.587500X0*%
G04 #@! TD*
G04 #@! TA.AperFunction,SMDPad,CuDef*
%ADD46RoundRect,1.000000X1.000000X-1.000000X1.000000X1.000000X-1.000000X1.000000X-1.000000X-1.000000X0*%
G04 #@! TD*
G04 #@! TA.AperFunction,SMDPad,CuDef*
%ADD47RoundRect,0.250000X-0.350000X0.850000X-0.350000X-0.850000X0.350000X-0.850000X0.350000X0.850000X0*%
G04 #@! TD*
G04 #@! TA.AperFunction,SMDPad,CuDef*
%ADD48RoundRect,0.250000X-1.125000X1.275000X-1.125000X-1.275000X1.125000X-1.275000X1.125000X1.275000X0*%
G04 #@! TD*
G04 #@! TA.AperFunction,SMDPad,CuDef*
%ADD49RoundRect,0.249997X-2.650003X2.950003X-2.650003X-2.950003X2.650003X-2.950003X2.650003X2.950003X0*%
G04 #@! TD*
G04 #@! TA.AperFunction,SMDPad,CuDef*
%ADD50RoundRect,0.491801X-1.008199X1.008199X-1.008199X-1.008199X1.008199X-1.008199X1.008199X1.008199X0*%
G04 #@! TD*
G04 #@! TA.AperFunction,SMDPad,CuDef*
%ADD51RoundRect,1.625000X1.625000X-1.625000X1.625000X1.625000X-1.625000X1.625000X-1.625000X-1.625000X0*%
G04 #@! TD*
G04 #@! TA.AperFunction,SMDPad,CuDef*
%ADD52RoundRect,0.500000X0.500000X-1.500000X0.500000X1.500000X-0.500000X1.500000X-0.500000X-1.500000X0*%
G04 #@! TD*
G04 #@! TA.AperFunction,ViaPad*
%ADD53C,0.800000*%
G04 #@! TD*
G04 #@! TA.AperFunction,Conductor*
%ADD54C,1.500000*%
G04 #@! TD*
G04 #@! TA.AperFunction,Conductor*
%ADD55C,2.900000*%
G04 #@! TD*
G04 #@! TA.AperFunction,Conductor*
%ADD56C,2.000000*%
G04 #@! TD*
G04 #@! TA.AperFunction,Conductor*
%ADD57C,0.600000*%
G04 #@! TD*
G04 #@! TA.AperFunction,Conductor*
%ADD58C,1.000000*%
G04 #@! TD*
G04 #@! TA.AperFunction,Conductor*
%ADD59C,0.700000*%
G04 #@! TD*
G04 #@! TA.AperFunction,Conductor*
%ADD60C,0.400000*%
G04 #@! TD*
G04 APERTURE END LIST*
D10*
X93900000Y-101100000D03*
D11*
X116700000Y-111000000D03*
X95900000Y-110900000D03*
X116900000Y-120500000D03*
D12*
X54500000Y-88998860D03*
D13*
X51960000Y-86458860D03*
X51960000Y-91538860D03*
X57040000Y-86458860D03*
X57040000Y-91538860D03*
D14*
X58500000Y-121537500D03*
X58500000Y-119462500D03*
D15*
X156000000Y-155962500D03*
X156000000Y-158037500D03*
D16*
X149920000Y-147460000D03*
X149920000Y-150000000D03*
X149920000Y-152540000D03*
X155000000Y-147460000D03*
X155000000Y-150000000D03*
X155000000Y-152540000D03*
D17*
X66300000Y-88000000D03*
X91700000Y-88000000D03*
D18*
X122225000Y-117550000D03*
X126500000Y-117550000D03*
D19*
X54037500Y-144500000D03*
X51962500Y-144500000D03*
D20*
X78975000Y-160700000D03*
X84025000Y-160700000D03*
X78975000Y-163240000D03*
X84025000Y-163240000D03*
X78975000Y-165780000D03*
X84025000Y-165780000D03*
D21*
X129440000Y-133985000D03*
X126900000Y-138815000D03*
X124360000Y-133985000D03*
D22*
X154000000Y-70000000D03*
D23*
X154000000Y-70000000D03*
D24*
X54000000Y-107250000D03*
X54000000Y-104750000D03*
D18*
X122225000Y-97550000D03*
X126500000Y-97550000D03*
D25*
X117600000Y-144400000D03*
X117600000Y-146400000D03*
D26*
X67500000Y-116000000D03*
X69500000Y-116000000D03*
D15*
X86000000Y-154962500D03*
X86000000Y-157037500D03*
D27*
X89500000Y-106637500D03*
X89500000Y-102362500D03*
D28*
X66500000Y-80250000D03*
X66500000Y-82750000D03*
D25*
X65500000Y-116000000D03*
X65500000Y-118000000D03*
D29*
X73000000Y-152300000D03*
X73000000Y-158700000D03*
D22*
X154100000Y-164600000D03*
D23*
X154100000Y-164600000D03*
D30*
X124700000Y-150250000D03*
X124700000Y-163750000D03*
D31*
X153600000Y-133737500D03*
X153600000Y-128462500D03*
D32*
X86500000Y-152000000D03*
X78500000Y-152000000D03*
D33*
X120100000Y-141680000D03*
X120100000Y-140410000D03*
X120100000Y-139140000D03*
X120100000Y-137870000D03*
X120100000Y-136600000D03*
X120100000Y-135330000D03*
X120100000Y-134060000D03*
X115150000Y-134060000D03*
X115150000Y-135330000D03*
X115150000Y-136600000D03*
X115150000Y-137870000D03*
X115150000Y-139140000D03*
X115150000Y-140410000D03*
X115150000Y-141680000D03*
D14*
X62500000Y-127037500D03*
X62500000Y-124962500D03*
D26*
X52000000Y-142000000D03*
X54000000Y-142000000D03*
D18*
X122225000Y-122500000D03*
X126500000Y-122500000D03*
D34*
X107500000Y-161700000D03*
D35*
X102420000Y-161700000D03*
D28*
X60500000Y-119250000D03*
X60500000Y-121750000D03*
D27*
X90100000Y-97837500D03*
X90100000Y-93562500D03*
D14*
X62000000Y-149037500D03*
X62000000Y-146962500D03*
D18*
X122125000Y-92900000D03*
X126400000Y-92900000D03*
X122225000Y-102500000D03*
X126500000Y-102500000D03*
D14*
X68000000Y-101037500D03*
X68000000Y-98962500D03*
D36*
X66500000Y-103775000D03*
X66500000Y-108225000D03*
D37*
X90000000Y-114225000D03*
X90000000Y-118500000D03*
D19*
X81837500Y-147000000D03*
X79762500Y-147000000D03*
D38*
X54525000Y-126095000D03*
X54525000Y-127365000D03*
X54525000Y-128635000D03*
X54525000Y-129905000D03*
X59475000Y-129905000D03*
X59475000Y-128635000D03*
X59475000Y-127365000D03*
X59475000Y-126095000D03*
D19*
X137975000Y-151000000D03*
X135900000Y-151000000D03*
D15*
X63000000Y-141962500D03*
X63000000Y-144037500D03*
D27*
X102000000Y-107637500D03*
X102000000Y-103362500D03*
D19*
X137937500Y-153200000D03*
X135862500Y-153200000D03*
D22*
X55000000Y-165000000D03*
D23*
X55000000Y-165000000D03*
D21*
X51960000Y-139330000D03*
X54500000Y-134500000D03*
X57040000Y-139330000D03*
D14*
X73500000Y-165537500D03*
X73500000Y-163462500D03*
D33*
X145737500Y-153240000D03*
X145737500Y-151970000D03*
X145737500Y-150700000D03*
X145737500Y-149430000D03*
X140787500Y-149430000D03*
X140787500Y-150700000D03*
X140787500Y-151970000D03*
X140787500Y-153240000D03*
D14*
X56000000Y-121537500D03*
X56000000Y-119462500D03*
D36*
X146600000Y-136150000D03*
X146600000Y-140600000D03*
D25*
X62500000Y-119000000D03*
X62500000Y-121000000D03*
D21*
X62960000Y-139330000D03*
X65500000Y-134500000D03*
X68040000Y-139330000D03*
D17*
X66300000Y-124000000D03*
X91700000Y-124000000D03*
D14*
X90000000Y-152075000D03*
X90000000Y-150000000D03*
D39*
X73550000Y-116847500D03*
X79000000Y-116847500D03*
X84450000Y-116847500D03*
D40*
X93000000Y-154400000D03*
X93000000Y-161600000D03*
D25*
X52000000Y-119000000D03*
X52000000Y-121000000D03*
D41*
X71550000Y-147000000D03*
X76450000Y-147000000D03*
D22*
X79000000Y-106000000D03*
D23*
X79000000Y-106000000D03*
D42*
X138100000Y-143000000D03*
X138100000Y-132400000D03*
D15*
X66000000Y-141962500D03*
X66000000Y-144037500D03*
D24*
X55000000Y-151250000D03*
X55000000Y-148750000D03*
D43*
X65500000Y-95500000D03*
X63500000Y-95500000D03*
D11*
X131400000Y-99700000D03*
X153600000Y-88900000D03*
X153600000Y-100300000D03*
D44*
X131600000Y-109700000D03*
D28*
X66000000Y-129250000D03*
X66000000Y-131750000D03*
D36*
X154600000Y-136150000D03*
X154600000Y-140600000D03*
D39*
X73550000Y-94652500D03*
X79000000Y-94652500D03*
X84450000Y-94652500D03*
D45*
X57550000Y-148937500D03*
X59450000Y-148937500D03*
X58500000Y-147062500D03*
D15*
X154000000Y-155962500D03*
X154000000Y-158037500D03*
D16*
X141300000Y-161500000D03*
X141300000Y-164040000D03*
X141300000Y-166580000D03*
X146380000Y-161500000D03*
X146380000Y-164040000D03*
X146380000Y-166580000D03*
D46*
X54000000Y-100500000D03*
X54000000Y-111500000D03*
X64000000Y-111500000D03*
X64000000Y-100500000D03*
D19*
X67537500Y-150000000D03*
X65462500Y-150000000D03*
D37*
X97500000Y-116862500D03*
X97500000Y-121137500D03*
D36*
X150600000Y-136150000D03*
X150600000Y-140600000D03*
D18*
X122225000Y-112500000D03*
X126500000Y-112500000D03*
D47*
X68780000Y-152460000D03*
D48*
X68025000Y-157085000D03*
X64975000Y-157085000D03*
D49*
X66500000Y-158760000D03*
D48*
X68025000Y-160435000D03*
X64975000Y-160435000D03*
D47*
X64220000Y-152460000D03*
D22*
X55000000Y-70000000D03*
D23*
X55000000Y-70000000D03*
D50*
X60000000Y-133000000D03*
X60000000Y-141000000D03*
D27*
X97000000Y-94137500D03*
X97000000Y-89862500D03*
D18*
X122125000Y-87950000D03*
X126400000Y-87950000D03*
D51*
X116200000Y-90500000D03*
X95400000Y-99900000D03*
X116200000Y-100000000D03*
D52*
X93400000Y-109900000D03*
D43*
X126700000Y-141800000D03*
X124700000Y-141800000D03*
D25*
X122700000Y-141800000D03*
X122700000Y-143800000D03*
D12*
X153460000Y-78540000D03*
D13*
X156000000Y-81080000D03*
X156000000Y-76000000D03*
X150920000Y-81080000D03*
X150920000Y-76000000D03*
D26*
X57500000Y-151000000D03*
X59500000Y-151000000D03*
X67500000Y-95500000D03*
X69500000Y-95500000D03*
D15*
X68000000Y-110962500D03*
X68000000Y-113037500D03*
D18*
X122225000Y-107550000D03*
X126500000Y-107550000D03*
D28*
X54000000Y-119250000D03*
X54000000Y-121750000D03*
D53*
X105000000Y-122500000D03*
X105000000Y-117500000D03*
X111500000Y-114000000D03*
X111500000Y-109000000D03*
X111500000Y-99000000D03*
X111500000Y-94000000D03*
X111500000Y-104000000D03*
X128500000Y-117600000D03*
X128500000Y-121000000D03*
X128500000Y-124200000D03*
X128500000Y-116000000D03*
X128500000Y-122600000D03*
X128500000Y-119200000D03*
X54500000Y-146500000D03*
X102000000Y-122000000D03*
X135000000Y-77500000D03*
X75000000Y-154500000D03*
X68300000Y-79900000D03*
X72000000Y-106000000D03*
X77000000Y-101000000D03*
X137000000Y-113000000D03*
X74500000Y-104500000D03*
X77000000Y-118000000D03*
X110000000Y-82500000D03*
X145000000Y-67500000D03*
X65000000Y-159000000D03*
X102000000Y-98500000D03*
X65000000Y-157000000D03*
X72000000Y-104000000D03*
X80000000Y-98000000D03*
X128000000Y-89500000D03*
X135000000Y-87500000D03*
X118000000Y-148500000D03*
X72000000Y-108000000D03*
X75000000Y-149800000D03*
X60000000Y-84000000D03*
X71000000Y-161000000D03*
X98500000Y-163000000D03*
X125000000Y-82500000D03*
X68000000Y-163000000D03*
X83000000Y-100000000D03*
X52000000Y-117500000D03*
X134100000Y-151000000D03*
X56500000Y-123500000D03*
X52000000Y-84000000D03*
X86000000Y-104000000D03*
X61500000Y-117500000D03*
X150000000Y-120000000D03*
X78000000Y-98000000D03*
X78000000Y-154500000D03*
X73500000Y-101500000D03*
X150000000Y-82700000D03*
X109000000Y-148500000D03*
X109000000Y-136000000D03*
X137000000Y-99500000D03*
X100000000Y-82500000D03*
X66500000Y-148000000D03*
X63500000Y-133000000D03*
X74000000Y-106000000D03*
X145000000Y-107500000D03*
X100000000Y-72500000D03*
X81000000Y-116000000D03*
X90000000Y-72500000D03*
X71000000Y-163000000D03*
X51500000Y-111500000D03*
X63800000Y-148000000D03*
X149900000Y-93000000D03*
X145000000Y-125000000D03*
X82000000Y-109500000D03*
X83500000Y-104500000D03*
X82500000Y-111000000D03*
X128000000Y-92900000D03*
X77000000Y-110000000D03*
X59000000Y-123500000D03*
X51500000Y-114500000D03*
X56500000Y-108500000D03*
X68000000Y-130500000D03*
X137000000Y-108000000D03*
X68000000Y-159000000D03*
X140000000Y-92500000D03*
X125000000Y-67500000D03*
X95000000Y-67500000D03*
X77000000Y-99000000D03*
X102000000Y-113500000D03*
X94000000Y-141000000D03*
X140500000Y-107500000D03*
X65000000Y-161000000D03*
X150000000Y-111200000D03*
X61000000Y-144000000D03*
X145000000Y-77500000D03*
X77000000Y-95000000D03*
X115000000Y-77500000D03*
X145000000Y-115000000D03*
X65000000Y-138500000D03*
X59000000Y-117500000D03*
X76000000Y-109500000D03*
X114000000Y-153000000D03*
X75000000Y-111000000D03*
X145000000Y-97500000D03*
X155000000Y-115000000D03*
X90400000Y-163000000D03*
X51500000Y-108500000D03*
X155600000Y-107400000D03*
X61500000Y-123500000D03*
X81000000Y-101000000D03*
X56500000Y-111500000D03*
X114000000Y-131000000D03*
X140000000Y-72500000D03*
X84500000Y-109500000D03*
X102000000Y-89500000D03*
X99000000Y-127000000D03*
X83000000Y-109000000D03*
X105500000Y-103500000D03*
X54000000Y-108500000D03*
X119000000Y-159000000D03*
X81000000Y-118000000D03*
X84000000Y-106000000D03*
X122500000Y-133000000D03*
X63500000Y-130500000D03*
X52000000Y-146500000D03*
X65000000Y-163000000D03*
X65000000Y-80000000D03*
X60000000Y-91500000D03*
X66500000Y-78900000D03*
X145000000Y-87500000D03*
X85500000Y-102500000D03*
X99000000Y-136000000D03*
X137000000Y-102000000D03*
X122500000Y-135200000D03*
X105000000Y-93500000D03*
X130000000Y-82500000D03*
X135000000Y-120000000D03*
X135000000Y-125000000D03*
X68000000Y-161000000D03*
X130000000Y-72500000D03*
X137000000Y-97000000D03*
X78000000Y-149200000D03*
X92000000Y-148500000D03*
X120000000Y-72500000D03*
X128000000Y-86300000D03*
X125000000Y-77500000D03*
X135900000Y-148400000D03*
X86000000Y-106000000D03*
X105000000Y-77500000D03*
X150000000Y-72500000D03*
X79000000Y-113000000D03*
X94000000Y-131000000D03*
X63800000Y-145800000D03*
X79000000Y-111000000D03*
X52000000Y-128000000D03*
X81000000Y-114000000D03*
X76000000Y-102000000D03*
X79000000Y-101000000D03*
X105500000Y-108500000D03*
X56500000Y-117500000D03*
X99000000Y-148500000D03*
X67000000Y-69000000D03*
X90000000Y-82500000D03*
X135500000Y-137000000D03*
X137000000Y-110500000D03*
X74000000Y-161000000D03*
X79000000Y-99000000D03*
X77000000Y-112000000D03*
X105000000Y-86000000D03*
X115000000Y-67500000D03*
X105000000Y-98500000D03*
X87600000Y-163000000D03*
X81000000Y-149200000D03*
X134100000Y-149200000D03*
X117500000Y-134500000D03*
X81000000Y-97000000D03*
X95500000Y-163000000D03*
X110000000Y-72500000D03*
X57000000Y-79000000D03*
X104000000Y-141000000D03*
X81000000Y-95000000D03*
X81000000Y-110000000D03*
X79000000Y-112000000D03*
X104000000Y-153000000D03*
X128000000Y-94500000D03*
X82000000Y-102000000D03*
X102000000Y-93500000D03*
X110000000Y-86000000D03*
X84500000Y-101500000D03*
X81000000Y-99000000D03*
X134100000Y-154400000D03*
X115000000Y-82500000D03*
X74500000Y-108000000D03*
X52000000Y-132000000D03*
X132700000Y-137000000D03*
X86000000Y-108000000D03*
X102000000Y-117000000D03*
X155000000Y-125000000D03*
X66500000Y-145800000D03*
X75000000Y-100000000D03*
X88000000Y-148500000D03*
X75000000Y-109000000D03*
X117625000Y-136500000D03*
X73500000Y-109500000D03*
X81000000Y-93000000D03*
X120000000Y-82500000D03*
X104000000Y-131000000D03*
X77000000Y-116000000D03*
X68000000Y-157000000D03*
X56500000Y-132000000D03*
X135000000Y-115000000D03*
X149900000Y-104400000D03*
X81000000Y-112000000D03*
X139100000Y-137000000D03*
X140000000Y-82500000D03*
X128000000Y-87900000D03*
X65000000Y-140000000D03*
X77000000Y-97000000D03*
X71400000Y-149800000D03*
X95000000Y-77500000D03*
X77000000Y-114000000D03*
X100000000Y-86000000D03*
X68000000Y-133000000D03*
X83500000Y-108000000D03*
X128000000Y-91300000D03*
X77000000Y-93000000D03*
X72500000Y-102500000D03*
X54500000Y-138500000D03*
X54000000Y-114500000D03*
X83000000Y-103000000D03*
X52000000Y-123500000D03*
X105500000Y-113500000D03*
X135000000Y-67500000D03*
X60000000Y-74000000D03*
X75000000Y-103000000D03*
X79000000Y-100000000D03*
X54500000Y-140000000D03*
X105000000Y-67500000D03*
X52000000Y-74000000D03*
X119000000Y-168000000D03*
X56500000Y-144000000D03*
X134100000Y-152800000D03*
D54*
X107500000Y-160500000D02*
X101400000Y-154400000D01*
X107500000Y-161700000D02*
X107500000Y-160500000D01*
X101400000Y-154400000D02*
X93000000Y-154400000D01*
D55*
X130450000Y-157000000D02*
X145460000Y-157000000D01*
X124700000Y-151250000D02*
X130450000Y-157000000D01*
X124700000Y-150250000D02*
X124700000Y-151250000D01*
X145460000Y-157000000D02*
X149920001Y-152539999D01*
D56*
X91700000Y-91962500D02*
X90100000Y-93562500D01*
X91700000Y-88000000D02*
X91700000Y-91962500D01*
X93337500Y-97837500D02*
X95400000Y-99900000D01*
X90100000Y-97837500D02*
X93337500Y-97837500D01*
X87635000Y-97837500D02*
X84450000Y-94652500D01*
X90100000Y-97837500D02*
X87635000Y-97837500D01*
X95137500Y-88000000D02*
X97000000Y-89862500D01*
X91700000Y-88000000D02*
X95137500Y-88000000D01*
D57*
X140787500Y-153240000D02*
X137977500Y-153240000D01*
D56*
X122225000Y-107550000D02*
X122225000Y-112500000D01*
X153460000Y-88460000D02*
X154000000Y-89000000D01*
X153460000Y-78540000D02*
X153460000Y-88460000D01*
D58*
X156000000Y-153540000D02*
X155000000Y-152540000D01*
X156000000Y-155962500D02*
X156000000Y-153540000D01*
X154000000Y-153539998D02*
X154999999Y-152539999D01*
X154000000Y-155962500D02*
X154000000Y-153539998D01*
D55*
X154999999Y-152539999D02*
X149920001Y-152539999D01*
X155000000Y-152540000D02*
X154999999Y-152539999D01*
D57*
X145737500Y-153240000D02*
X146437501Y-152539999D01*
X146437501Y-152539999D02*
X149920001Y-152539999D01*
D58*
X105000000Y-122500000D02*
X105000000Y-117500000D01*
X105000000Y-114000000D02*
X105500000Y-113500000D01*
X105000000Y-117500000D02*
X105000000Y-114000000D01*
X105000000Y-98500000D02*
X105000000Y-93500000D01*
X105500000Y-99000000D02*
X105000000Y-98500000D01*
X105500000Y-103500000D02*
X105500000Y-99000000D01*
X105500000Y-108500000D02*
X105500000Y-113500000D01*
X105500000Y-108500000D02*
X105500000Y-103500000D01*
X111450000Y-103950000D02*
X111500000Y-104000000D01*
X111450000Y-94050000D02*
X111450000Y-103950000D01*
X111500000Y-94000000D02*
X111450000Y-94050000D01*
X111500000Y-109000000D02*
X111500000Y-104000000D01*
X111500000Y-114000000D02*
X111500000Y-109000000D01*
D57*
X117200000Y-146800000D02*
X117600000Y-146400000D01*
X85700000Y-146800000D02*
X117200000Y-146800000D01*
X117500000Y-139200000D02*
X118830000Y-137870000D01*
X117500000Y-141800000D02*
X117500000Y-139200000D01*
X85500000Y-145500000D02*
X113800000Y-145500000D01*
X118830000Y-137870000D02*
X120100000Y-137870000D01*
X84700000Y-146300000D02*
X85500000Y-145500000D01*
X113800000Y-145500000D02*
X117500000Y-141800000D01*
D55*
X139000000Y-128500000D02*
X145600000Y-135100000D01*
D56*
X116900000Y-120500000D02*
X116900000Y-122900000D01*
D55*
X116900000Y-122900000D02*
X122500000Y-128500000D01*
X122500000Y-128500000D02*
X139000000Y-128500000D01*
X111000000Y-90500000D02*
X116200000Y-90500000D01*
X108500000Y-117000000D02*
X108500000Y-93000000D01*
X112000000Y-120500000D02*
X108500000Y-117000000D01*
X116900000Y-120500000D02*
X112000000Y-120500000D01*
X108500000Y-93000000D02*
X111000000Y-90500000D01*
D54*
X126500000Y-100000000D02*
X131600000Y-100000000D01*
X126500000Y-110000000D02*
X131800000Y-110000000D01*
D56*
X116900000Y-120500000D02*
X122225000Y-120500000D01*
X122225000Y-120500000D02*
X122225000Y-122500000D01*
X122225000Y-117550000D02*
X122225000Y-120500000D01*
X116700000Y-111000000D02*
X121225000Y-111000000D01*
X116200000Y-100000000D02*
X122225000Y-100000000D01*
X122025000Y-90500000D02*
X122125000Y-90400000D01*
X116200000Y-90500000D02*
X122025000Y-90500000D01*
X102000000Y-103362500D02*
X98862500Y-103362500D01*
X98862500Y-103362500D02*
X95400000Y-99900000D01*
X95400000Y-99900000D02*
X95400000Y-95737500D01*
X95400000Y-95737500D02*
X97000000Y-94137500D01*
D54*
X92937500Y-102362500D02*
X95400000Y-99900000D01*
D56*
X89500000Y-102362500D02*
X92937500Y-102362500D01*
X97500000Y-121137500D02*
X94562500Y-121137500D01*
X94562500Y-121137500D02*
X91700000Y-124000000D01*
X91700000Y-124000000D02*
X91700000Y-120200000D01*
X91700000Y-120200000D02*
X90000000Y-118500000D01*
X97500000Y-112500000D02*
X95900000Y-110900000D01*
X97500000Y-116862500D02*
X97500000Y-112500000D01*
X99162500Y-107637500D02*
X95900000Y-110900000D01*
X102000000Y-107637500D02*
X99162500Y-107637500D01*
X92575000Y-114225000D02*
X95900000Y-110900000D01*
X90000000Y-114225000D02*
X92575000Y-114225000D01*
X91637500Y-106637500D02*
X95900000Y-110900000D01*
X89500000Y-106637500D02*
X91637500Y-106637500D01*
X87072500Y-114225000D02*
X84450000Y-116847500D01*
X90000000Y-114225000D02*
X87072500Y-114225000D01*
D54*
X64000000Y-101275000D02*
X66500000Y-103775000D01*
D58*
X68000000Y-102275000D02*
X66500000Y-103775000D01*
D54*
X64000000Y-100500000D02*
X64000000Y-101275000D01*
D58*
X68000000Y-101037500D02*
X68000000Y-102275000D01*
D59*
X67500000Y-98462500D02*
X68000000Y-98962500D01*
X67500000Y-95500000D02*
X67500000Y-98462500D01*
X65500000Y-95500000D02*
X67500000Y-95500000D01*
D58*
X68000000Y-110962500D02*
X68000000Y-109725000D01*
D54*
X66500000Y-108225000D02*
X66500000Y-109000000D01*
D58*
X68000000Y-109725000D02*
X66500000Y-108225000D01*
D54*
X66500000Y-109000000D02*
X64000000Y-111500000D01*
D59*
X67500000Y-113537500D02*
X68000000Y-113037500D01*
X65500000Y-116000000D02*
X67500000Y-116000000D01*
X67500000Y-116000000D02*
X67500000Y-113537500D01*
D60*
X54525000Y-122275000D02*
X54000000Y-121750000D01*
X54525000Y-128635000D02*
X54525000Y-127365000D01*
X54500000Y-134500000D02*
X54500000Y-132000000D01*
X56500000Y-130000000D02*
X56500000Y-128000000D01*
X55865000Y-127365000D02*
X54525000Y-127365000D01*
X54525000Y-127365000D02*
X54525000Y-126095000D01*
X54500000Y-132000000D02*
X56500000Y-130000000D01*
D59*
X54000000Y-121750000D02*
X52750000Y-121750000D01*
D60*
X56500000Y-128000000D02*
X55865000Y-127365000D01*
X54525000Y-126095000D02*
X54525000Y-122275000D01*
D59*
X52750000Y-121750000D02*
X52000000Y-121000000D01*
X54000000Y-121750000D02*
X55787500Y-121750000D01*
X55787500Y-121750000D02*
X56000000Y-121537500D01*
D57*
X135900000Y-150400000D02*
X135900000Y-151000000D01*
X136870000Y-149430000D02*
X135900000Y-150400000D01*
X140787500Y-149430000D02*
X136870000Y-149430000D01*
D59*
X69000000Y-147000000D02*
X68040000Y-146040000D01*
X67330000Y-139330000D02*
X65000000Y-137000000D01*
X68040000Y-146040000D02*
X68040000Y-139330000D01*
X68040000Y-139330000D02*
X67330000Y-139330000D01*
X66000000Y-141962500D02*
X66000000Y-141370000D01*
X51960000Y-139330000D02*
X51960000Y-141960000D01*
X51960000Y-141960000D02*
X52000000Y-142000000D01*
X65000000Y-137000000D02*
X54290000Y-137000000D01*
X71550000Y-147000000D02*
X69000000Y-147000000D01*
X66000000Y-141370000D02*
X68040000Y-139330000D01*
X54290000Y-137000000D02*
X51960000Y-139330000D01*
D60*
X62500000Y-127037500D02*
X62037500Y-127037500D01*
D59*
X62500000Y-130000000D02*
X62500000Y-127037500D01*
D60*
X61095000Y-126095000D02*
X59475000Y-126095000D01*
D59*
X60000000Y-132500000D02*
X62500000Y-130000000D01*
X60000000Y-133000000D02*
X60000000Y-132500000D01*
D60*
X62037500Y-127037500D02*
X61095000Y-126095000D01*
D59*
X60287500Y-121537500D02*
X60500000Y-121750000D01*
D60*
X58365000Y-127365000D02*
X57500000Y-126500000D01*
X57500000Y-122537500D02*
X58500000Y-121537500D01*
D57*
X57500000Y-134500000D02*
X57500000Y-131880000D01*
X62500000Y-134500000D02*
X61500000Y-135500000D01*
D59*
X61750000Y-121750000D02*
X62500000Y-121000000D01*
D60*
X57500000Y-126500000D02*
X57500000Y-122537500D01*
X59475000Y-127365000D02*
X58365000Y-127365000D01*
D57*
X61500000Y-135500000D02*
X58500000Y-135500000D01*
D59*
X60500000Y-121750000D02*
X61750000Y-121750000D01*
D57*
X58500000Y-135500000D02*
X57500000Y-134500000D01*
D60*
X59475000Y-128635000D02*
X59475000Y-129905000D01*
D59*
X58500000Y-121537500D02*
X60287500Y-121537500D01*
D57*
X65500000Y-134500000D02*
X62500000Y-134500000D01*
X57500000Y-131880000D02*
X59475000Y-129905000D01*
D60*
X59475000Y-127365000D02*
X59475000Y-128635000D01*
D56*
X66300000Y-121200000D02*
X66300000Y-124000000D01*
D58*
X66000000Y-129250000D02*
X66000000Y-124300000D01*
D56*
X70652500Y-116847500D02*
X66300000Y-121200000D01*
D58*
X69500000Y-116000000D02*
X72702500Y-116000000D01*
X66000000Y-124300000D02*
X66300000Y-124000000D01*
D56*
X73550000Y-116847500D02*
X70652500Y-116847500D01*
D58*
X72702500Y-95500000D02*
X73550000Y-94652500D01*
X66500000Y-82750000D02*
X66500000Y-87800000D01*
X66500000Y-87800000D02*
X66300000Y-88000000D01*
D56*
X73550000Y-94652500D02*
X70238272Y-94652500D01*
X66300000Y-90714228D02*
X66300000Y-87999998D01*
X70238272Y-94652500D02*
X66300000Y-90714228D01*
D58*
X69500000Y-95500000D02*
X72702500Y-95500000D01*
D55*
X145600000Y-135100000D02*
X142900000Y-132400000D01*
D54*
X150600000Y-136150000D02*
X146600000Y-136150000D01*
X122125000Y-87950000D02*
X122125000Y-90400000D01*
X122125000Y-90400000D02*
X122125000Y-92900000D01*
X150600000Y-136150000D02*
X151187500Y-136150000D01*
X154600000Y-136150000D02*
X150600000Y-136150000D01*
D55*
X153600000Y-135100000D02*
X145600000Y-135100000D01*
X142900000Y-132400000D02*
X138100000Y-132400000D01*
D54*
X122225000Y-100000000D02*
X122225000Y-102500000D01*
X122225000Y-97550000D02*
X122225000Y-100000000D01*
X126500000Y-100000000D02*
X126500000Y-102500000D01*
X126500000Y-97550000D02*
X126500000Y-100000000D01*
X126500000Y-110000000D02*
X126500000Y-112500000D01*
X126500000Y-107550000D02*
X126500000Y-110000000D01*
D59*
X54000000Y-144462500D02*
X54037500Y-144500000D01*
X59000000Y-142000000D02*
X60000000Y-141000000D01*
X60000000Y-141000000D02*
X60962500Y-141962500D01*
X58500000Y-144500000D02*
X58500000Y-147062500D01*
X60000000Y-141000000D02*
X60000000Y-143000000D01*
X54000000Y-142000000D02*
X59000000Y-142000000D01*
X60962500Y-141962500D02*
X63000000Y-141962500D01*
X60000000Y-143000000D02*
X58500000Y-144500000D01*
X54000000Y-142000000D02*
X54000000Y-144462500D01*
D57*
X126515000Y-133985000D02*
X129440000Y-133985000D01*
D59*
X62000000Y-150240000D02*
X64220000Y-152460000D01*
D58*
X66260000Y-154500000D02*
X64220000Y-152460000D01*
X70000000Y-154500000D02*
X66260000Y-154500000D01*
X71500000Y-156000000D02*
X70000000Y-154500000D01*
D57*
X82500000Y-154000000D02*
X80487500Y-156012500D01*
X142100000Y-145600000D02*
X143700000Y-147200000D01*
X123465000Y-137870000D02*
X125900000Y-135435000D01*
D58*
X78975000Y-160700000D02*
X78975000Y-158400000D01*
D59*
X81837500Y-147000000D02*
X84000000Y-147000000D01*
D57*
X125900000Y-135435000D02*
X125900000Y-134600000D01*
D59*
X62000000Y-149037500D02*
X59550000Y-149037500D01*
D57*
X143700000Y-147200000D02*
X143700000Y-151800000D01*
D58*
X78962500Y-156000000D02*
X71500000Y-156000000D01*
D57*
X143700000Y-151800000D02*
X142260000Y-153240000D01*
D59*
X60960000Y-152460000D02*
X59500000Y-151000000D01*
D58*
X78975000Y-157800000D02*
X78975000Y-156012500D01*
D57*
X142260000Y-153240000D02*
X140787500Y-153240000D01*
D59*
X62000000Y-149037500D02*
X62000000Y-150240000D01*
X84000000Y-147000000D02*
X84700000Y-146300000D01*
D57*
X129440000Y-133985000D02*
X130300000Y-134845000D01*
D60*
X137977500Y-153240000D02*
X137937500Y-153200000D01*
D57*
X82500000Y-148500000D02*
X82500000Y-154000000D01*
D59*
X59550000Y-149037500D02*
X59450000Y-148937500D01*
D57*
X135100000Y-145600000D02*
X142100000Y-145600000D01*
X130300000Y-134845000D02*
X130300000Y-140800000D01*
X120100000Y-137870000D02*
X123465000Y-137870000D01*
X80487500Y-156012500D02*
X78975000Y-156012500D01*
X125900000Y-134600000D02*
X126515000Y-133985000D01*
X130300000Y-140800000D02*
X135100000Y-145600000D01*
D58*
X78975000Y-156012500D02*
X78962500Y-156000000D01*
D57*
X84700000Y-146300000D02*
X82500000Y-148500000D01*
D59*
X64220000Y-152460000D02*
X60960000Y-152460000D01*
D58*
X78975000Y-158400000D02*
X78975000Y-157800000D01*
D59*
X68780000Y-152460000D02*
X68780000Y-151242500D01*
X68780000Y-151242500D02*
X67537500Y-150000000D01*
D54*
X73000000Y-152300000D02*
X78200000Y-152300000D01*
D58*
X73000000Y-152300000D02*
X68940000Y-152300000D01*
D54*
X78200000Y-152300000D02*
X78500000Y-152000000D01*
X88500000Y-154000000D02*
X86500000Y-152000000D01*
X86575000Y-152075000D02*
X86500000Y-152000000D01*
X92600000Y-154000000D02*
X88500000Y-154000000D01*
X90000000Y-152075000D02*
X86575000Y-152075000D01*
D57*
X86000000Y-154962500D02*
X86000000Y-152500000D01*
D54*
X93000000Y-154400000D02*
X92600000Y-154000000D01*
D57*
X86000000Y-152500000D02*
X86500000Y-152000000D01*
D58*
X73500000Y-165537500D02*
X65037500Y-165537500D01*
X62000000Y-155500000D02*
X59500000Y-153000000D01*
X56000000Y-153000000D02*
X55000000Y-152000000D01*
X59500000Y-153000000D02*
X56000000Y-153000000D01*
X55000000Y-152000000D02*
X55000000Y-151250000D01*
X65037500Y-165537500D02*
X62000000Y-162500000D01*
X78975000Y-165780000D02*
X73742500Y-165780000D01*
X62000000Y-162500000D02*
X62000000Y-155500000D01*
X73742500Y-165780000D02*
X73500000Y-165537500D01*
D57*
X145737500Y-153240000D02*
X145737500Y-151970000D01*
X138275000Y-150700000D02*
X137975000Y-151000000D01*
X140787500Y-150700000D02*
X138275000Y-150700000D01*
D56*
X54500000Y-88998860D02*
X54500000Y-100600000D01*
D58*
X54000000Y-104750000D02*
X54000000Y-100500000D01*
D59*
X52000000Y-119000000D02*
X53750000Y-119000000D01*
D58*
X61000000Y-95500000D02*
X59000000Y-97500000D01*
X59000000Y-113000000D02*
X54000000Y-118000000D01*
X59000000Y-97500000D02*
X59000000Y-113000000D01*
D59*
X53750000Y-119000000D02*
X54000000Y-119250000D01*
D58*
X63500000Y-95500000D02*
X61000000Y-95500000D01*
X54000000Y-118000000D02*
X54000000Y-119250000D01*
D59*
X63500000Y-118000000D02*
X62500000Y-119000000D01*
X62500000Y-119000000D02*
X60750000Y-119000000D01*
X60750000Y-119000000D02*
X60500000Y-119250000D01*
X65500000Y-118000000D02*
X63500000Y-118000000D01*
X55000000Y-148750000D02*
X57362500Y-148750000D01*
X57362500Y-148750000D02*
X57550000Y-148937500D01*
X57500000Y-151000000D02*
X57500000Y-148987500D01*
X57500000Y-148987500D02*
X57550000Y-148937500D01*
D54*
X146600000Y-140600000D02*
X140500000Y-140600000D01*
X145737500Y-145637500D02*
X145737500Y-149430000D01*
X143100000Y-143000000D02*
X145737500Y-145637500D01*
X154600000Y-140600000D02*
X146600000Y-140600000D01*
X138100000Y-143000000D02*
X143100000Y-143000000D01*
D57*
X145737500Y-150700000D02*
X145737500Y-149430000D01*
D54*
X140500000Y-140600000D02*
X138100000Y-143000000D01*
D57*
X126300000Y-136400000D02*
X127937500Y-136400000D01*
X142700000Y-151200000D02*
X141930000Y-151970000D01*
X134500000Y-146600000D02*
X141700000Y-146600000D01*
X125300000Y-138400000D02*
X125300000Y-137400000D01*
X141700000Y-146600000D02*
X142700000Y-147600000D01*
X127937500Y-136400000D02*
X129300000Y-137762500D01*
X141930000Y-151970000D02*
X140787500Y-151970000D01*
X124560000Y-139140000D02*
X125300000Y-138400000D01*
X129300000Y-141400000D02*
X134500000Y-146600000D01*
X129300000Y-137762500D02*
X129300000Y-141400000D01*
X120100000Y-139140000D02*
X124560000Y-139140000D01*
X125300000Y-137400000D02*
X126300000Y-136400000D01*
X142700000Y-147600000D02*
X142700000Y-151200000D01*
X83375000Y-149125000D02*
X83375000Y-160050000D01*
X83375000Y-160050000D02*
X84025000Y-160700000D01*
X85700000Y-146800000D02*
X83375000Y-149125000D01*
D58*
X124700000Y-141800000D02*
X123700000Y-141800000D01*
X123700000Y-141800000D02*
X122700000Y-141800000D01*
D59*
X122310000Y-140410000D02*
X123700000Y-141800000D01*
X120100000Y-140410000D02*
X122310000Y-140410000D01*
X120100000Y-144400000D02*
X117600000Y-144400000D01*
X120100000Y-144400000D02*
X122100000Y-144400000D01*
X122100000Y-144400000D02*
X122700000Y-143800000D01*
X120100000Y-144400000D02*
X120100000Y-141680000D01*
D58*
X126700000Y-141800000D02*
X126700000Y-139015000D01*
X126700000Y-139015000D02*
X126900000Y-138815000D01*
G04 #@! TA.AperFunction,Conductor*
G36*
X139996922Y-127008095D02*
G01*
X140035236Y-127031321D01*
X144500000Y-131000000D01*
X156873843Y-131000000D01*
X156936459Y-131016971D01*
X156981936Y-131063238D01*
X156997825Y-131126138D01*
X156902364Y-136662869D01*
X156882483Y-136728102D01*
X156831117Y-136772959D01*
X156763800Y-136783871D01*
X143769452Y-135245065D01*
X143711961Y-135222828D01*
X142000002Y-134000001D01*
X142000001Y-134000000D01*
X142000000Y-134000000D01*
X141999998Y-134000000D01*
X135615459Y-134000000D01*
X135556029Y-133984830D01*
X135511139Y-133943033D01*
X135491774Y-133884835D01*
X135009488Y-127132835D01*
X135022961Y-127067173D01*
X135068638Y-127018117D01*
X135133173Y-127000000D01*
X139952855Y-127000000D01*
X139996922Y-127008095D01*
G37*
G04 #@! TD.AperFunction*
G04 #@! TA.AperFunction,Conductor*
G36*
X157838000Y-145816613D02*
G01*
X157883387Y-145862000D01*
X157900000Y-145924000D01*
X157900000Y-154676000D01*
X157883387Y-154738000D01*
X157838000Y-154783387D01*
X157776000Y-154800000D01*
X150999999Y-154800000D01*
X149499056Y-156751226D01*
X149047693Y-157338000D01*
X149037228Y-157351604D01*
X148993720Y-157387245D01*
X148938943Y-157400000D01*
X145024000Y-157400000D01*
X144962000Y-157383387D01*
X144916613Y-157338000D01*
X144900000Y-157276000D01*
X144900000Y-151724000D01*
X144916613Y-151662000D01*
X144962000Y-151616613D01*
X145024000Y-151600000D01*
X148500000Y-151600000D01*
X148500000Y-145924000D01*
X148516613Y-145862000D01*
X148562000Y-145816613D01*
X148624000Y-145800000D01*
X157776000Y-145800000D01*
X157838000Y-145816613D01*
G37*
G04 #@! TD.AperFunction*
G04 #@! TA.AperFunction,Conductor*
G36*
X156438000Y-139816613D02*
G01*
X156483387Y-139862000D01*
X156500000Y-139924000D01*
X156500000Y-143876000D01*
X156483387Y-143938000D01*
X156438000Y-143983387D01*
X156376000Y-144000000D01*
X147300000Y-144000000D01*
X147300000Y-147041438D01*
X147297969Y-147063790D01*
X147284015Y-147139933D01*
X147264654Y-147459999D01*
X147284015Y-147780066D01*
X147297969Y-147856210D01*
X147300000Y-147878562D01*
X147300000Y-149581438D01*
X147297969Y-149603790D01*
X147284015Y-149679933D01*
X147264654Y-150000000D01*
X147284015Y-150320066D01*
X147297969Y-150396210D01*
X147300000Y-150418562D01*
X147300000Y-150470500D01*
X147283387Y-150532500D01*
X147238000Y-150577887D01*
X147176000Y-150594500D01*
X145124500Y-150594500D01*
X145062500Y-150577887D01*
X145017113Y-150532500D01*
X145000500Y-150470500D01*
X145000500Y-147324048D01*
X145000501Y-147324036D01*
X145000501Y-147086221D01*
X144991542Y-147035414D01*
X144990130Y-147024687D01*
X144985635Y-146973306D01*
X144972282Y-146923474D01*
X144969940Y-146912910D01*
X144960985Y-146862122D01*
X144943342Y-146813647D01*
X144940089Y-146803329D01*
X144926738Y-146753502D01*
X144904935Y-146706744D01*
X144900798Y-146696758D01*
X144883156Y-146648285D01*
X144857354Y-146603595D01*
X144852370Y-146594021D01*
X144830568Y-146547266D01*
X144800974Y-146505002D01*
X144795176Y-146495900D01*
X144769377Y-146451214D01*
X144736208Y-146411686D01*
X144729632Y-146403114D01*
X144722422Y-146392816D01*
X144705738Y-146358982D01*
X144700000Y-146321697D01*
X144700000Y-145600001D01*
X144699999Y-145599999D01*
X143500000Y-144400000D01*
X142631328Y-144400000D01*
X142578923Y-144388382D01*
X142546493Y-144373259D01*
X142496660Y-144359906D01*
X142486346Y-144356655D01*
X142437877Y-144339014D01*
X142387079Y-144330057D01*
X142376521Y-144327716D01*
X142326693Y-144314365D01*
X142275302Y-144309868D01*
X142264582Y-144308456D01*
X142213781Y-144299499D01*
X142213779Y-144299499D01*
X141986221Y-144299499D01*
X141975964Y-144299499D01*
X141975952Y-144299500D01*
X138824000Y-144299500D01*
X138762000Y-144282887D01*
X138716613Y-144237500D01*
X138700000Y-144175500D01*
X138700000Y-141451362D01*
X138709439Y-141403909D01*
X138736319Y-141363681D01*
X140263681Y-139836319D01*
X140303909Y-139809439D01*
X140351362Y-139800000D01*
X156376000Y-139800000D01*
X156438000Y-139816613D01*
G37*
G04 #@! TD.AperFunction*
G04 #@! TA.AperFunction,Conductor*
G36*
X157937500Y-65017113D02*
G01*
X157982887Y-65062500D01*
X157999500Y-65124500D01*
X157999500Y-86541219D01*
X157979909Y-86608112D01*
X157927327Y-86653869D01*
X157858369Y-86664030D01*
X157794823Y-86635385D01*
X157756770Y-86576986D01*
X157692198Y-86362636D01*
X157561384Y-86066371D01*
X157395148Y-85788417D01*
X157395147Y-85788415D01*
X157196014Y-85532997D01*
X156967003Y-85303986D01*
X156711585Y-85104853D01*
X156711582Y-85104851D01*
X156433628Y-84938615D01*
X156137363Y-84807801D01*
X155827248Y-84714380D01*
X155508018Y-84659779D01*
X155326750Y-84650000D01*
X155317473Y-84649500D01*
X155317472Y-84649500D01*
X155084500Y-84649500D01*
X155022500Y-84632887D01*
X154977113Y-84587500D01*
X154960500Y-84525500D01*
X154960500Y-79914173D01*
X154966846Y-79875014D01*
X154985233Y-79839863D01*
X155146796Y-79624039D01*
X155283902Y-79372948D01*
X155283901Y-79372948D01*
X155383878Y-79104902D01*
X155444690Y-78825355D01*
X155465099Y-78540000D01*
X155444690Y-78254645D01*
X155383878Y-77975098D01*
X155283902Y-77707052D01*
X155283902Y-77707051D01*
X155146798Y-77455963D01*
X155103936Y-77398706D01*
X154975353Y-77226939D01*
X154773061Y-77024647D01*
X154636535Y-76922445D01*
X154544036Y-76853201D01*
X154292948Y-76716097D01*
X154024900Y-76616121D01*
X153745355Y-76555310D01*
X153460000Y-76534900D01*
X153174644Y-76555310D01*
X152895099Y-76616121D01*
X152627051Y-76716097D01*
X152375963Y-76853201D01*
X152146936Y-77024649D01*
X151944649Y-77226936D01*
X151773201Y-77455963D01*
X151636097Y-77707051D01*
X151536121Y-77975099D01*
X151475310Y-78254644D01*
X151454900Y-78540000D01*
X151475310Y-78825355D01*
X151536121Y-79104900D01*
X151636097Y-79372948D01*
X151773203Y-79624039D01*
X151934767Y-79839863D01*
X151953154Y-79875014D01*
X151959500Y-79914173D01*
X151959500Y-84527858D01*
X151943983Y-84587919D01*
X151901317Y-84632949D01*
X151842180Y-84651677D01*
X151805141Y-84653675D01*
X151691981Y-84659779D01*
X151372751Y-84714380D01*
X151062636Y-84807801D01*
X150766371Y-84938615D01*
X150488417Y-85104851D01*
X150232992Y-85303990D01*
X150003990Y-85532992D01*
X149804851Y-85788417D01*
X149638615Y-86066371D01*
X149507801Y-86362636D01*
X149414380Y-86672751D01*
X149359779Y-86991981D01*
X149349500Y-87182527D01*
X149349500Y-90617471D01*
X149359779Y-90808018D01*
X149414380Y-91127248D01*
X149507801Y-91437363D01*
X149638615Y-91733628D01*
X149757439Y-91932307D01*
X149804853Y-92011585D01*
X150003986Y-92267003D01*
X150232997Y-92496014D01*
X150488415Y-92695147D01*
X150488418Y-92695148D01*
X150488417Y-92695148D01*
X150766371Y-92861384D01*
X151062636Y-92992198D01*
X151372751Y-93085619D01*
X151691981Y-93140220D01*
X151710538Y-93141221D01*
X151882527Y-93150500D01*
X155317472Y-93150499D01*
X155412744Y-93145359D01*
X155508018Y-93140220D01*
X155827248Y-93085619D01*
X155827250Y-93085618D01*
X155827252Y-93085618D01*
X156137357Y-92992200D01*
X156137358Y-92992199D01*
X156137363Y-92992198D01*
X156433628Y-92861384D01*
X156433629Y-92861383D01*
X156433632Y-92861382D01*
X156711585Y-92695147D01*
X156967003Y-92496014D01*
X157196014Y-92267003D01*
X157395147Y-92011585D01*
X157561382Y-91733632D01*
X157615008Y-91612181D01*
X157692198Y-91437363D01*
X157694533Y-91429614D01*
X157756770Y-91223013D01*
X157794823Y-91164615D01*
X157858369Y-91135970D01*
X157927327Y-91146131D01*
X157979909Y-91191888D01*
X157999500Y-91258781D01*
X157999500Y-129688890D01*
X157981755Y-129752810D01*
X157933600Y-129798436D01*
X157868816Y-129812710D01*
X157805945Y-129791545D01*
X157696684Y-129717514D01*
X157518575Y-129628565D01*
X157330299Y-129563899D01*
X157330297Y-129563898D01*
X157330290Y-129563896D01*
X157301169Y-129556003D01*
X157267669Y-129546923D01*
X157072498Y-129507664D01*
X157022832Y-129504372D01*
X156873843Y-129494500D01*
X156873837Y-129494500D01*
X145119536Y-129494500D01*
X145075469Y-129486405D01*
X145037155Y-129463179D01*
X141035424Y-125906085D01*
X140929242Y-125820005D01*
X140815685Y-125743909D01*
X140777353Y-125720672D01*
X140706777Y-125683533D01*
X140616119Y-125635825D01*
X140445810Y-125571074D01*
X140332726Y-125543134D01*
X140268920Y-125527369D01*
X140224875Y-125519278D01*
X140089417Y-125500706D01*
X139952857Y-125494500D01*
X139952855Y-125494500D01*
X135133173Y-125494500D01*
X134996256Y-125503882D01*
X134927797Y-125508574D01*
X134726263Y-125550532D01*
X134661724Y-125568650D01*
X134479465Y-125633555D01*
X134467803Y-125637709D01*
X134308036Y-125720672D01*
X134285108Y-125732578D01*
X134117070Y-125851477D01*
X133994243Y-125966507D01*
X133955051Y-125991323D01*
X133909482Y-126000000D01*
X124124000Y-126000000D01*
X124062000Y-125983387D01*
X124016613Y-125938000D01*
X124000000Y-125876000D01*
X124000000Y-115124000D01*
X124016613Y-115062000D01*
X124062000Y-115016613D01*
X124124000Y-115000000D01*
X126500000Y-115000000D01*
X126500000Y-114824499D01*
X126516613Y-114762499D01*
X126562000Y-114717112D01*
X126624000Y-114700499D01*
X127087509Y-114700499D01*
X127138902Y-114695248D01*
X127190297Y-114689999D01*
X127356834Y-114634814D01*
X127506156Y-114542712D01*
X127630212Y-114418656D01*
X127722314Y-114269334D01*
X127777499Y-114102797D01*
X127788000Y-114000009D01*
X127787999Y-113150376D01*
X127801514Y-113094083D01*
X127839114Y-113050060D01*
X127892601Y-113027905D01*
X127950317Y-113032447D01*
X127999680Y-113062697D01*
X128003986Y-113067003D01*
X128232997Y-113296014D01*
X128488415Y-113495147D01*
X128585829Y-113553407D01*
X128766371Y-113661384D01*
X129062636Y-113792198D01*
X129372751Y-113885619D01*
X129691981Y-113940220D01*
X129710538Y-113941221D01*
X129882527Y-113950500D01*
X133317472Y-113950499D01*
X133412744Y-113945359D01*
X133508018Y-113940220D01*
X133827248Y-113885619D01*
X133827250Y-113885618D01*
X133827252Y-113885618D01*
X134137357Y-113792200D01*
X134137358Y-113792199D01*
X134137363Y-113792198D01*
X134433628Y-113661384D01*
X134433629Y-113661383D01*
X134433632Y-113661382D01*
X134711585Y-113495147D01*
X134967003Y-113296014D01*
X135196014Y-113067003D01*
X135395147Y-112811585D01*
X135561382Y-112533632D01*
X135576232Y-112500000D01*
X135692198Y-112237363D01*
X135731383Y-112107286D01*
X135785618Y-111927252D01*
X135791227Y-111894463D01*
X135840220Y-111608018D01*
X135840720Y-111598739D01*
X135850500Y-111417473D01*
X135850499Y-107982528D01*
X135843729Y-107857023D01*
X135840220Y-107791981D01*
X135785619Y-107472751D01*
X135692198Y-107162636D01*
X135561384Y-106866371D01*
X135453101Y-106685317D01*
X135395147Y-106588415D01*
X135196014Y-106332997D01*
X134967003Y-106103986D01*
X134711585Y-105904853D01*
X134709470Y-105903588D01*
X134433628Y-105738615D01*
X134137363Y-105607801D01*
X133827248Y-105514380D01*
X133508018Y-105459779D01*
X133326750Y-105450000D01*
X133317472Y-105449500D01*
X129882528Y-105449500D01*
X129691981Y-105459779D01*
X129372751Y-105514380D01*
X129062636Y-105607801D01*
X128766371Y-105738615D01*
X128488417Y-105904851D01*
X128232992Y-106103990D01*
X127999680Y-106337303D01*
X127950317Y-106367553D01*
X127892601Y-106372095D01*
X127839114Y-106349940D01*
X127801514Y-106305917D01*
X127787999Y-106249622D01*
X127787999Y-106049991D01*
X127777499Y-105947203D01*
X127775995Y-105942665D01*
X127722314Y-105780666D01*
X127630212Y-105631344D01*
X127630211Y-105631342D01*
X127506157Y-105507288D01*
X127356834Y-105415186D01*
X127190297Y-105360000D01*
X127097035Y-105350473D01*
X127087509Y-105349500D01*
X127087508Y-105349500D01*
X127087504Y-105349500D01*
X126623999Y-105349500D01*
X126562000Y-105332888D01*
X126516613Y-105287501D01*
X126500000Y-105225501D01*
X126500000Y-104824499D01*
X126516613Y-104762499D01*
X126562000Y-104717112D01*
X126624000Y-104700499D01*
X127087509Y-104700499D01*
X127138902Y-104695248D01*
X127190297Y-104689999D01*
X127356834Y-104634814D01*
X127506156Y-104542712D01*
X127630212Y-104418656D01*
X127722314Y-104269334D01*
X127777499Y-104102797D01*
X127788000Y-104000009D01*
X127787999Y-103350376D01*
X127801514Y-103294083D01*
X127839114Y-103250060D01*
X127892601Y-103227905D01*
X127950317Y-103232447D01*
X127999680Y-103262697D01*
X128032997Y-103296014D01*
X128288415Y-103495147D01*
X128329345Y-103519626D01*
X128566371Y-103661384D01*
X128862636Y-103792198D01*
X129172751Y-103885619D01*
X129491981Y-103940220D01*
X129510538Y-103941221D01*
X129682527Y-103950500D01*
X133117472Y-103950499D01*
X133212744Y-103945359D01*
X133308018Y-103940220D01*
X133627248Y-103885619D01*
X133627250Y-103885618D01*
X133627252Y-103885618D01*
X133937357Y-103792200D01*
X133937358Y-103792199D01*
X133937363Y-103792198D01*
X134233628Y-103661384D01*
X134233629Y-103661383D01*
X134233632Y-103661382D01*
X134511585Y-103495147D01*
X134767003Y-103296014D01*
X134996014Y-103067003D01*
X135195147Y-102811585D01*
X135361382Y-102533632D01*
X135361384Y-102533628D01*
X135492198Y-102237363D01*
X135585619Y-101927248D01*
X135640220Y-101608018D01*
X135644548Y-101527796D01*
X135650500Y-101417473D01*
X135650499Y-97982528D01*
X135646294Y-97904570D01*
X135640220Y-97791981D01*
X135585619Y-97472751D01*
X135492198Y-97162636D01*
X135361384Y-96866371D01*
X135195148Y-96588417D01*
X135195147Y-96588415D01*
X134996014Y-96332997D01*
X134767003Y-96103986D01*
X134511585Y-95904853D01*
X134511582Y-95904851D01*
X134233628Y-95738615D01*
X133937363Y-95607801D01*
X133627248Y-95514380D01*
X133308018Y-95459779D01*
X133126750Y-95450000D01*
X133117472Y-95449500D01*
X129682528Y-95449500D01*
X129491981Y-95459779D01*
X129172751Y-95514380D01*
X128862636Y-95607801D01*
X128566371Y-95738615D01*
X128288417Y-95904851D01*
X128032992Y-96103990D01*
X127999680Y-96137303D01*
X127950317Y-96167553D01*
X127892601Y-96172095D01*
X127839114Y-96149940D01*
X127801514Y-96105917D01*
X127789573Y-96056180D01*
X127788641Y-96056276D01*
X127777499Y-95947203D01*
X127722314Y-95780666D01*
X127630212Y-95631344D01*
X127630211Y-95631342D01*
X127506157Y-95507288D01*
X127356834Y-95415186D01*
X127190297Y-95360000D01*
X127097035Y-95350473D01*
X127087509Y-95349500D01*
X127087508Y-95349500D01*
X127087504Y-95349500D01*
X126623999Y-95349500D01*
X126562000Y-95332888D01*
X126516613Y-95287501D01*
X126500000Y-95225501D01*
X126500000Y-95000000D01*
X124124000Y-95000000D01*
X124062000Y-94983387D01*
X124016613Y-94938000D01*
X124000000Y-94876000D01*
X124000000Y-86000000D01*
X123275230Y-86000000D01*
X123227777Y-85990561D01*
X123187551Y-85963683D01*
X123131156Y-85907288D01*
X123131155Y-85907287D01*
X123131154Y-85907286D01*
X122981834Y-85815186D01*
X122815297Y-85760000D01*
X122712509Y-85749500D01*
X121537491Y-85749500D01*
X121434703Y-85760000D01*
X121268165Y-85815186D01*
X121118845Y-85907286D01*
X121090648Y-85935483D01*
X121062448Y-85963683D01*
X121022223Y-85990561D01*
X120974770Y-86000000D01*
X112999999Y-86000000D01*
X106000000Y-91499999D01*
X106000000Y-91500000D01*
X106000000Y-97500000D01*
X106000000Y-118500000D01*
X112000000Y-124000000D01*
X121000000Y-131000000D01*
X133660920Y-131000000D01*
X133720350Y-131015170D01*
X133765240Y-131056967D01*
X133784605Y-131115165D01*
X133990100Y-133992097D01*
X134015176Y-134178419D01*
X134063274Y-134360142D01*
X134063279Y-134360157D01*
X134082644Y-134418355D01*
X134082647Y-134418364D01*
X134082649Y-134418368D01*
X134152017Y-134590196D01*
X134153025Y-134592691D01*
X134166161Y-134616249D01*
X134244584Y-134756894D01*
X134272535Y-134794939D01*
X134355898Y-134908407D01*
X134485226Y-135044864D01*
X134530116Y-135086661D01*
X134530121Y-135086665D01*
X134530122Y-135086666D01*
X134675427Y-135205924D01*
X134675431Y-135205927D01*
X134675433Y-135205928D01*
X134834482Y-135306155D01*
X135004782Y-135385778D01*
X135183677Y-135443557D01*
X135243107Y-135458727D01*
X135427819Y-135493760D01*
X135427820Y-135493761D01*
X135615458Y-135505500D01*
X135615459Y-135505500D01*
X141477800Y-135505500D01*
X141515642Y-135511415D01*
X141549874Y-135528597D01*
X141648074Y-135598740D01*
X141686257Y-135642903D01*
X141700000Y-135699643D01*
X141700000Y-138670500D01*
X141683387Y-138732500D01*
X141638000Y-138777887D01*
X141576000Y-138794500D01*
X140351362Y-138794500D01*
X140155193Y-138813820D01*
X140107745Y-138823258D01*
X139919119Y-138880478D01*
X139745272Y-138973403D01*
X139705050Y-139000279D01*
X139552682Y-139125324D01*
X138025324Y-140652682D01*
X137947572Y-140747424D01*
X137900281Y-140805048D01*
X137891320Y-140818457D01*
X137873397Y-140845280D01*
X137825999Y-140933955D01*
X137780390Y-140981859D01*
X137716642Y-140999500D01*
X136785785Y-140999500D01*
X136653583Y-141009904D01*
X136435318Y-141064902D01*
X136230374Y-141157992D01*
X136045345Y-141286180D01*
X135886180Y-141445345D01*
X135757992Y-141630374D01*
X135664902Y-141835318D01*
X135609904Y-142053583D01*
X135599500Y-142185786D01*
X135599500Y-143814214D01*
X135609904Y-143946416D01*
X135664902Y-144164681D01*
X135757992Y-144369625D01*
X135886180Y-144554654D01*
X135919345Y-144587819D01*
X135949595Y-144637182D01*
X135954137Y-144694898D01*
X135931982Y-144748385D01*
X135887959Y-144785985D01*
X135831664Y-144799500D01*
X135482940Y-144799500D01*
X135435487Y-144790061D01*
X135395259Y-144763181D01*
X131136819Y-140504741D01*
X131109939Y-140464513D01*
X131100500Y-140417060D01*
X131100500Y-134754807D01*
X131100500Y-134754806D01*
X131091981Y-134717481D01*
X131089653Y-134703776D01*
X131085368Y-134665745D01*
X131072725Y-134629613D01*
X131068881Y-134616276D01*
X131060360Y-134578939D01*
X131058703Y-134575499D01*
X131043748Y-134544441D01*
X131038428Y-134531597D01*
X131025790Y-134495480D01*
X131010029Y-134470397D01*
X131005424Y-134463068D01*
X130998699Y-134450898D01*
X130982092Y-134416414D01*
X130958228Y-134386490D01*
X130950185Y-134375156D01*
X130929816Y-134342738D01*
X130802262Y-134215184D01*
X130793583Y-134206505D01*
X130793576Y-134206499D01*
X130571818Y-133984741D01*
X130544938Y-133944513D01*
X130535499Y-133897060D01*
X130535499Y-132542130D01*
X130533558Y-132524074D01*
X130529091Y-132482517D01*
X130478796Y-132347669D01*
X130392546Y-132232454D01*
X130277331Y-132146204D01*
X130142483Y-132095909D01*
X130082873Y-132089500D01*
X130082869Y-132089500D01*
X128797130Y-132089500D01*
X128737515Y-132095909D01*
X128602669Y-132146204D01*
X128487454Y-132232454D01*
X128401204Y-132347668D01*
X128350909Y-132482516D01*
X128344500Y-132542131D01*
X128344500Y-133060500D01*
X128327887Y-133122500D01*
X128282500Y-133167887D01*
X128220500Y-133184500D01*
X126424803Y-133184500D01*
X126387490Y-133193016D01*
X126373785Y-133195345D01*
X126335747Y-133199631D01*
X126299611Y-133212275D01*
X126286255Y-133216122D01*
X126248938Y-133224640D01*
X126214459Y-133241244D01*
X126201618Y-133246563D01*
X126165479Y-133259209D01*
X126133064Y-133279577D01*
X126120897Y-133286301D01*
X126086414Y-133302907D01*
X126056487Y-133326773D01*
X126045152Y-133334815D01*
X126012740Y-133355181D01*
X125922159Y-133445761D01*
X125339152Y-134028767D01*
X125339150Y-134028771D01*
X125270185Y-134097735D01*
X125249817Y-134130151D01*
X125241772Y-134141489D01*
X125217908Y-134171413D01*
X125201300Y-134205899D01*
X125194576Y-134218064D01*
X125174211Y-134250475D01*
X125161565Y-134286613D01*
X125156246Y-134299453D01*
X125139639Y-134333938D01*
X125131118Y-134371268D01*
X125127270Y-134384623D01*
X125114631Y-134420743D01*
X125110345Y-134458780D01*
X125108017Y-134472480D01*
X125099500Y-134509803D01*
X125099500Y-135052060D01*
X125090061Y-135099513D01*
X125063181Y-135139741D01*
X123169741Y-137033181D01*
X123129513Y-137060061D01*
X123082060Y-137069500D01*
X121674726Y-137069500D01*
X121619301Y-137056423D01*
X121575565Y-137019952D01*
X121552744Y-136967777D01*
X121555650Y-136910904D01*
X121559524Y-136897568D01*
X121572598Y-136852569D01*
X121575500Y-136815694D01*
X121575500Y-136384306D01*
X121572598Y-136347431D01*
X121526744Y-136189602D01*
X121443081Y-136048135D01*
X121326865Y-135931919D01*
X121326349Y-135931614D01*
X121185397Y-135848255D01*
X121027572Y-135802402D01*
X121005444Y-135800660D01*
X120990694Y-135799500D01*
X119209306Y-135799500D01*
X119197014Y-135800467D01*
X119172427Y-135802402D01*
X119014602Y-135848255D01*
X118873134Y-135931919D01*
X118756919Y-136048134D01*
X118673255Y-136189602D01*
X118627402Y-136347427D01*
X118624500Y-136384308D01*
X118624500Y-136815692D01*
X118627402Y-136852572D01*
X118656822Y-136953834D01*
X118657569Y-137020342D01*
X118623841Y-137077668D01*
X118576405Y-137103333D01*
X118576524Y-137103579D01*
X118571321Y-137106084D01*
X118565343Y-137109319D01*
X118563938Y-137109639D01*
X118529453Y-137126246D01*
X118516613Y-137131565D01*
X118480475Y-137144211D01*
X118448064Y-137164576D01*
X118435900Y-137171300D01*
X118401808Y-137187719D01*
X118348003Y-137200000D01*
X118300000Y-137200000D01*
X118300000Y-137216551D01*
X118290558Y-137264010D01*
X118263671Y-137304242D01*
X118237192Y-137330714D01*
X118237164Y-137330757D01*
X116870185Y-138697735D01*
X116849817Y-138730151D01*
X116841772Y-138741489D01*
X116817905Y-138771416D01*
X116815533Y-138776343D01*
X116777862Y-138821998D01*
X116723319Y-138844990D01*
X116664332Y-138840079D01*
X116614342Y-138808383D01*
X116584741Y-138757129D01*
X116576744Y-138729602D01*
X116493081Y-138588135D01*
X116376865Y-138471919D01*
X116376864Y-138471918D01*
X116235397Y-138388255D01*
X116077572Y-138342402D01*
X116055444Y-138340660D01*
X116040694Y-138339500D01*
X114259306Y-138339500D01*
X114247014Y-138340467D01*
X114222427Y-138342402D01*
X114064602Y-138388255D01*
X113923134Y-138471919D01*
X113806919Y-138588134D01*
X113723255Y-138729602D01*
X113677402Y-138887427D01*
X113674500Y-138924308D01*
X113674500Y-139355692D01*
X113677402Y-139392572D01*
X113723255Y-139550397D01*
X113723256Y-139550398D01*
X113806919Y-139691865D01*
X113923135Y-139808081D01*
X114064601Y-139891743D01*
X114064602Y-139891744D01*
X114222427Y-139937597D01*
X114222431Y-139937598D01*
X114259306Y-139940500D01*
X116040692Y-139940500D01*
X116040694Y-139940500D01*
X116077569Y-139937598D01*
X116235398Y-139891744D01*
X116376865Y-139808081D01*
X116487819Y-139697127D01*
X116537182Y-139666877D01*
X116594898Y-139662335D01*
X116648385Y-139684490D01*
X116685985Y-139728513D01*
X116699500Y-139784808D01*
X116699500Y-141035192D01*
X116685985Y-141091487D01*
X116648385Y-141135510D01*
X116594898Y-141157665D01*
X116537182Y-141153123D01*
X116487819Y-141122873D01*
X116376865Y-141011919D01*
X116235397Y-140928255D01*
X116077572Y-140882402D01*
X116055444Y-140880660D01*
X116040694Y-140879500D01*
X114259306Y-140879500D01*
X114247014Y-140880467D01*
X114222427Y-140882402D01*
X114064602Y-140928255D01*
X113923134Y-141011919D01*
X113806919Y-141128134D01*
X113723255Y-141269602D01*
X113677402Y-141427427D01*
X113674500Y-141464308D01*
X113674500Y-141895692D01*
X113677402Y-141932572D01*
X113723255Y-142090397D01*
X113779666Y-142185783D01*
X113806919Y-142231865D01*
X113923135Y-142348081D01*
X113968900Y-142375146D01*
X114064602Y-142431744D01*
X114222427Y-142477597D01*
X114222431Y-142477598D01*
X114259306Y-142480500D01*
X115388060Y-142480500D01*
X115444355Y-142494015D01*
X115488378Y-142531615D01*
X115510533Y-142585102D01*
X115505991Y-142642818D01*
X115475741Y-142692181D01*
X113504741Y-144663181D01*
X113464513Y-144690061D01*
X113417060Y-144699500D01*
X89124500Y-144699500D01*
X89062500Y-144682887D01*
X89017113Y-144637500D01*
X89000500Y-144575500D01*
X89000500Y-136815692D01*
X113674500Y-136815692D01*
X113677402Y-136852572D01*
X113723255Y-137010397D01*
X113775993Y-137099572D01*
X113806919Y-137151865D01*
X113923135Y-137268081D01*
X114029042Y-137330714D01*
X114064602Y-137351744D01*
X114222427Y-137397597D01*
X114222431Y-137397598D01*
X114259306Y-137400500D01*
X116040692Y-137400500D01*
X116040694Y-137400500D01*
X116077569Y-137397598D01*
X116235398Y-137351744D01*
X116376865Y-137268081D01*
X116493081Y-137151865D01*
X116576744Y-137010398D01*
X116622598Y-136852569D01*
X116625500Y-136815694D01*
X116625500Y-136384306D01*
X116622598Y-136347431D01*
X116576744Y-136189602D01*
X116493081Y-136048135D01*
X116376865Y-135931919D01*
X116376349Y-135931614D01*
X116235397Y-135848255D01*
X116077572Y-135802402D01*
X116055444Y-135800660D01*
X116040694Y-135799500D01*
X114259306Y-135799500D01*
X114247014Y-135800467D01*
X114222427Y-135802402D01*
X114064602Y-135848255D01*
X113923134Y-135931919D01*
X113806919Y-136048134D01*
X113723255Y-136189602D01*
X113677402Y-136347427D01*
X113674500Y-136384308D01*
X113674500Y-136815692D01*
X89000500Y-136815692D01*
X89000500Y-134275692D01*
X113674500Y-134275692D01*
X113677402Y-134312572D01*
X113723255Y-134470397D01*
X113767045Y-134544441D01*
X113806919Y-134611865D01*
X113923135Y-134728081D01*
X113971857Y-134756895D01*
X114064602Y-134811744D01*
X114222427Y-134857597D01*
X114222431Y-134857598D01*
X114259306Y-134860500D01*
X116040692Y-134860500D01*
X116040694Y-134860500D01*
X116077569Y-134857598D01*
X116235398Y-134811744D01*
X116376865Y-134728081D01*
X116493081Y-134611865D01*
X116576744Y-134470398D01*
X116622598Y-134312569D01*
X116625500Y-134275694D01*
X116625500Y-134275692D01*
X118624500Y-134275692D01*
X118627402Y-134312572D01*
X118673255Y-134470397D01*
X118717045Y-134544441D01*
X118756919Y-134611865D01*
X118873135Y-134728081D01*
X118921857Y-134756895D01*
X119014602Y-134811744D01*
X119172427Y-134857597D01*
X119172431Y-134857598D01*
X119209306Y-134860500D01*
X120990692Y-134860500D01*
X120990694Y-134860500D01*
X121027569Y-134857598D01*
X121185398Y-134811744D01*
X121326865Y-134728081D01*
X121443081Y-134611865D01*
X121526744Y-134470398D01*
X121572598Y-134312569D01*
X121575500Y-134275694D01*
X121575500Y-133844306D01*
X121572598Y-133807431D01*
X121552902Y-133739639D01*
X121526744Y-133649602D01*
X121443080Y-133508134D01*
X121326865Y-133391919D01*
X121185397Y-133308255D01*
X121027572Y-133262402D01*
X121005444Y-133260660D01*
X120990694Y-133259500D01*
X119209306Y-133259500D01*
X119197014Y-133260467D01*
X119172427Y-133262402D01*
X119014602Y-133308255D01*
X118873134Y-133391919D01*
X118756919Y-133508134D01*
X118673255Y-133649602D01*
X118627402Y-133807427D01*
X118624500Y-133844308D01*
X118624500Y-134275692D01*
X116625500Y-134275692D01*
X116625500Y-133844306D01*
X116622598Y-133807431D01*
X116602902Y-133739639D01*
X116576744Y-133649602D01*
X116493080Y-133508134D01*
X116376865Y-133391919D01*
X116235397Y-133308255D01*
X116077572Y-133262402D01*
X116055444Y-133260660D01*
X116040694Y-133259500D01*
X114259306Y-133259500D01*
X114247014Y-133260467D01*
X114222427Y-133262402D01*
X114064602Y-133308255D01*
X113923134Y-133391919D01*
X113806919Y-133508134D01*
X113723255Y-133649602D01*
X113677402Y-133807427D01*
X113674500Y-133844308D01*
X113674500Y-134275692D01*
X89000500Y-134275692D01*
X89000500Y-128428996D01*
X89014015Y-128372701D01*
X89051615Y-128328678D01*
X89105102Y-128306523D01*
X89162818Y-128311065D01*
X89212181Y-128341315D01*
X89386605Y-128515739D01*
X89531893Y-128624500D01*
X89615686Y-128687227D01*
X89755435Y-128763535D01*
X89866839Y-128824367D01*
X90134954Y-128924369D01*
X90134957Y-128924369D01*
X90134958Y-128924370D01*
X90187217Y-128935738D01*
X90414572Y-128985196D01*
X90612068Y-128999321D01*
X90628551Y-129000500D01*
X90628552Y-129000500D01*
X92771448Y-129000500D01*
X92771449Y-129000500D01*
X92786753Y-128999405D01*
X92985428Y-128985196D01*
X93265046Y-128924369D01*
X93533161Y-128824367D01*
X93784315Y-128687226D01*
X94013395Y-128515739D01*
X94215739Y-128313395D01*
X94387226Y-128084315D01*
X94524367Y-127833161D01*
X94624369Y-127565046D01*
X94685196Y-127285428D01*
X94700500Y-127071448D01*
X94700500Y-123172889D01*
X94709939Y-123125436D01*
X94736819Y-123085208D01*
X94785708Y-123036319D01*
X94825936Y-123009439D01*
X94873389Y-123000000D01*
X100000000Y-123000000D01*
X100000000Y-122394016D01*
X100005647Y-122357023D01*
X100022069Y-122323403D01*
X100042007Y-122294626D01*
X100042193Y-122294218D01*
X100135097Y-122089681D01*
X100190095Y-121871416D01*
X100190095Y-121871415D01*
X100190096Y-121871412D01*
X100200500Y-121739217D01*
X100200499Y-120535784D01*
X100190096Y-120403588D01*
X100175385Y-120345205D01*
X100135097Y-120185318D01*
X100042009Y-119980377D01*
X100033889Y-119968657D01*
X100022069Y-119951596D01*
X100005647Y-119917977D01*
X100000000Y-119880984D01*
X100000000Y-118119016D01*
X100005647Y-118082023D01*
X100022069Y-118048403D01*
X100042007Y-118019626D01*
X100055195Y-117990593D01*
X100135097Y-117814681D01*
X100190095Y-117596416D01*
X100190095Y-117596415D01*
X100190096Y-117596412D01*
X100200500Y-117464217D01*
X100200499Y-116260784D01*
X100190096Y-116128588D01*
X100190095Y-116128583D01*
X100135097Y-115910318D01*
X100042009Y-115705377D01*
X100042007Y-115705374D01*
X100022069Y-115676596D01*
X100005647Y-115642977D01*
X100000000Y-115605984D01*
X100000000Y-113429738D01*
X100005270Y-113393971D01*
X100033260Y-113301058D01*
X100085618Y-113127252D01*
X100089982Y-113101741D01*
X100140220Y-112808018D01*
X100141548Y-112783405D01*
X100150500Y-112617473D01*
X100150499Y-109623999D01*
X100167112Y-109562000D01*
X100212499Y-109516613D01*
X100274499Y-109500000D01*
X104000000Y-109500000D01*
X104000000Y-109378501D01*
X104008915Y-109332335D01*
X104034376Y-109292806D01*
X104060890Y-109273995D01*
X104060452Y-109273363D01*
X104254654Y-109138819D01*
X104413819Y-108979654D01*
X104423986Y-108964979D01*
X104542007Y-108794626D01*
X104635096Y-108589683D01*
X104690096Y-108371412D01*
X104700500Y-108239217D01*
X104700499Y-107035784D01*
X104690096Y-106903588D01*
X104680718Y-106866371D01*
X104635097Y-106685318D01*
X104542007Y-106480374D01*
X104413819Y-106295345D01*
X104254654Y-106136180D01*
X104060452Y-106001637D01*
X104060890Y-106001004D01*
X104034376Y-105982194D01*
X104008915Y-105942665D01*
X104000000Y-105896499D01*
X104000000Y-105103501D01*
X104008915Y-105057335D01*
X104034376Y-105017806D01*
X104060890Y-104998995D01*
X104060452Y-104998363D01*
X104254654Y-104863819D01*
X104413819Y-104704654D01*
X104456078Y-104643657D01*
X104542007Y-104519626D01*
X104635096Y-104314683D01*
X104657693Y-104225008D01*
X104690095Y-104096416D01*
X104690095Y-104096415D01*
X104690096Y-104096412D01*
X104700500Y-103964217D01*
X104700499Y-102760784D01*
X104690096Y-102628588D01*
X104683903Y-102604010D01*
X104635097Y-102410318D01*
X104542007Y-102205374D01*
X104413819Y-102020345D01*
X104254654Y-101861180D01*
X104069625Y-101732992D01*
X103864681Y-101639902D01*
X103646416Y-101584904D01*
X103570871Y-101578958D01*
X103514217Y-101574500D01*
X103514214Y-101574500D01*
X101172585Y-101574500D01*
X101154191Y-101573128D01*
X99756104Y-101363414D01*
X99702162Y-101341502D01*
X99664168Y-101297383D01*
X99650499Y-101240787D01*
X99650499Y-98182528D01*
X99640220Y-97991981D01*
X99585619Y-97672751D01*
X99505270Y-97406029D01*
X99500000Y-97370262D01*
X99500000Y-95394016D01*
X99505647Y-95357023D01*
X99522069Y-95323403D01*
X99542007Y-95294626D01*
X99635096Y-95089683D01*
X99657695Y-95000000D01*
X99690095Y-94871416D01*
X99690095Y-94871415D01*
X99690096Y-94871412D01*
X99700500Y-94739217D01*
X99700499Y-93535784D01*
X99690096Y-93403588D01*
X99690095Y-93403583D01*
X99635097Y-93185318D01*
X99542009Y-92980377D01*
X99542007Y-92980374D01*
X99522069Y-92951596D01*
X99505647Y-92917977D01*
X99500000Y-92880984D01*
X99500000Y-91500000D01*
X99417836Y-91500000D01*
X99361541Y-91486485D01*
X99317518Y-91448885D01*
X99295363Y-91395398D01*
X99299905Y-91337682D01*
X99330155Y-91288319D01*
X99413819Y-91204654D01*
X99491780Y-91092124D01*
X99542007Y-91019626D01*
X99635096Y-90814683D01*
X99636152Y-90810495D01*
X99690095Y-90596416D01*
X99690095Y-90596415D01*
X99690096Y-90596412D01*
X99700500Y-90464217D01*
X99700499Y-89260784D01*
X99690096Y-89128588D01*
X99690095Y-89128583D01*
X99635097Y-88910318D01*
X99542007Y-88705374D01*
X99413819Y-88520345D01*
X99254654Y-88361180D01*
X99069625Y-88232992D01*
X98864681Y-88139902D01*
X98646416Y-88084904D01*
X98570872Y-88078958D01*
X98514217Y-88074500D01*
X98514214Y-88074500D01*
X97385390Y-88074500D01*
X97337937Y-88065061D01*
X97297709Y-88038181D01*
X96269835Y-87010307D01*
X96259662Y-86998787D01*
X96245240Y-86980258D01*
X96178453Y-86918776D01*
X96174755Y-86915227D01*
X96154623Y-86895095D01*
X96132888Y-86876686D01*
X96129047Y-86873294D01*
X96062287Y-86811837D01*
X96042625Y-86798991D01*
X96030311Y-86789808D01*
X96012394Y-86774634D01*
X95934390Y-86728153D01*
X95930109Y-86725481D01*
X95878778Y-86691945D01*
X95854103Y-86675824D01*
X95832607Y-86666395D01*
X95818948Y-86659364D01*
X95798775Y-86647344D01*
X95746453Y-86626928D01*
X95714217Y-86614349D01*
X95709504Y-86612397D01*
X95681832Y-86600260D01*
X95626380Y-86575936D01*
X95603614Y-86570171D01*
X95588985Y-86565484D01*
X95567114Y-86556950D01*
X95478293Y-86538325D01*
X95473303Y-86537171D01*
X95385319Y-86514891D01*
X95361921Y-86512952D01*
X95346723Y-86510738D01*
X95323737Y-86505919D01*
X95301988Y-86505019D01*
X95233059Y-86502168D01*
X95227948Y-86501851D01*
X95204508Y-86499909D01*
X95199567Y-86499500D01*
X95199566Y-86499500D01*
X95171096Y-86499500D01*
X95165973Y-86499394D01*
X95162201Y-86499238D01*
X95075280Y-86495642D01*
X95051973Y-86498548D01*
X95036635Y-86499500D01*
X94824500Y-86499500D01*
X94762500Y-86482887D01*
X94717113Y-86437500D01*
X94700500Y-86375500D01*
X94700500Y-84928551D01*
X94692290Y-84813762D01*
X94685196Y-84714572D01*
X94635738Y-84487217D01*
X94624370Y-84434958D01*
X94620050Y-84423375D01*
X94524367Y-84166839D01*
X94397964Y-83935350D01*
X94387227Y-83915686D01*
X94298694Y-83797420D01*
X94215739Y-83686605D01*
X94013395Y-83484261D01*
X93868107Y-83375500D01*
X93784313Y-83312772D01*
X93533163Y-83175634D01*
X93533162Y-83175633D01*
X93533161Y-83175633D01*
X93265046Y-83075631D01*
X93265041Y-83075629D01*
X92985429Y-83014804D01*
X92771449Y-82999500D01*
X92771448Y-82999500D01*
X90628552Y-82999500D01*
X90628551Y-82999500D01*
X90414570Y-83014804D01*
X90134958Y-83075629D01*
X89866836Y-83175634D01*
X89615686Y-83312772D01*
X89386602Y-83484263D01*
X89184263Y-83686602D01*
X89123767Y-83767416D01*
X89076011Y-83805899D01*
X89015654Y-83816789D01*
X88957460Y-83797420D01*
X88915668Y-83752532D01*
X88900500Y-83693105D01*
X88900500Y-66424760D01*
X88900528Y-66424616D01*
X88900524Y-66424616D01*
X88900539Y-66400002D01*
X88900541Y-66400000D01*
X88900462Y-66399808D01*
X88900384Y-66399618D01*
X88900380Y-66399614D01*
X88900194Y-66399538D01*
X88900002Y-66399459D01*
X88875446Y-66399459D01*
X88875240Y-66399500D01*
X68924760Y-66399500D01*
X68924554Y-66399459D01*
X68899998Y-66399459D01*
X68899807Y-66399538D01*
X68899619Y-66399615D01*
X68899615Y-66399618D01*
X68899459Y-66399999D01*
X68899476Y-66424616D01*
X68899471Y-66424616D01*
X68899500Y-66424760D01*
X68899500Y-84312429D01*
X68880959Y-84377655D01*
X68830880Y-84423375D01*
X68764239Y-84435917D01*
X68700966Y-84411529D01*
X68659983Y-84357505D01*
X68652656Y-84338727D01*
X68609489Y-84266283D01*
X68525365Y-84125103D01*
X68364650Y-83935349D01*
X68174896Y-83774634D01*
X67961272Y-83647343D01*
X67729615Y-83556950D01*
X67689068Y-83548448D01*
X67599052Y-83529574D01*
X67548338Y-83506068D01*
X67513100Y-83462674D01*
X67500500Y-83408214D01*
X67500500Y-82689001D01*
X67500499Y-82688989D01*
X67500499Y-82449991D01*
X67489999Y-82347203D01*
X67489998Y-82347202D01*
X67434814Y-82180666D01*
X67342712Y-82031344D01*
X67342711Y-82031342D01*
X67218657Y-81907288D01*
X67069334Y-81815186D01*
X66902797Y-81760000D01*
X66800009Y-81749500D01*
X66528508Y-81749500D01*
X66522229Y-81749341D01*
X66497183Y-81748071D01*
X66449064Y-81745631D01*
X66449063Y-81745631D01*
X66433131Y-81748071D01*
X66414361Y-81749500D01*
X66199991Y-81749500D01*
X66097203Y-81760000D01*
X65930665Y-81815186D01*
X65781342Y-81907288D01*
X65657288Y-82031342D01*
X65565186Y-82180665D01*
X65510000Y-82347202D01*
X65499500Y-82449991D01*
X65499500Y-83375500D01*
X65482887Y-83437500D01*
X65437500Y-83482887D01*
X65375500Y-83499500D01*
X65217158Y-83499500D01*
X65134442Y-83504635D01*
X65113762Y-83505919D01*
X64870383Y-83556950D01*
X64638727Y-83647343D01*
X64425103Y-83774634D01*
X64235349Y-83935349D01*
X64074634Y-84125103D01*
X63947343Y-84338727D01*
X63856950Y-84570383D01*
X63826717Y-84714572D01*
X63805919Y-84813763D01*
X63799500Y-84917158D01*
X63799500Y-91082842D01*
X63803967Y-91154795D01*
X63805919Y-91186237D01*
X63856950Y-91429616D01*
X63947343Y-91661272D01*
X64074634Y-91874896D01*
X64235349Y-92064650D01*
X64425103Y-92225365D01*
X64638727Y-92352656D01*
X64870386Y-92443050D01*
X65113763Y-92494081D01*
X65217158Y-92500500D01*
X65912882Y-92500500D01*
X65960335Y-92509939D01*
X66000563Y-92536819D01*
X67551563Y-94087819D01*
X67581813Y-94137182D01*
X67586355Y-94194898D01*
X67564200Y-94248385D01*
X67520177Y-94285985D01*
X67463882Y-94299500D01*
X67099991Y-94299500D01*
X66997203Y-94310000D01*
X66830665Y-94365186D01*
X66681342Y-94457288D01*
X66587681Y-94550950D01*
X66532094Y-94583044D01*
X66467906Y-94583044D01*
X66412319Y-94550950D01*
X66318657Y-94457288D01*
X66169334Y-94365186D01*
X66002797Y-94310000D01*
X65900009Y-94299500D01*
X65099991Y-94299500D01*
X64997203Y-94310000D01*
X64830665Y-94365186D01*
X64681344Y-94457287D01*
X64587680Y-94550951D01*
X64532092Y-94583044D01*
X64467905Y-94583044D01*
X64412319Y-94550951D01*
X64318656Y-94457288D01*
X64318655Y-94457287D01*
X64318654Y-94457286D01*
X64169334Y-94365186D01*
X64002797Y-94310000D01*
X63900009Y-94299500D01*
X63099991Y-94299500D01*
X62997203Y-94310000D01*
X62830665Y-94365186D01*
X62681342Y-94457288D01*
X62675450Y-94463181D01*
X62635222Y-94490061D01*
X62587769Y-94499500D01*
X61014262Y-94499500D01*
X61011121Y-94499460D01*
X61009839Y-94499427D01*
X60923637Y-94497242D01*
X60865580Y-94507648D01*
X60856251Y-94508957D01*
X60797562Y-94514926D01*
X60768527Y-94524035D01*
X60753290Y-94527774D01*
X60723350Y-94533141D01*
X60668567Y-94555022D01*
X60659698Y-94558179D01*
X60603410Y-94575841D01*
X60576809Y-94590605D01*
X60562639Y-94597335D01*
X60534385Y-94608622D01*
X60485121Y-94641087D01*
X60477070Y-94645964D01*
X60425498Y-94674590D01*
X60402414Y-94694407D01*
X60389887Y-94703853D01*
X60364481Y-94720598D01*
X60322775Y-94762303D01*
X60315868Y-94768704D01*
X60271103Y-94807135D01*
X60252480Y-94831193D01*
X60242108Y-94842969D01*
X58302645Y-96782433D01*
X58300398Y-96784624D01*
X58236948Y-96844940D01*
X58203244Y-96893362D01*
X58197573Y-96900882D01*
X58160301Y-96946593D01*
X58146210Y-96973566D01*
X58138082Y-96986983D01*
X58120705Y-97011950D01*
X58097439Y-97066165D01*
X58093399Y-97074671D01*
X58066090Y-97126952D01*
X58057720Y-97156201D01*
X58052459Y-97170978D01*
X58040460Y-97198942D01*
X58028587Y-97256713D01*
X58026342Y-97265860D01*
X58010113Y-97322580D01*
X58007802Y-97352925D01*
X58005622Y-97368466D01*
X57999500Y-97398259D01*
X57999500Y-97457242D01*
X57999142Y-97466656D01*
X57994663Y-97525477D01*
X57998506Y-97555651D01*
X57999500Y-97571317D01*
X57999500Y-112534218D01*
X57990061Y-112581671D01*
X57963181Y-112621899D01*
X53302646Y-117282432D01*
X53300399Y-117284623D01*
X53236948Y-117344939D01*
X53203244Y-117393362D01*
X53197573Y-117400882D01*
X53160301Y-117446593D01*
X53146210Y-117473566D01*
X53138082Y-117486983D01*
X53120705Y-117511950D01*
X53097439Y-117566165D01*
X53093399Y-117574671D01*
X53066090Y-117626952D01*
X53057720Y-117656201D01*
X53052459Y-117670978D01*
X53040460Y-117698942D01*
X53028587Y-117756713D01*
X53026342Y-117765860D01*
X53010113Y-117822580D01*
X53007802Y-117852925D01*
X53005622Y-117868468D01*
X52997084Y-117910015D01*
X52971816Y-117963302D01*
X52924790Y-117998889D01*
X52866643Y-118008728D01*
X52810526Y-117990593D01*
X52769334Y-117965186D01*
X52602797Y-117910000D01*
X52500009Y-117899500D01*
X51499991Y-117899500D01*
X51397203Y-117910000D01*
X51230665Y-117965186D01*
X51081342Y-118057288D01*
X50957288Y-118181342D01*
X50865186Y-118330665D01*
X50810000Y-118497202D01*
X50799500Y-118599990D01*
X50799500Y-119400008D01*
X50810000Y-119502796D01*
X50865186Y-119669334D01*
X50957286Y-119818654D01*
X50957287Y-119818655D01*
X50957288Y-119818656D01*
X51050951Y-119912319D01*
X51083044Y-119967905D01*
X51083044Y-120032092D01*
X51050951Y-120087680D01*
X50957287Y-120181344D01*
X50865186Y-120330665D01*
X50810000Y-120497202D01*
X50799500Y-120599990D01*
X50799500Y-121400008D01*
X50810000Y-121502796D01*
X50865186Y-121669334D01*
X50957288Y-121818657D01*
X51081342Y-121942711D01*
X51081344Y-121942712D01*
X51230666Y-122034814D01*
X51342016Y-122071712D01*
X51397202Y-122089999D01*
X51406729Y-122090972D01*
X51499991Y-122100500D01*
X51846348Y-122100499D01*
X51893801Y-122109938D01*
X51934029Y-122136818D01*
X52120598Y-122323387D01*
X52127425Y-122330792D01*
X52148207Y-122355259D01*
X52161663Y-122371100D01*
X52224806Y-122419100D01*
X52227366Y-122421101D01*
X52286527Y-122468656D01*
X52289336Y-122470914D01*
X52308823Y-122483001D01*
X52308933Y-122483052D01*
X52308936Y-122483054D01*
X52380969Y-122516380D01*
X52383943Y-122517806D01*
X52455092Y-122553092D01*
X52476716Y-122560706D01*
X52476831Y-122560731D01*
X52476833Y-122560732D01*
X52554291Y-122577781D01*
X52557554Y-122578546D01*
X52634613Y-122597711D01*
X52657385Y-122600500D01*
X52657503Y-122600500D01*
X52736773Y-122600500D01*
X52740130Y-122600545D01*
X52819432Y-122602693D01*
X52819433Y-122602692D01*
X52819551Y-122602696D01*
X52842650Y-122600500D01*
X53258804Y-122600500D01*
X53323900Y-122618961D01*
X53430666Y-122684814D01*
X53542017Y-122721712D01*
X53597202Y-122739999D01*
X53699991Y-122750500D01*
X53700500Y-122750500D01*
X53700813Y-122750584D01*
X53706275Y-122751142D01*
X53706184Y-122752023D01*
X53762500Y-122767113D01*
X53807887Y-122812500D01*
X53824500Y-122874500D01*
X53824500Y-125170500D01*
X53807887Y-125232500D01*
X53762500Y-125277887D01*
X53700500Y-125294500D01*
X53634306Y-125294500D01*
X53622014Y-125295467D01*
X53597427Y-125297402D01*
X53439602Y-125343255D01*
X53298134Y-125426919D01*
X53181919Y-125543134D01*
X53098255Y-125684602D01*
X53052402Y-125842427D01*
X53049500Y-125879308D01*
X53049500Y-126310692D01*
X53052402Y-126347572D01*
X53098255Y-126505397D01*
X53189893Y-126660348D01*
X53188319Y-126661278D01*
X53209467Y-126697906D01*
X53209467Y-126762094D01*
X53188319Y-126798721D01*
X53189893Y-126799652D01*
X53098255Y-126954602D01*
X53052402Y-127112427D01*
X53049500Y-127149308D01*
X53049500Y-127580692D01*
X53052402Y-127617572D01*
X53098255Y-127775397D01*
X53189893Y-127930348D01*
X53188319Y-127931278D01*
X53209467Y-127967906D01*
X53209467Y-128032094D01*
X53188319Y-128068721D01*
X53189893Y-128069652D01*
X53098255Y-128224602D01*
X53052402Y-128382427D01*
X53049500Y-128419308D01*
X53049500Y-128850692D01*
X53052402Y-128887572D01*
X53098255Y-129045397D01*
X53098256Y-129045398D01*
X53181919Y-129186865D01*
X53298135Y-129303081D01*
X53382772Y-129353135D01*
X53439602Y-129386744D01*
X53597427Y-129432597D01*
X53597431Y-129432598D01*
X53634306Y-129435500D01*
X55415692Y-129435500D01*
X55415694Y-129435500D01*
X55452569Y-129432598D01*
X55610398Y-129386744D01*
X55610398Y-129386743D01*
X55612381Y-129385572D01*
X55674528Y-129368309D01*
X55736938Y-129384595D01*
X55782725Y-129430025D01*
X55799500Y-129492305D01*
X55799500Y-129658481D01*
X55790061Y-129705934D01*
X55763181Y-129746162D01*
X54022290Y-131487051D01*
X54016838Y-131492183D01*
X53971816Y-131532070D01*
X53937649Y-131581568D01*
X53933213Y-131587597D01*
X53896121Y-131634942D01*
X53891961Y-131644186D01*
X53880941Y-131663725D01*
X53875182Y-131672069D01*
X53853853Y-131728305D01*
X53850989Y-131735219D01*
X53826303Y-131790070D01*
X53824475Y-131800047D01*
X53818454Y-131821648D01*
X53814859Y-131831128D01*
X53807609Y-131890827D01*
X53806483Y-131898226D01*
X53795641Y-131957391D01*
X53799274Y-132017434D01*
X53799500Y-132024921D01*
X53799500Y-132524074D01*
X53789488Y-132572887D01*
X53761070Y-132613817D01*
X53718834Y-132640256D01*
X53662669Y-132661204D01*
X53547454Y-132747454D01*
X53461204Y-132862668D01*
X53410909Y-132997516D01*
X53404500Y-133057130D01*
X53404500Y-135942869D01*
X53410909Y-136002484D01*
X53426729Y-136044898D01*
X53461204Y-136137331D01*
X53547454Y-136252546D01*
X53597146Y-136289746D01*
X53639017Y-136345679D01*
X53644001Y-136415370D01*
X53610516Y-136476693D01*
X52689028Y-137398181D01*
X52648800Y-137425061D01*
X52601347Y-137434500D01*
X51317130Y-137434500D01*
X51257515Y-137440909D01*
X51122669Y-137491204D01*
X51007454Y-137577454D01*
X50921204Y-137692668D01*
X50870909Y-137827516D01*
X50864500Y-137887130D01*
X50864500Y-140772869D01*
X50870909Y-140832484D01*
X50890497Y-140885001D01*
X50921204Y-140967331D01*
X50969831Y-141032288D01*
X50983787Y-141050931D01*
X51004842Y-141095264D01*
X51007048Y-141144292D01*
X50990060Y-141190336D01*
X50965187Y-141230663D01*
X50910000Y-141397202D01*
X50899500Y-141499990D01*
X50899500Y-142500008D01*
X50910000Y-142602796D01*
X50965186Y-142769334D01*
X51057288Y-142918657D01*
X51181342Y-143042711D01*
X51193969Y-143050499D01*
X51330666Y-143134814D01*
X51442016Y-143171712D01*
X51497202Y-143189999D01*
X51507702Y-143191071D01*
X51599991Y-143200500D01*
X52400008Y-143200499D01*
X52502797Y-143189999D01*
X52669334Y-143134814D01*
X52818656Y-143042712D01*
X52912320Y-142949047D01*
X52967906Y-142916955D01*
X53032093Y-142916955D01*
X53087681Y-142949049D01*
X53113181Y-142974549D01*
X53140061Y-143014777D01*
X53149500Y-143062230D01*
X53149500Y-143462769D01*
X53140061Y-143510222D01*
X53113181Y-143550450D01*
X53107288Y-143556342D01*
X53015186Y-143705665D01*
X52960000Y-143872202D01*
X52949500Y-143974990D01*
X52949500Y-145025008D01*
X52960000Y-145127796D01*
X53015186Y-145294334D01*
X53107288Y-145443657D01*
X53231342Y-145567711D01*
X53287895Y-145602592D01*
X53380666Y-145659814D01*
X53492017Y-145696712D01*
X53547202Y-145714999D01*
X53557703Y-145716071D01*
X53649991Y-145725500D01*
X54425008Y-145725499D01*
X54527797Y-145714999D01*
X54694334Y-145659814D01*
X54843656Y-145567712D01*
X54967712Y-145443656D01*
X55059814Y-145294334D01*
X55114999Y-145127797D01*
X55125500Y-145025009D01*
X55125499Y-143974992D01*
X55114999Y-143872203D01*
X55059814Y-143705666D01*
X55008562Y-143622573D01*
X54967713Y-143556345D01*
X54933939Y-143522571D01*
X54886816Y-143475448D01*
X54859939Y-143435223D01*
X54850500Y-143387770D01*
X54850500Y-143062230D01*
X54859939Y-143014777D01*
X54886816Y-142974551D01*
X54942712Y-142918656D01*
X54948418Y-142909404D01*
X54993526Y-142866223D01*
X55053958Y-142850500D01*
X58430652Y-142850500D01*
X58488062Y-142864590D01*
X58591561Y-142918654D01*
X58630405Y-142938944D01*
X58673863Y-142976732D01*
X58695564Y-143030076D01*
X58690828Y-143087470D01*
X58660675Y-143136534D01*
X57926610Y-143870599D01*
X57919208Y-143877424D01*
X57878898Y-143911664D01*
X57830922Y-143974773D01*
X57828859Y-143977412D01*
X57779086Y-144039335D01*
X57766998Y-144058824D01*
X57733644Y-144130916D01*
X57732194Y-144133941D01*
X57696908Y-144205090D01*
X57689293Y-144226719D01*
X57672219Y-144304283D01*
X57671453Y-144307549D01*
X57652289Y-144384610D01*
X57649500Y-144407390D01*
X57649500Y-144486773D01*
X57649455Y-144490130D01*
X57647303Y-144569551D01*
X57649500Y-144592650D01*
X57649500Y-147108615D01*
X57664485Y-147246408D01*
X57693009Y-147331062D01*
X57699500Y-147370656D01*
X57699500Y-147575500D01*
X57682887Y-147637500D01*
X57637500Y-147682887D01*
X57575500Y-147699500D01*
X57334306Y-147699500D01*
X57322014Y-147700467D01*
X57297427Y-147702402D01*
X57139602Y-147748255D01*
X56998134Y-147831919D01*
X56966873Y-147863181D01*
X56926645Y-147890061D01*
X56879192Y-147899500D01*
X55741196Y-147899500D01*
X55676100Y-147881039D01*
X55569334Y-147815186D01*
X55402797Y-147760000D01*
X55309535Y-147750473D01*
X55300008Y-147749500D01*
X54699991Y-147749500D01*
X54597203Y-147760000D01*
X54430665Y-147815186D01*
X54281342Y-147907288D01*
X54157288Y-148031342D01*
X54065186Y-148180665D01*
X54010000Y-148347202D01*
X53999500Y-148449991D01*
X53999500Y-149051415D01*
X54000000Y-149061210D01*
X54000000Y-150938779D01*
X53999500Y-150948594D01*
X53999500Y-151985721D01*
X53999460Y-151988863D01*
X53997242Y-152076362D01*
X54007648Y-152134420D01*
X54008957Y-152143749D01*
X54014926Y-152202438D01*
X54024033Y-152231467D01*
X54027772Y-152246702D01*
X54033141Y-152276652D01*
X54055020Y-152331425D01*
X54058180Y-152340300D01*
X54075841Y-152396588D01*
X54090607Y-152423191D01*
X54097337Y-152437364D01*
X54108622Y-152465617D01*
X54141080Y-152514867D01*
X54145961Y-152522923D01*
X54174590Y-152574501D01*
X54194404Y-152597581D01*
X54203856Y-152610116D01*
X54220599Y-152635520D01*
X54262300Y-152677221D01*
X54268705Y-152684132D01*
X54307130Y-152728891D01*
X54307131Y-152728892D01*
X54307134Y-152728895D01*
X54331198Y-152747522D01*
X54342968Y-152757889D01*
X55282449Y-153697370D01*
X55284642Y-153699619D01*
X55344941Y-153763053D01*
X55393358Y-153796752D01*
X55400865Y-153802413D01*
X55446593Y-153839698D01*
X55473556Y-153853782D01*
X55486980Y-153861915D01*
X55511951Y-153879295D01*
X55566163Y-153902559D01*
X55574663Y-153906595D01*
X55610851Y-153925499D01*
X55626951Y-153933909D01*
X55656196Y-153942277D01*
X55670986Y-153947543D01*
X55678464Y-153950752D01*
X55698942Y-153959540D01*
X55756737Y-153971416D01*
X55765854Y-153973654D01*
X55822582Y-153989887D01*
X55852916Y-153992196D01*
X55868453Y-153994374D01*
X55898259Y-154000500D01*
X55957243Y-154000500D01*
X55966657Y-154000858D01*
X56025477Y-154005337D01*
X56055652Y-154001493D01*
X56071318Y-154000500D01*
X59034217Y-154000500D01*
X59081670Y-154009939D01*
X59121898Y-154036819D01*
X60963181Y-155878101D01*
X60990061Y-155918329D01*
X60999500Y-155965782D01*
X60999500Y-162485721D01*
X60999460Y-162488863D01*
X60997242Y-162576362D01*
X61007648Y-162634420D01*
X61008957Y-162643749D01*
X61014926Y-162702438D01*
X61024033Y-162731467D01*
X61027772Y-162746702D01*
X61033141Y-162776652D01*
X61055020Y-162831425D01*
X61058180Y-162840300D01*
X61075841Y-162896588D01*
X61090607Y-162923191D01*
X61097337Y-162937364D01*
X61108622Y-162965617D01*
X61141080Y-163014867D01*
X61145961Y-163022923D01*
X61174590Y-163074501D01*
X61194404Y-163097581D01*
X61203856Y-163110116D01*
X61220599Y-163135520D01*
X61262300Y-163177221D01*
X61268705Y-163184132D01*
X61307130Y-163228891D01*
X61307131Y-163228892D01*
X61307134Y-163228895D01*
X61331198Y-163247522D01*
X61342968Y-163257889D01*
X64319949Y-166234870D01*
X64322142Y-166237119D01*
X64382441Y-166300553D01*
X64430858Y-166334252D01*
X64438365Y-166339913D01*
X64484093Y-166377198D01*
X64503783Y-166387483D01*
X64511056Y-166391282D01*
X64524480Y-166399415D01*
X64549451Y-166416795D01*
X64603663Y-166440059D01*
X64612163Y-166444095D01*
X64664451Y-166471409D01*
X64693696Y-166479777D01*
X64708486Y-166485043D01*
X64715964Y-166488252D01*
X64736442Y-166497040D01*
X64794237Y-166508916D01*
X64803354Y-166511154D01*
X64860082Y-166527387D01*
X64890416Y-166529696D01*
X64905953Y-166531874D01*
X64935759Y-166538000D01*
X64994743Y-166538000D01*
X65004157Y-166538358D01*
X65062977Y-166542837D01*
X65093152Y-166538993D01*
X65108818Y-166538000D01*
X72635133Y-166538000D01*
X72700229Y-166556461D01*
X72705664Y-166559813D01*
X72705666Y-166559814D01*
X72789667Y-166587649D01*
X72872202Y-166614999D01*
X72881729Y-166615972D01*
X72974991Y-166625500D01*
X73166988Y-166625499D01*
X73204109Y-166631185D01*
X73237825Y-166647724D01*
X73254447Y-166659293D01*
X73254449Y-166659294D01*
X73254451Y-166659295D01*
X73308663Y-166682559D01*
X73317163Y-166686595D01*
X73369450Y-166713908D01*
X73369451Y-166713909D01*
X73398696Y-166722277D01*
X73413486Y-166727543D01*
X73420964Y-166730752D01*
X73441442Y-166739540D01*
X73499237Y-166751416D01*
X73508354Y-166753654D01*
X73565082Y-166769887D01*
X73595416Y-166772196D01*
X73610953Y-166774374D01*
X73640759Y-166780500D01*
X73699742Y-166780500D01*
X73709156Y-166780858D01*
X73767976Y-166785337D01*
X73798151Y-166781493D01*
X73813817Y-166780500D01*
X79038015Y-166780500D01*
X79038025Y-166780499D01*
X80597870Y-166780499D01*
X80597872Y-166780499D01*
X80657483Y-166774091D01*
X80792331Y-166723796D01*
X80907546Y-166637546D01*
X80993796Y-166522331D01*
X81044091Y-166387483D01*
X81050500Y-166327873D01*
X81050499Y-165232128D01*
X81044091Y-165172517D01*
X80993796Y-165037669D01*
X80907546Y-164922454D01*
X80792331Y-164836204D01*
X80657483Y-164785909D01*
X80597873Y-164779500D01*
X80597869Y-164779500D01*
X74666622Y-164779500D01*
X74606188Y-164763776D01*
X74580433Y-164739119D01*
X74577961Y-164741592D01*
X74443657Y-164607288D01*
X74294334Y-164515186D01*
X74127797Y-164460000D01*
X74025009Y-164449500D01*
X72974991Y-164449500D01*
X72872203Y-164460000D01*
X72705664Y-164515186D01*
X72700229Y-164518539D01*
X72635133Y-164537000D01*
X65503282Y-164537000D01*
X65455829Y-164527561D01*
X65415601Y-164500681D01*
X64702789Y-163787869D01*
X76899500Y-163787869D01*
X76905909Y-163847483D01*
X76956204Y-163982331D01*
X77042454Y-164097546D01*
X77157669Y-164183796D01*
X77292517Y-164234091D01*
X77352127Y-164240500D01*
X80597872Y-164240499D01*
X80657483Y-164234091D01*
X80792331Y-164183796D01*
X80907546Y-164097546D01*
X80993796Y-163982331D01*
X81044091Y-163847483D01*
X81050500Y-163787873D01*
X81050500Y-163787869D01*
X81949500Y-163787869D01*
X81955909Y-163847483D01*
X82006204Y-163982331D01*
X82092454Y-164097546D01*
X82207669Y-164183796D01*
X82342517Y-164234091D01*
X82402127Y-164240500D01*
X85647872Y-164240499D01*
X85707483Y-164234091D01*
X85842331Y-164183796D01*
X85957546Y-164097546D01*
X86043796Y-163982331D01*
X86094091Y-163847483D01*
X86100500Y-163787873D01*
X86100499Y-162692128D01*
X86094091Y-162632517D01*
X86043796Y-162497669D01*
X85957546Y-162382454D01*
X85842331Y-162296204D01*
X85707483Y-162245909D01*
X85647873Y-162239500D01*
X85647869Y-162239500D01*
X82402130Y-162239500D01*
X82342515Y-162245909D01*
X82207669Y-162296204D01*
X82092454Y-162382454D01*
X82006204Y-162497668D01*
X81955909Y-162632516D01*
X81949500Y-162692130D01*
X81949500Y-163787869D01*
X81050500Y-163787869D01*
X81050499Y-162692128D01*
X81044091Y-162632517D01*
X80993796Y-162497669D01*
X80907546Y-162382454D01*
X80792331Y-162296204D01*
X80657483Y-162245909D01*
X80597873Y-162239500D01*
X80597869Y-162239500D01*
X77352130Y-162239500D01*
X77292515Y-162245909D01*
X77157669Y-162296204D01*
X77042454Y-162382454D01*
X76956204Y-162497668D01*
X76905909Y-162632516D01*
X76899500Y-162692130D01*
X76899500Y-163787869D01*
X64702789Y-163787869D01*
X63036819Y-162121899D01*
X63009939Y-162081671D01*
X63000500Y-162034218D01*
X63000500Y-155624000D01*
X63017113Y-155562000D01*
X63062500Y-155516613D01*
X63124500Y-155500000D01*
X66143216Y-155500000D01*
X66148133Y-155500500D01*
X66158259Y-155500500D01*
X66217243Y-155500500D01*
X66226657Y-155500858D01*
X66285477Y-155505337D01*
X66315652Y-155501493D01*
X66331318Y-155500500D01*
X69534217Y-155500500D01*
X69581670Y-155509939D01*
X69621898Y-155536819D01*
X70782450Y-156697371D01*
X70784643Y-156699620D01*
X70844941Y-156763053D01*
X70859031Y-156772860D01*
X70893352Y-156796748D01*
X70900876Y-156802421D01*
X70946594Y-156839699D01*
X70973555Y-156853782D01*
X70986980Y-156861915D01*
X71011951Y-156879295D01*
X71066163Y-156902559D01*
X71074673Y-156906601D01*
X71126951Y-156933909D01*
X71156200Y-156942277D01*
X71170970Y-156947535D01*
X71198942Y-156959540D01*
X71198945Y-156959540D01*
X71198946Y-156959541D01*
X71256726Y-156971414D01*
X71265869Y-156973657D01*
X71322582Y-156989886D01*
X71352920Y-156992196D01*
X71368448Y-156994373D01*
X71398259Y-157000500D01*
X71457244Y-157000500D01*
X71466659Y-157000858D01*
X71470806Y-157001173D01*
X71525476Y-157005337D01*
X71552278Y-157001923D01*
X71555652Y-157001494D01*
X71571317Y-157000500D01*
X77850500Y-157000500D01*
X77912500Y-157017113D01*
X77957887Y-157062500D01*
X77974500Y-157124500D01*
X77974500Y-159575501D01*
X77957887Y-159637501D01*
X77912500Y-159682888D01*
X77850500Y-159699501D01*
X77352128Y-159699501D01*
X77322322Y-159702705D01*
X77292515Y-159705909D01*
X77157669Y-159756204D01*
X77042454Y-159842454D01*
X76956204Y-159957668D01*
X76905909Y-160092516D01*
X76899500Y-160152130D01*
X76899500Y-161247869D01*
X76905909Y-161307483D01*
X76956204Y-161442331D01*
X77042454Y-161557546D01*
X77157669Y-161643796D01*
X77292517Y-161694091D01*
X77352127Y-161700500D01*
X78946487Y-161700499D01*
X78952768Y-161700658D01*
X79025935Y-161704369D01*
X79025935Y-161704368D01*
X79025936Y-161704369D01*
X79041860Y-161701929D01*
X79060641Y-161700499D01*
X80597870Y-161700499D01*
X80597872Y-161700499D01*
X80657483Y-161694091D01*
X80792331Y-161643796D01*
X80907546Y-161557546D01*
X80993796Y-161442331D01*
X81044091Y-161307483D01*
X81050500Y-161247873D01*
X81050499Y-160152128D01*
X81044091Y-160092517D01*
X80993796Y-159957669D01*
X80907546Y-159842454D01*
X80792331Y-159756204D01*
X80657483Y-159705909D01*
X80597873Y-159699500D01*
X80597869Y-159699500D01*
X80099500Y-159699500D01*
X80037500Y-159682887D01*
X79992113Y-159637500D01*
X79975500Y-159575500D01*
X79975500Y-156937000D01*
X79992113Y-156875000D01*
X80037500Y-156829613D01*
X80099500Y-156813000D01*
X80577695Y-156813000D01*
X80588509Y-156810531D01*
X80615020Y-156804480D01*
X80628697Y-156802155D01*
X80666755Y-156797868D01*
X80702899Y-156785220D01*
X80716221Y-156781382D01*
X80753561Y-156772860D01*
X80788049Y-156756250D01*
X80800891Y-156750931D01*
X80837022Y-156738289D01*
X80869432Y-156717923D01*
X80881603Y-156711197D01*
X80916087Y-156694591D01*
X80946015Y-156670722D01*
X80957334Y-156662690D01*
X80989762Y-156642316D01*
X81117316Y-156514762D01*
X81117316Y-156514761D01*
X82362818Y-155269259D01*
X82412182Y-155239009D01*
X82469898Y-155234467D01*
X82523385Y-155256622D01*
X82560985Y-155300645D01*
X82574500Y-155356940D01*
X82574500Y-159575501D01*
X82557887Y-159637501D01*
X82512500Y-159682888D01*
X82450500Y-159699501D01*
X82402128Y-159699501D01*
X82372322Y-159702705D01*
X82342515Y-159705909D01*
X82207669Y-159756204D01*
X82092454Y-159842454D01*
X82006204Y-159957668D01*
X81955909Y-160092516D01*
X81949500Y-160152130D01*
X81949500Y-161247869D01*
X81955909Y-161307483D01*
X82006204Y-161442331D01*
X82092454Y-161557546D01*
X82207669Y-161643796D01*
X82342517Y-161694091D01*
X82402127Y-161700500D01*
X85647872Y-161700499D01*
X85707483Y-161694091D01*
X85842331Y-161643796D01*
X85957546Y-161557546D01*
X86043796Y-161442331D01*
X86094091Y-161307483D01*
X86100500Y-161247873D01*
X86100499Y-160152128D01*
X86094091Y-160092517D01*
X86043796Y-159957669D01*
X85957546Y-159842454D01*
X85842331Y-159756204D01*
X85707483Y-159705909D01*
X85647873Y-159699500D01*
X85647869Y-159699500D01*
X84299500Y-159699500D01*
X84237500Y-159682887D01*
X84192113Y-159637500D01*
X84175500Y-159575500D01*
X84175500Y-153065754D01*
X84499500Y-153065754D01*
X84510026Y-153184161D01*
X84562528Y-153367646D01*
X84565546Y-153378191D01*
X84658985Y-153557071D01*
X84786520Y-153713480D01*
X84942929Y-153841015D01*
X84993398Y-153867378D01*
X85036853Y-153905162D01*
X85058554Y-153958506D01*
X85053818Y-154015900D01*
X85023666Y-154064965D01*
X84932287Y-154156344D01*
X84840186Y-154305665D01*
X84785000Y-154472202D01*
X84774500Y-154574990D01*
X84774500Y-155350008D01*
X84785000Y-155452796D01*
X84840186Y-155619334D01*
X84932288Y-155768657D01*
X85056342Y-155892711D01*
X85056344Y-155892712D01*
X85205666Y-155984814D01*
X85317016Y-156021712D01*
X85372202Y-156039999D01*
X85382702Y-156041071D01*
X85474991Y-156050500D01*
X86525008Y-156050499D01*
X86627797Y-156039999D01*
X86794334Y-155984814D01*
X86943656Y-155892712D01*
X87067712Y-155768656D01*
X87159814Y-155619334D01*
X87214999Y-155452797D01*
X87225500Y-155350009D01*
X87225499Y-154793334D01*
X87239014Y-154737041D01*
X87276614Y-154693018D01*
X87330101Y-154670863D01*
X87387817Y-154675405D01*
X87437180Y-154705655D01*
X87561186Y-154829661D01*
X87570452Y-154840029D01*
X87592493Y-154867667D01*
X87642387Y-154911259D01*
X87648482Y-154916957D01*
X87655470Y-154923945D01*
X87657333Y-154925500D01*
X87686789Y-154950092D01*
X87688904Y-154951899D01*
X87755534Y-155010113D01*
X87762004Y-155015765D01*
X87765763Y-155018011D01*
X87781624Y-155029265D01*
X87784981Y-155032068D01*
X87844944Y-155066092D01*
X87869450Y-155079997D01*
X87871854Y-155081397D01*
X87955236Y-155131215D01*
X87955239Y-155131216D01*
X87959323Y-155132749D01*
X87976953Y-155140996D01*
X87979736Y-155142575D01*
X87980755Y-155143153D01*
X88072468Y-155175245D01*
X88074998Y-155176162D01*
X88165976Y-155210307D01*
X88169972Y-155211032D01*
X88170269Y-155211086D01*
X88189088Y-155216053D01*
X88193217Y-155217498D01*
X88289251Y-155232707D01*
X88291847Y-155233149D01*
X88355369Y-155244677D01*
X88387452Y-155250500D01*
X88387453Y-155250500D01*
X88391830Y-155250500D01*
X88411226Y-155252026D01*
X88415540Y-155252710D01*
X88510299Y-155250583D01*
X88512622Y-155250531D01*
X88515404Y-155250500D01*
X91325500Y-155250500D01*
X91387500Y-155267113D01*
X91432887Y-155312500D01*
X91449500Y-155374500D01*
X91449500Y-156450008D01*
X91460000Y-156552797D01*
X91515186Y-156719336D01*
X91607288Y-156868655D01*
X91731344Y-156992711D01*
X91880663Y-157084813D01*
X92047202Y-157139999D01*
X92149992Y-157150500D01*
X93850008Y-157150500D01*
X93952797Y-157139999D01*
X93999570Y-157124500D01*
X94119334Y-157084814D01*
X94155511Y-157062500D01*
X94268655Y-156992711D01*
X94392711Y-156868655D01*
X94484813Y-156719336D01*
X94485281Y-156717926D01*
X94539999Y-156552797D01*
X94550500Y-156450008D01*
X94550500Y-155774500D01*
X94567113Y-155712500D01*
X94612500Y-155667113D01*
X94674500Y-155650500D01*
X100830664Y-155650500D01*
X100878117Y-155659939D01*
X100918345Y-155686819D01*
X105149990Y-159918464D01*
X105179019Y-159964256D01*
X105185736Y-160018056D01*
X105174154Y-160053405D01*
X105176078Y-160054156D01*
X105081950Y-160295383D01*
X105030919Y-160538762D01*
X105024500Y-160642162D01*
X105024500Y-162757838D01*
X105030919Y-162861237D01*
X105081950Y-163104616D01*
X105172343Y-163336272D01*
X105299634Y-163549896D01*
X105460349Y-163739650D01*
X105650103Y-163900365D01*
X105863727Y-164027656D01*
X106095386Y-164118050D01*
X106338763Y-164169081D01*
X106442158Y-164175500D01*
X108557838Y-164175500D01*
X108557842Y-164175500D01*
X108661237Y-164169081D01*
X108904614Y-164118050D01*
X109136273Y-164027656D01*
X109349894Y-163900366D01*
X109349893Y-163900366D01*
X109349896Y-163900365D01*
X109539650Y-163739650D01*
X109700365Y-163549896D01*
X109731353Y-163497890D01*
X109827656Y-163336273D01*
X109918050Y-163104614D01*
X109969081Y-162861237D01*
X109975500Y-162757842D01*
X109975500Y-160642158D01*
X109969081Y-160538763D01*
X109918050Y-160295386D01*
X109827656Y-160063727D01*
X109800442Y-160018056D01*
X109700365Y-159850103D01*
X109539650Y-159660349D01*
X109349896Y-159499634D01*
X109136272Y-159372343D01*
X108904616Y-159281950D01*
X108661237Y-159230919D01*
X108661236Y-159230918D01*
X108557842Y-159224500D01*
X108557838Y-159224500D01*
X108044336Y-159224500D01*
X107996883Y-159215061D01*
X107956655Y-159188181D01*
X102338816Y-153570342D01*
X102329550Y-153559974D01*
X102307506Y-153532332D01*
X102257603Y-153488732D01*
X102251507Y-153483033D01*
X102244527Y-153476053D01*
X102213255Y-153449945D01*
X102211140Y-153448139D01*
X102186809Y-153426882D01*
X102137996Y-153384235D01*
X102134236Y-153381988D01*
X102118370Y-153370730D01*
X102115018Y-153367931D01*
X102030548Y-153320001D01*
X102028145Y-153318601D01*
X101944765Y-153268785D01*
X101940671Y-153267249D01*
X101923046Y-153259003D01*
X101919245Y-153256847D01*
X101919244Y-153256846D01*
X101919243Y-153256846D01*
X101827568Y-153224767D01*
X101824954Y-153223819D01*
X101734028Y-153189694D01*
X101734025Y-153189693D01*
X101734024Y-153189693D01*
X101729721Y-153188911D01*
X101710917Y-153183948D01*
X101706782Y-153182501D01*
X101610847Y-153167306D01*
X101608106Y-153166840D01*
X101512550Y-153149500D01*
X101512547Y-153149500D01*
X101508170Y-153149500D01*
X101488773Y-153147973D01*
X101484460Y-153147290D01*
X101387358Y-153149469D01*
X101384578Y-153149500D01*
X94674500Y-153149500D01*
X94612500Y-153132887D01*
X94567113Y-153087500D01*
X94550500Y-153025500D01*
X94550500Y-152349992D01*
X94539999Y-152247202D01*
X94484813Y-152080663D01*
X94392711Y-151931344D01*
X94268655Y-151807288D01*
X94119336Y-151715186D01*
X93952797Y-151660000D01*
X93850008Y-151649500D01*
X92149992Y-151649500D01*
X92047202Y-151660000D01*
X91880663Y-151715186D01*
X91731344Y-151807288D01*
X91607288Y-151931344D01*
X91515187Y-152080662D01*
X91491937Y-152150826D01*
X91460824Y-152200577D01*
X91410320Y-152230453D01*
X91351734Y-152233763D01*
X91298186Y-152209766D01*
X91261668Y-152163835D01*
X91250356Y-152106257D01*
X91251237Y-152086655D01*
X91254290Y-152018670D01*
X91226620Y-151814408D01*
X91225499Y-151797764D01*
X91225499Y-151687491D01*
X91214999Y-151584703D01*
X91191430Y-151513577D01*
X91159814Y-151418166D01*
X91081172Y-151290666D01*
X91067711Y-151268842D01*
X90943657Y-151144788D01*
X90851554Y-151087979D01*
X90794334Y-151052686D01*
X90700166Y-151021481D01*
X90656142Y-151006893D01*
X90631548Y-150995635D01*
X90544762Y-150943784D01*
X90334025Y-150864693D01*
X90112547Y-150824500D01*
X88585947Y-150824500D01*
X88534176Y-150813175D01*
X88491861Y-150781270D01*
X88466731Y-150734612D01*
X88461494Y-150716311D01*
X88434454Y-150621809D01*
X88341015Y-150442929D01*
X88213480Y-150286520D01*
X88057071Y-150158985D01*
X87878191Y-150065546D01*
X87878190Y-150065545D01*
X87878189Y-150065545D01*
X87767755Y-150033946D01*
X87684163Y-150010027D01*
X87565755Y-149999500D01*
X87565752Y-149999500D01*
X85434245Y-149999500D01*
X85315838Y-150010026D01*
X85121810Y-150065545D01*
X85066613Y-150094378D01*
X84942929Y-150158985D01*
X84786520Y-150286520D01*
X84658985Y-150442929D01*
X84629178Y-150499992D01*
X84565545Y-150621810D01*
X84533269Y-150734612D01*
X84510027Y-150815837D01*
X84500306Y-150925186D01*
X84499500Y-150934247D01*
X84499500Y-153065754D01*
X84175500Y-153065754D01*
X84175500Y-149507940D01*
X84184939Y-149460487D01*
X84211819Y-149420259D01*
X85995259Y-147636819D01*
X86035487Y-147609939D01*
X86082940Y-147600500D01*
X117290195Y-147600500D01*
X117301009Y-147598031D01*
X117327520Y-147591980D01*
X117341197Y-147589655D01*
X117379255Y-147585368D01*
X117415399Y-147572720D01*
X117428721Y-147568882D01*
X117466061Y-147560360D01*
X117500549Y-147543750D01*
X117513391Y-147538431D01*
X117549522Y-147525789D01*
X117559521Y-147519505D01*
X117625494Y-147500499D01*
X118100009Y-147500499D01*
X118151402Y-147495249D01*
X118202797Y-147489999D01*
X118369334Y-147434814D01*
X118518656Y-147342712D01*
X118642712Y-147218656D01*
X118669961Y-147174477D01*
X118716014Y-147130774D01*
X118777663Y-147115593D01*
X118838745Y-147132915D01*
X118883246Y-147178200D01*
X118899500Y-147239574D01*
X118899500Y-154464218D01*
X118908218Y-154574990D01*
X118909904Y-154596412D01*
X118964903Y-154814685D01*
X119057993Y-155019628D01*
X119186179Y-155204654D01*
X119345345Y-155363820D01*
X119530371Y-155492006D01*
X119530372Y-155492006D01*
X119530373Y-155492007D01*
X119735316Y-155585097D01*
X119953587Y-155640096D01*
X119985730Y-155642625D01*
X120043535Y-155662248D01*
X120084973Y-155707075D01*
X120100000Y-155766243D01*
X120100000Y-160100000D01*
X129600000Y-160100000D01*
X130267073Y-159499634D01*
X130841853Y-158982331D01*
X130880380Y-158958731D01*
X130924805Y-158950500D01*
X145599500Y-158950500D01*
X145599503Y-158950500D01*
X145664285Y-158941185D01*
X145673034Y-158940245D01*
X145738294Y-158935578D01*
X145802213Y-158921672D01*
X145810920Y-158920101D01*
X145875668Y-158910793D01*
X145938443Y-158892359D01*
X145946984Y-158890179D01*
X146010923Y-158876271D01*
X146072231Y-158853403D01*
X146080571Y-158850627D01*
X146143371Y-158832189D01*
X146202894Y-158805004D01*
X146211040Y-158801631D01*
X146272337Y-158778769D01*
X146329748Y-158747419D01*
X146337651Y-158743462D01*
X146397163Y-158716285D01*
X146452193Y-158680918D01*
X146459800Y-158676405D01*
X146517213Y-158645056D01*
X146569568Y-158605862D01*
X146576841Y-158600813D01*
X146631874Y-158565446D01*
X146631874Y-158565445D01*
X146631877Y-158565444D01*
X146681321Y-158522598D01*
X146688200Y-158517055D01*
X146740568Y-158477855D01*
X146783725Y-158434696D01*
X146783738Y-158434686D01*
X147276605Y-157941819D01*
X147316833Y-157914939D01*
X147364286Y-157905500D01*
X148938940Y-157905500D01*
X148938943Y-157905500D01*
X149053583Y-157892329D01*
X149108360Y-157879574D01*
X149168771Y-157857988D01*
X149217025Y-157840748D01*
X149217027Y-157840747D01*
X149314056Y-157778289D01*
X149357564Y-157742648D01*
X149437900Y-157659813D01*
X149437899Y-157659813D01*
X149437903Y-157659810D01*
X150888140Y-155774500D01*
X151211681Y-155353895D01*
X151255189Y-155318255D01*
X151309966Y-155305500D01*
X152668520Y-155305500D01*
X152724975Y-155319097D01*
X152769049Y-155356906D01*
X152791077Y-155410635D01*
X152786227Y-155468501D01*
X152785000Y-155472201D01*
X152774500Y-155574990D01*
X152774500Y-156350008D01*
X152785000Y-156452796D01*
X152840186Y-156619334D01*
X152932288Y-156768657D01*
X153056342Y-156892711D01*
X153075319Y-156904416D01*
X153205666Y-156984814D01*
X153303138Y-157017113D01*
X153372202Y-157039999D01*
X153382703Y-157041071D01*
X153474991Y-157050500D01*
X154525008Y-157050499D01*
X154627797Y-157039999D01*
X154794334Y-156984814D01*
X154934904Y-156898109D01*
X155000000Y-156879649D01*
X155065095Y-156898109D01*
X155205666Y-156984814D01*
X155303138Y-157017113D01*
X155372202Y-157039999D01*
X155382703Y-157041071D01*
X155474991Y-157050500D01*
X156525008Y-157050499D01*
X156627797Y-157039999D01*
X156794334Y-156984814D01*
X156943656Y-156892712D01*
X157067712Y-156768656D01*
X157159814Y-156619334D01*
X157214999Y-156452797D01*
X157225500Y-156350009D01*
X157225499Y-155574992D01*
X157217838Y-155500000D01*
X157214999Y-155472203D01*
X157213774Y-155468506D01*
X157208922Y-155410638D01*
X157230949Y-155356908D01*
X157275023Y-155319097D01*
X157331479Y-155305500D01*
X157776001Y-155305500D01*
X157803747Y-155301846D01*
X157859314Y-155294531D01*
X157927904Y-155305088D01*
X157980080Y-155350845D01*
X157999500Y-155417470D01*
X157999500Y-168875500D01*
X157982887Y-168937500D01*
X157937500Y-168982887D01*
X157875500Y-168999500D01*
X50124500Y-168999500D01*
X50062500Y-168982887D01*
X50017113Y-168937500D01*
X50000500Y-168875500D01*
X50000500Y-101582842D01*
X51499500Y-101582842D01*
X51503043Y-101639904D01*
X51505919Y-101686237D01*
X51556950Y-101929616D01*
X51647343Y-102161272D01*
X51774634Y-102374896D01*
X51935349Y-102564650D01*
X52125103Y-102725365D01*
X52338727Y-102852656D01*
X52537095Y-102930060D01*
X52570386Y-102943050D01*
X52813763Y-102994081D01*
X52871785Y-102997683D01*
X52883184Y-102998391D01*
X52941885Y-103017420D01*
X52984146Y-103062386D01*
X52999500Y-103122153D01*
X52999500Y-105050008D01*
X53010000Y-105152796D01*
X53065186Y-105319334D01*
X53157288Y-105468657D01*
X53281342Y-105592711D01*
X53305807Y-105607801D01*
X53430666Y-105684814D01*
X53542016Y-105721712D01*
X53597202Y-105739999D01*
X53606729Y-105740972D01*
X53699991Y-105750500D01*
X53971488Y-105750499D01*
X53977769Y-105750658D01*
X54050935Y-105754369D01*
X54050935Y-105754368D01*
X54050936Y-105754369D01*
X54066862Y-105751928D01*
X54085641Y-105750499D01*
X54300009Y-105750499D01*
X54351402Y-105745248D01*
X54402797Y-105739999D01*
X54569334Y-105684814D01*
X54718656Y-105592712D01*
X54842712Y-105468656D01*
X54934814Y-105319334D01*
X54989999Y-105152797D01*
X55000500Y-105050009D01*
X55000500Y-104765144D01*
X55000500Y-103122153D01*
X55015854Y-103062386D01*
X55058115Y-103017420D01*
X55116816Y-102998391D01*
X55127617Y-102997720D01*
X55186237Y-102994081D01*
X55429614Y-102943050D01*
X55661273Y-102852656D01*
X55874894Y-102725366D01*
X55874893Y-102725366D01*
X55874896Y-102725365D01*
X56064650Y-102564650D01*
X56225365Y-102374896D01*
X56322701Y-102211544D01*
X56352656Y-102161273D01*
X56443050Y-101929614D01*
X56494081Y-101686237D01*
X56500500Y-101582842D01*
X56500500Y-99417158D01*
X56494081Y-99313763D01*
X56443050Y-99070386D01*
X56393303Y-98942897D01*
X56352656Y-98838727D01*
X56225365Y-98625103D01*
X56064652Y-98435352D01*
X56064648Y-98435349D01*
X56054801Y-98427008D01*
X56044358Y-98418163D01*
X56011998Y-98375687D01*
X56000500Y-98323541D01*
X56000500Y-90033123D01*
X56017113Y-89971123D01*
X56126282Y-89782036D01*
X56224844Y-89530904D01*
X56284876Y-89267887D01*
X56305037Y-88998860D01*
X56284876Y-88729833D01*
X56224844Y-88466816D01*
X56126282Y-88215684D01*
X55991392Y-87982046D01*
X55823186Y-87771123D01*
X55823185Y-87771122D01*
X55625424Y-87587626D01*
X55567902Y-87548408D01*
X55402519Y-87435652D01*
X55159454Y-87318598D01*
X55079933Y-87294069D01*
X54901658Y-87239078D01*
X54634892Y-87198870D01*
X54634891Y-87198870D01*
X54365109Y-87198870D01*
X54365108Y-87198870D01*
X54098341Y-87239078D01*
X53840546Y-87318598D01*
X53597484Y-87435650D01*
X53374576Y-87587626D01*
X53176814Y-87771123D01*
X53008607Y-87982047D01*
X52873717Y-88215685D01*
X52775156Y-88466813D01*
X52715123Y-88729834D01*
X52694962Y-88998860D01*
X52715123Y-89267885D01*
X52775156Y-89530906D01*
X52873717Y-89782034D01*
X52982887Y-89971123D01*
X52999500Y-90033123D01*
X52999500Y-97877847D01*
X52984146Y-97937614D01*
X52941885Y-97982580D01*
X52883184Y-98001609D01*
X52813762Y-98005919D01*
X52570383Y-98056950D01*
X52338727Y-98147343D01*
X52125103Y-98274634D01*
X51935349Y-98435349D01*
X51774634Y-98625103D01*
X51647343Y-98838727D01*
X51556950Y-99070383D01*
X51505919Y-99313762D01*
X51505919Y-99313763D01*
X51499500Y-99417158D01*
X51499500Y-101582842D01*
X50000500Y-101582842D01*
X50000500Y-65124500D01*
X50017113Y-65062500D01*
X50062500Y-65017113D01*
X50124500Y-65000500D01*
X157875500Y-65000500D01*
X157937500Y-65017113D01*
G37*
G04 #@! TD.AperFunction*
G04 #@! TA.AperFunction,Conductor*
G36*
X64643802Y-137859939D02*
G01*
X64684030Y-137886819D01*
X66394529Y-139597318D01*
X66426623Y-139652905D01*
X66426623Y-139717093D01*
X66394529Y-139772680D01*
X65426610Y-140740599D01*
X65419208Y-140747424D01*
X65378898Y-140781664D01*
X65330922Y-140844773D01*
X65328858Y-140847413D01*
X65294861Y-140889709D01*
X65268930Y-140913882D01*
X65237219Y-140929729D01*
X65205666Y-140940185D01*
X65056342Y-141032288D01*
X64932288Y-141156342D01*
X64840186Y-141305665D01*
X64785000Y-141472202D01*
X64774500Y-141574990D01*
X64774500Y-142350008D01*
X64785000Y-142452796D01*
X64840186Y-142619334D01*
X64932288Y-142768657D01*
X65056342Y-142892711D01*
X65056344Y-142892712D01*
X65205666Y-142984814D01*
X65301460Y-143016557D01*
X65372202Y-143039999D01*
X65382702Y-143041071D01*
X65474991Y-143050500D01*
X66525008Y-143050499D01*
X66627797Y-143039999D01*
X66794334Y-142984814D01*
X66943656Y-142892712D01*
X66946432Y-142889936D01*
X66977819Y-142858550D01*
X67027182Y-142828300D01*
X67084898Y-142823758D01*
X67138385Y-142845913D01*
X67175985Y-142889936D01*
X67189500Y-142946231D01*
X67189500Y-146000394D01*
X67189091Y-146010457D01*
X67184799Y-146063167D01*
X67195502Y-146141732D01*
X67195910Y-146145062D01*
X67204498Y-146224025D01*
X67209732Y-146246356D01*
X67209772Y-146246467D01*
X67209773Y-146246468D01*
X67237129Y-146320934D01*
X67238228Y-146324054D01*
X67263594Y-146399333D01*
X67273508Y-146420023D01*
X67290198Y-146446133D01*
X67316295Y-146486962D01*
X67318037Y-146489771D01*
X67358990Y-146557835D01*
X67373116Y-146575905D01*
X67373199Y-146575988D01*
X67373200Y-146575989D01*
X67429303Y-146632092D01*
X67431609Y-146634462D01*
X67486151Y-146692041D01*
X67486152Y-146692042D01*
X67486234Y-146692128D01*
X67504118Y-146706907D01*
X68370598Y-147573387D01*
X68377425Y-147580792D01*
X68411663Y-147621100D01*
X68474806Y-147669100D01*
X68477366Y-147671101D01*
X68539246Y-147720842D01*
X68539336Y-147720914D01*
X68558823Y-147733001D01*
X68558933Y-147733052D01*
X68558936Y-147733054D01*
X68630969Y-147766380D01*
X68633943Y-147767806D01*
X68705092Y-147803092D01*
X68726716Y-147810706D01*
X68726831Y-147810731D01*
X68726833Y-147810732D01*
X68804291Y-147827781D01*
X68807554Y-147828546D01*
X68884613Y-147847711D01*
X68907385Y-147850500D01*
X68907503Y-147850500D01*
X68986773Y-147850500D01*
X68990130Y-147850545D01*
X69069432Y-147852693D01*
X69069433Y-147852692D01*
X69069551Y-147852696D01*
X69092650Y-147850500D01*
X69875501Y-147850500D01*
X69937501Y-147867113D01*
X69982888Y-147912500D01*
X69999501Y-147974500D01*
X69999501Y-148347872D01*
X70005909Y-148407483D01*
X70056204Y-148542331D01*
X70142454Y-148657546D01*
X70257669Y-148743796D01*
X70392517Y-148794091D01*
X70452127Y-148800500D01*
X72647872Y-148800499D01*
X72707483Y-148794091D01*
X72842331Y-148743796D01*
X72957546Y-148657546D01*
X73043796Y-148542331D01*
X73094091Y-148407483D01*
X73100500Y-148347873D01*
X73100499Y-145652128D01*
X73094091Y-145592517D01*
X73043796Y-145457669D01*
X72957546Y-145342454D01*
X72842331Y-145256204D01*
X72800711Y-145240680D01*
X72745851Y-145200220D01*
X72720666Y-145136874D01*
X72732770Y-145069789D01*
X72778504Y-145019238D01*
X72844047Y-145000500D01*
X84568060Y-145000500D01*
X84624355Y-145014015D01*
X84668378Y-145051615D01*
X84690533Y-145105102D01*
X84685991Y-145162818D01*
X84655743Y-145212178D01*
X84424265Y-145443656D01*
X84362056Y-145505865D01*
X84330908Y-145525775D01*
X84331247Y-145526305D01*
X84164009Y-145633202D01*
X83684030Y-146113181D01*
X83643802Y-146140061D01*
X83596349Y-146149500D01*
X82894378Y-146149500D01*
X82833946Y-146133777D01*
X82788839Y-146090596D01*
X82767711Y-146056342D01*
X82643657Y-145932288D01*
X82494334Y-145840186D01*
X82327797Y-145785000D01*
X82225009Y-145774500D01*
X81449991Y-145774500D01*
X81347203Y-145785000D01*
X81180665Y-145840186D01*
X81031342Y-145932288D01*
X80907288Y-146056342D01*
X80815186Y-146205665D01*
X80760000Y-146372202D01*
X80749500Y-146474990D01*
X80749500Y-147525008D01*
X80760000Y-147627796D01*
X80815186Y-147794334D01*
X80907288Y-147943657D01*
X81031342Y-148067711D01*
X81079796Y-148097597D01*
X81180666Y-148159814D01*
X81262708Y-148187000D01*
X81347202Y-148214999D01*
X81356729Y-148215972D01*
X81449991Y-148225500D01*
X81586075Y-148225499D01*
X81639874Y-148237778D01*
X81683019Y-148272184D01*
X81706964Y-148321902D01*
X81706966Y-148377086D01*
X81699500Y-148409803D01*
X81699500Y-153617060D01*
X81690061Y-153664513D01*
X81663181Y-153704741D01*
X80192241Y-155175681D01*
X80152013Y-155202561D01*
X80104560Y-155212000D01*
X79623456Y-155212000D01*
X79581866Y-155204817D01*
X79545095Y-155184102D01*
X79515905Y-155160300D01*
X79488940Y-155146215D01*
X79475519Y-155138084D01*
X79450549Y-155120705D01*
X79450548Y-155120704D01*
X79450546Y-155120703D01*
X79396345Y-155097443D01*
X79387836Y-155093402D01*
X79335553Y-155066092D01*
X79329626Y-155064396D01*
X79306298Y-155057721D01*
X79291520Y-155052459D01*
X79263558Y-155040460D01*
X79205772Y-155028583D01*
X79196628Y-155026338D01*
X79139921Y-155010113D01*
X79109575Y-155007802D01*
X79094034Y-155005622D01*
X79064242Y-154999500D01*
X79064241Y-154999500D01*
X79005258Y-154999500D01*
X78995844Y-154999142D01*
X78986698Y-154998445D01*
X78937024Y-154994663D01*
X78937023Y-154994663D01*
X78906849Y-154998506D01*
X78891183Y-154999500D01*
X71965783Y-154999500D01*
X71918330Y-154990061D01*
X71878102Y-154963181D01*
X70717567Y-153802647D01*
X70715374Y-153800398D01*
X70655059Y-153736946D01*
X70606642Y-153703247D01*
X70599119Y-153697575D01*
X70553405Y-153660300D01*
X70526440Y-153646215D01*
X70513019Y-153638084D01*
X70488049Y-153620705D01*
X70488048Y-153620704D01*
X70488046Y-153620703D01*
X70433845Y-153597443D01*
X70425336Y-153593402D01*
X70373053Y-153566092D01*
X70360461Y-153562489D01*
X70343798Y-153557721D01*
X70329020Y-153552459D01*
X70296377Y-153538451D01*
X70244225Y-153496365D01*
X70221588Y-153433289D01*
X70235078Y-153367646D01*
X70280754Y-153318609D01*
X70345276Y-153300500D01*
X71136415Y-153300500D01*
X71186630Y-153311123D01*
X71228242Y-153341171D01*
X71254120Y-153385494D01*
X71275180Y-153449049D01*
X71290186Y-153494334D01*
X71382288Y-153643657D01*
X71506342Y-153767711D01*
X71506344Y-153767712D01*
X71655666Y-153859814D01*
X71767017Y-153896712D01*
X71822202Y-153914999D01*
X71832702Y-153916071D01*
X71924991Y-153925500D01*
X74075008Y-153925499D01*
X74177797Y-153914999D01*
X74344334Y-153859814D01*
X74493656Y-153767712D01*
X74617712Y-153643656D01*
X74638838Y-153609404D01*
X74683946Y-153566223D01*
X74744378Y-153550500D01*
X76594739Y-153550500D01*
X76647933Y-153562489D01*
X76690840Y-153596138D01*
X76786520Y-153713480D01*
X76942929Y-153841015D01*
X77121809Y-153934454D01*
X77315837Y-153989973D01*
X77434245Y-154000500D01*
X79565754Y-154000499D01*
X79684163Y-153989973D01*
X79878191Y-153934454D01*
X80057071Y-153841015D01*
X80213480Y-153713480D01*
X80341015Y-153557071D01*
X80434454Y-153378191D01*
X80489973Y-153184163D01*
X80500500Y-153065755D01*
X80500499Y-150934246D01*
X80489973Y-150815837D01*
X80434454Y-150621809D01*
X80341015Y-150442929D01*
X80213480Y-150286520D01*
X80057071Y-150158985D01*
X79878191Y-150065546D01*
X79878190Y-150065545D01*
X79878189Y-150065545D01*
X79767755Y-150033946D01*
X79684163Y-150010027D01*
X79565755Y-149999500D01*
X79565752Y-149999500D01*
X77434245Y-149999500D01*
X77315838Y-150010026D01*
X77121810Y-150065545D01*
X77066613Y-150094378D01*
X76942929Y-150158985D01*
X76786520Y-150286520D01*
X76658985Y-150442929D01*
X76629178Y-150499992D01*
X76565545Y-150621810D01*
X76510027Y-150815837D01*
X76499301Y-150936482D01*
X76479324Y-150993737D01*
X76434587Y-151034673D01*
X76375788Y-151049500D01*
X74744378Y-151049500D01*
X74683946Y-151033777D01*
X74638839Y-150990596D01*
X74617711Y-150956342D01*
X74493657Y-150832288D01*
X74344334Y-150740186D01*
X74177797Y-150685000D01*
X74075009Y-150674500D01*
X71924991Y-150674500D01*
X71822203Y-150685000D01*
X71655665Y-150740186D01*
X71506342Y-150832288D01*
X71382288Y-150956342D01*
X71290186Y-151105665D01*
X71254121Y-151214504D01*
X71228242Y-151258829D01*
X71186630Y-151288877D01*
X71136415Y-151299500D01*
X69889470Y-151299500D01*
X69829038Y-151283777D01*
X69783931Y-151240596D01*
X69722711Y-151141342D01*
X69625362Y-151043993D01*
X69596649Y-150999073D01*
X69582877Y-150961586D01*
X69581762Y-150958419D01*
X69573617Y-150934246D01*
X69556444Y-150883279D01*
X69556441Y-150883275D01*
X69556404Y-150883163D01*
X69546496Y-150862485D01*
X69546432Y-150862386D01*
X69546432Y-150862384D01*
X69503715Y-150795555D01*
X69501957Y-150792721D01*
X69461070Y-150724764D01*
X69461067Y-150724761D01*
X69461010Y-150724666D01*
X69446882Y-150706594D01*
X69390748Y-150650460D01*
X69388406Y-150648054D01*
X69333849Y-150590459D01*
X69333847Y-150590458D01*
X69333770Y-150590376D01*
X69315877Y-150575589D01*
X68661818Y-149921529D01*
X68634938Y-149881301D01*
X68625499Y-149833848D01*
X68625499Y-149474991D01*
X68614999Y-149372203D01*
X68614999Y-149372202D01*
X68559814Y-149205666D01*
X68479562Y-149075556D01*
X68467711Y-149056342D01*
X68343657Y-148932288D01*
X68194334Y-148840186D01*
X68027797Y-148785000D01*
X67925009Y-148774500D01*
X67149991Y-148774500D01*
X67047203Y-148785000D01*
X66880665Y-148840186D01*
X66731342Y-148932288D01*
X66607288Y-149056342D01*
X66515186Y-149205665D01*
X66460000Y-149372202D01*
X66449500Y-149474990D01*
X66449500Y-150525008D01*
X66460000Y-150627796D01*
X66515186Y-150794335D01*
X66525406Y-150810903D01*
X66543838Y-150873295D01*
X66528146Y-150936431D01*
X66482647Y-150982933D01*
X66419868Y-151000000D01*
X65045794Y-151000000D01*
X64980698Y-150981539D01*
X64889334Y-150925186D01*
X64722797Y-150870000D01*
X64620009Y-150859500D01*
X63873651Y-150859500D01*
X63826198Y-150850061D01*
X63785970Y-150823181D01*
X63024760Y-150061971D01*
X62992666Y-150006384D01*
X62992666Y-149942196D01*
X63024760Y-149886609D01*
X63067711Y-149843657D01*
X63069852Y-149840186D01*
X63159814Y-149694334D01*
X63214999Y-149527797D01*
X63225500Y-149425009D01*
X63225499Y-148649992D01*
X63214999Y-148547203D01*
X63159814Y-148380666D01*
X63092902Y-148272184D01*
X63067711Y-148231342D01*
X62943657Y-148107288D01*
X62794334Y-148015186D01*
X62627797Y-147960000D01*
X62525009Y-147949500D01*
X61474991Y-147949500D01*
X61372203Y-147960000D01*
X61205665Y-148015186D01*
X61056343Y-148107288D01*
X61012952Y-148150680D01*
X60972723Y-148177561D01*
X60925270Y-148187000D01*
X60323143Y-148187000D01*
X60271525Y-148175746D01*
X60229277Y-148144025D01*
X60204067Y-148097597D01*
X60201744Y-148089601D01*
X60152265Y-148005937D01*
X60118081Y-147948135D01*
X60001865Y-147831919D01*
X59953121Y-147803092D01*
X59860397Y-147748255D01*
X59702572Y-147702402D01*
X59680443Y-147700660D01*
X59665694Y-147699500D01*
X59665692Y-147699500D01*
X59424500Y-147699500D01*
X59362500Y-147682887D01*
X59317113Y-147637500D01*
X59300500Y-147575500D01*
X59300500Y-147385078D01*
X59308447Y-147348973D01*
X59307833Y-147348838D01*
X59350500Y-147154997D01*
X59350500Y-144903651D01*
X59359939Y-144856198D01*
X59386819Y-144815970D01*
X59648135Y-144554654D01*
X60573397Y-143629390D01*
X60580777Y-143622586D01*
X60621100Y-143588337D01*
X60669169Y-143525101D01*
X60671075Y-143522663D01*
X60720841Y-143460754D01*
X60720841Y-143460753D01*
X60720922Y-143460653D01*
X60732998Y-143441182D01*
X60733050Y-143441068D01*
X60733054Y-143441064D01*
X60766392Y-143369003D01*
X60767795Y-143366076D01*
X60803036Y-143295021D01*
X60803037Y-143295016D01*
X60803094Y-143294902D01*
X60810708Y-143273277D01*
X60827779Y-143195718D01*
X60828546Y-143192443D01*
X60850940Y-143102405D01*
X60852867Y-143102884D01*
X60865234Y-143060573D01*
X60910457Y-143016557D01*
X60971486Y-143000499D01*
X61065755Y-143000499D01*
X61105223Y-142996990D01*
X61184163Y-142989973D01*
X61378191Y-142934454D01*
X61557071Y-142841015D01*
X61557210Y-142840901D01*
X61593984Y-142820183D01*
X61635575Y-142813000D01*
X61925270Y-142813000D01*
X61972723Y-142822439D01*
X62012952Y-142849320D01*
X62056344Y-142892712D01*
X62205666Y-142984814D01*
X62301460Y-143016557D01*
X62372202Y-143039999D01*
X62382702Y-143041071D01*
X62474991Y-143050500D01*
X63525008Y-143050499D01*
X63627797Y-143039999D01*
X63794334Y-142984814D01*
X63943656Y-142892712D01*
X64067712Y-142768656D01*
X64159814Y-142619334D01*
X64214999Y-142452797D01*
X64225500Y-142350009D01*
X64225499Y-141574992D01*
X64214999Y-141472203D01*
X64159814Y-141305666D01*
X64068729Y-141157993D01*
X64067711Y-141156342D01*
X63943657Y-141032288D01*
X63794334Y-140940186D01*
X63627797Y-140885000D01*
X63525009Y-140874500D01*
X62474991Y-140874500D01*
X62372203Y-140885000D01*
X62205668Y-140940185D01*
X62205666Y-140940185D01*
X62205666Y-140940186D01*
X62189592Y-140950099D01*
X62127204Y-140968530D01*
X62064067Y-140952837D01*
X62017566Y-140907339D01*
X62000499Y-140844560D01*
X62000499Y-139934245D01*
X61989973Y-139815838D01*
X61987753Y-139808081D01*
X61934454Y-139621809D01*
X61841015Y-139442929D01*
X61713480Y-139286520D01*
X61557071Y-139158985D01*
X61378191Y-139065546D01*
X61378190Y-139065545D01*
X61378189Y-139065545D01*
X61295198Y-139041798D01*
X61184163Y-139010027D01*
X61065755Y-138999500D01*
X61065752Y-138999500D01*
X58934245Y-138999500D01*
X58815838Y-139010026D01*
X58621810Y-139065545D01*
X58545097Y-139105617D01*
X58442929Y-139158985D01*
X58286520Y-139286520D01*
X58158985Y-139442929D01*
X58112265Y-139532368D01*
X58065545Y-139621810D01*
X58035014Y-139728513D01*
X58010027Y-139815837D01*
X57999500Y-139934245D01*
X57999500Y-140504741D01*
X57999501Y-141025500D01*
X57982888Y-141087500D01*
X57937501Y-141132887D01*
X57875501Y-141149500D01*
X55053958Y-141149500D01*
X54993526Y-141133777D01*
X54948419Y-141090596D01*
X54942711Y-141081342D01*
X54818657Y-140957288D01*
X54669334Y-140865186D01*
X54502797Y-140810000D01*
X54400009Y-140799500D01*
X53599991Y-140799500D01*
X53497203Y-140810000D01*
X53330666Y-140865186D01*
X53240770Y-140920633D01*
X53175058Y-140939091D01*
X53109533Y-140919980D01*
X53064048Y-140869088D01*
X53052386Y-140801836D01*
X53052637Y-140799500D01*
X53055500Y-140772873D01*
X53055499Y-139488649D01*
X53064938Y-139441197D01*
X53091815Y-139400972D01*
X54605969Y-137886819D01*
X54646197Y-137859939D01*
X54693650Y-137850500D01*
X64596349Y-137850500D01*
X64643802Y-137859939D01*
G37*
G04 #@! TD.AperFunction*
G04 #@! TA.AperFunction,Conductor*
G36*
X130716358Y-143967211D02*
G01*
X130765219Y-143997297D01*
X133870184Y-147102262D01*
X133997738Y-147229816D01*
X134013268Y-147239574D01*
X134030149Y-147250181D01*
X134041491Y-147258229D01*
X134071414Y-147282092D01*
X134105898Y-147298699D01*
X134118069Y-147305425D01*
X134150480Y-147325790D01*
X134186597Y-147338428D01*
X134199441Y-147343748D01*
X134228588Y-147357783D01*
X134233939Y-147360360D01*
X134271276Y-147368881D01*
X134284613Y-147372725D01*
X134320745Y-147385368D01*
X134358776Y-147389653D01*
X134372481Y-147391981D01*
X134409806Y-147400500D01*
X134455046Y-147400500D01*
X134590195Y-147400500D01*
X141317060Y-147400500D01*
X141364513Y-147409939D01*
X141404741Y-147436819D01*
X141863181Y-147895259D01*
X141890061Y-147935487D01*
X141899500Y-147982940D01*
X141899500Y-149790832D01*
X141886423Y-149846258D01*
X141849951Y-149889993D01*
X141797777Y-149912815D01*
X141740904Y-149909908D01*
X141724411Y-149905116D01*
X141715070Y-149902402D01*
X141702777Y-149901434D01*
X141678194Y-149899500D01*
X141678192Y-149899500D01*
X138763164Y-149899500D01*
X138698068Y-149881039D01*
X138631834Y-149840186D01*
X138465297Y-149785000D01*
X138362509Y-149774500D01*
X137587491Y-149774500D01*
X137484703Y-149785000D01*
X137318165Y-149840186D01*
X137168842Y-149932288D01*
X137044788Y-150056342D01*
X136952686Y-150205665D01*
X136897500Y-150372202D01*
X136887000Y-150474990D01*
X136887000Y-151525008D01*
X136897500Y-151627796D01*
X136952686Y-151794334D01*
X137044788Y-151943657D01*
X137094700Y-151993569D01*
X137126794Y-152049156D01*
X137126794Y-152113344D01*
X137094700Y-152168931D01*
X137007288Y-152256342D01*
X136915186Y-152405665D01*
X136860000Y-152572202D01*
X136849500Y-152674990D01*
X136849500Y-153725008D01*
X136860000Y-153827796D01*
X136915186Y-153994334D01*
X137007286Y-154143654D01*
X137007287Y-154143655D01*
X137007288Y-154143656D01*
X137063683Y-154200051D01*
X137090561Y-154240277D01*
X137100000Y-154287730D01*
X137100000Y-154925500D01*
X137083387Y-154987500D01*
X137038000Y-155032887D01*
X136976000Y-155049500D01*
X131309286Y-155049500D01*
X131261833Y-155040061D01*
X131221605Y-155013181D01*
X130536819Y-154328395D01*
X130509939Y-154288167D01*
X130500500Y-154240714D01*
X130500500Y-146577822D01*
X130500528Y-146575184D01*
X130505871Y-146324054D01*
X130553566Y-144082336D01*
X130568027Y-144026811D01*
X130605939Y-143983738D01*
X130659183Y-143962344D01*
X130716358Y-143967211D01*
G37*
G04 #@! TD.AperFunction*
G04 #@! TA.AperFunction,Conductor*
G36*
X68944746Y-127299310D02*
G01*
X68984959Y-127343909D01*
X68999500Y-127402174D01*
X68999500Y-137358177D01*
X68985376Y-137415652D01*
X68946220Y-137460033D01*
X68890953Y-137481210D01*
X68832167Y-137474359D01*
X68742483Y-137440909D01*
X68682873Y-137434500D01*
X68682869Y-137434500D01*
X67397130Y-137434500D01*
X67337515Y-137440909D01*
X67202669Y-137491204D01*
X67087452Y-137577454D01*
X67041690Y-137638585D01*
X66985756Y-137680455D01*
X66916065Y-137685439D01*
X66854743Y-137651954D01*
X65809969Y-136607180D01*
X65779719Y-136557817D01*
X65775177Y-136500101D01*
X65797332Y-136446614D01*
X65841355Y-136409014D01*
X65897650Y-136395499D01*
X66142870Y-136395499D01*
X66142872Y-136395499D01*
X66202483Y-136389091D01*
X66337331Y-136338796D01*
X66452546Y-136252546D01*
X66538796Y-136137331D01*
X66589091Y-136002483D01*
X66595500Y-135942873D01*
X66595499Y-133057128D01*
X66589091Y-132997517D01*
X66538796Y-132862669D01*
X66452546Y-132747454D01*
X66337331Y-132661204D01*
X66202483Y-132610909D01*
X66142873Y-132604500D01*
X66142869Y-132604500D01*
X64857130Y-132604500D01*
X64797515Y-132610909D01*
X64662669Y-132661204D01*
X64547454Y-132747454D01*
X64461204Y-132862668D01*
X64410909Y-132997516D01*
X64404500Y-133057131D01*
X64404500Y-133575500D01*
X64387887Y-133637500D01*
X64342500Y-133682887D01*
X64280500Y-133699500D01*
X62409803Y-133699500D01*
X62372480Y-133708017D01*
X62358780Y-133710345D01*
X62320743Y-133714631D01*
X62284623Y-133727270D01*
X62271268Y-133731118D01*
X62233939Y-133739639D01*
X62199441Y-133756251D01*
X62186608Y-133761567D01*
X62177527Y-133764745D01*
X62165459Y-133768968D01*
X62107172Y-133774712D01*
X62052747Y-133753061D01*
X62014333Y-133708845D01*
X62000499Y-133651929D01*
X62000499Y-131934245D01*
X61996639Y-131890827D01*
X61989973Y-131815837D01*
X61987133Y-131805915D01*
X61986306Y-131740722D01*
X62018665Y-131684121D01*
X63073393Y-130629394D01*
X63080771Y-130622592D01*
X63121100Y-130588337D01*
X63169107Y-130525182D01*
X63171125Y-130522601D01*
X63220842Y-130460754D01*
X63220844Y-130460748D01*
X63220919Y-130460656D01*
X63232999Y-130441180D01*
X63233050Y-130441068D01*
X63233054Y-130441064D01*
X63266371Y-130369047D01*
X63267814Y-130366039D01*
X63282583Y-130336260D01*
X63303036Y-130295021D01*
X63303037Y-130295016D01*
X63303095Y-130294900D01*
X63310708Y-130273277D01*
X63327779Y-130195718D01*
X63328546Y-130192443D01*
X63330444Y-130184814D01*
X63347684Y-130115495D01*
X63347684Y-130115493D01*
X63347711Y-130115385D01*
X63350500Y-130092620D01*
X63350500Y-130013227D01*
X63350545Y-130009870D01*
X63352696Y-129930448D01*
X63350500Y-129907350D01*
X63350500Y-128094378D01*
X63366223Y-128033946D01*
X63409404Y-127988839D01*
X63435029Y-127973033D01*
X63443656Y-127967712D01*
X63567712Y-127843656D01*
X63659814Y-127694334D01*
X63689590Y-127604474D01*
X63721787Y-127553678D01*
X63774102Y-127524005D01*
X63834225Y-127522440D01*
X63888013Y-127549349D01*
X63922812Y-127598404D01*
X63947344Y-127661273D01*
X64074634Y-127874896D01*
X64235349Y-128064650D01*
X64425103Y-128225365D01*
X64619694Y-128341315D01*
X64638727Y-128352656D01*
X64870386Y-128443050D01*
X64900946Y-128449457D01*
X64951662Y-128472964D01*
X64986900Y-128516357D01*
X64999500Y-128570818D01*
X64999500Y-129550008D01*
X65010000Y-129652796D01*
X65065186Y-129819334D01*
X65157288Y-129968657D01*
X65281342Y-130092711D01*
X65318103Y-130115385D01*
X65430666Y-130184814D01*
X65539071Y-130220736D01*
X65597202Y-130239999D01*
X65606729Y-130240972D01*
X65699991Y-130250500D01*
X65971488Y-130250499D01*
X65977769Y-130250658D01*
X66050935Y-130254369D01*
X66050935Y-130254368D01*
X66050936Y-130254369D01*
X66066862Y-130251928D01*
X66085641Y-130250499D01*
X66300009Y-130250499D01*
X66351402Y-130245249D01*
X66402797Y-130239999D01*
X66569334Y-130184814D01*
X66718656Y-130092712D01*
X66842712Y-129968656D01*
X66934814Y-129819334D01*
X66989999Y-129652797D01*
X67000500Y-129550009D01*
X67000500Y-129294790D01*
X67000500Y-128624500D01*
X67017113Y-128562500D01*
X67062500Y-128517113D01*
X67124500Y-128500500D01*
X67382838Y-128500500D01*
X67382842Y-128500500D01*
X67486237Y-128494081D01*
X67729614Y-128443050D01*
X67961273Y-128352656D01*
X68174894Y-128225366D01*
X68174893Y-128225366D01*
X68174896Y-128225365D01*
X68364650Y-128064650D01*
X68525365Y-127874896D01*
X68569973Y-127800034D01*
X68652656Y-127661273D01*
X68743050Y-127429614D01*
X68754139Y-127376725D01*
X68780328Y-127322686D01*
X68828838Y-127287289D01*
X68888292Y-127278836D01*
X68944746Y-127299310D01*
G37*
G04 #@! TD.AperFunction*
G04 #@! TA.AperFunction,Conductor*
G36*
X56748092Y-122629292D02*
G01*
X56785903Y-122673366D01*
X56799500Y-122729822D01*
X56799500Y-126475079D01*
X56799274Y-126482566D01*
X56795641Y-126542607D01*
X56806483Y-126601771D01*
X56807610Y-126609172D01*
X56814860Y-126668873D01*
X56818450Y-126678339D01*
X56824475Y-126699952D01*
X56826303Y-126709929D01*
X56850991Y-126764783D01*
X56853856Y-126771701D01*
X56875180Y-126827926D01*
X56875182Y-126827930D01*
X56880941Y-126836273D01*
X56891961Y-126855813D01*
X56896120Y-126865054D01*
X56933216Y-126912405D01*
X56937651Y-126918432D01*
X56971817Y-126967929D01*
X57016847Y-127007822D01*
X57022283Y-127012940D01*
X57852058Y-127842715D01*
X57857178Y-127848153D01*
X57894972Y-127890814D01*
X57897072Y-127893184D01*
X57946573Y-127927352D01*
X57952591Y-127931780D01*
X57999944Y-127968878D01*
X58009180Y-127973034D01*
X58028731Y-127984062D01*
X58048478Y-127997693D01*
X58088792Y-128043982D01*
X58101965Y-128103936D01*
X58084768Y-128162861D01*
X58048255Y-128224600D01*
X58002402Y-128382427D01*
X57999500Y-128419308D01*
X57999500Y-128850692D01*
X58002402Y-128887572D01*
X58048255Y-129045397D01*
X58139893Y-129200348D01*
X58138319Y-129201278D01*
X58159467Y-129237906D01*
X58159467Y-129302094D01*
X58138319Y-129338721D01*
X58139893Y-129339652D01*
X58048255Y-129494602D01*
X58002402Y-129652427D01*
X57999500Y-129689308D01*
X57999500Y-130120691D01*
X58003399Y-130170234D01*
X58001979Y-130170345D01*
X58002768Y-130220736D01*
X57970346Y-130277574D01*
X56939152Y-131308767D01*
X56939150Y-131308771D01*
X56870185Y-131377735D01*
X56849817Y-131410151D01*
X56841772Y-131421489D01*
X56817908Y-131451413D01*
X56801300Y-131485899D01*
X56794576Y-131498064D01*
X56774211Y-131530475D01*
X56761565Y-131566613D01*
X56756246Y-131579453D01*
X56739639Y-131613938D01*
X56731118Y-131651268D01*
X56727270Y-131664623D01*
X56714631Y-131700743D01*
X56710345Y-131738780D01*
X56708017Y-131752480D01*
X56699500Y-131789803D01*
X56699500Y-134590196D01*
X56708017Y-134627518D01*
X56710345Y-134641219D01*
X56714631Y-134679252D01*
X56727272Y-134715380D01*
X56731119Y-134728736D01*
X56739638Y-134766058D01*
X56756250Y-134800553D01*
X56761570Y-134813398D01*
X56774209Y-134849520D01*
X56779285Y-134857598D01*
X56794576Y-134881933D01*
X56801298Y-134894095D01*
X56817908Y-134928586D01*
X56841772Y-134958510D01*
X56849818Y-134969850D01*
X56870184Y-135002262D01*
X57805741Y-135937819D01*
X57835991Y-135987182D01*
X57840533Y-136044898D01*
X57818378Y-136098385D01*
X57774355Y-136135985D01*
X57718060Y-136149500D01*
X55711331Y-136149500D01*
X55645537Y-136130606D01*
X55599794Y-136079681D01*
X55588042Y-136012245D01*
X55595499Y-135942878D01*
X55595500Y-135942873D01*
X55595499Y-133057128D01*
X55589091Y-132997517D01*
X55538796Y-132862669D01*
X55452546Y-132747454D01*
X55337331Y-132661204D01*
X55281165Y-132640255D01*
X55238930Y-132613817D01*
X55210512Y-132572887D01*
X55200500Y-132524074D01*
X55200500Y-132341519D01*
X55209939Y-132294066D01*
X55236819Y-132253838D01*
X55669009Y-131821648D01*
X56977731Y-130512924D01*
X56983150Y-130507823D01*
X57028183Y-130467929D01*
X57062351Y-130418426D01*
X57066763Y-130412428D01*
X57103878Y-130365057D01*
X57108034Y-130355820D01*
X57119062Y-130336267D01*
X57124818Y-130327930D01*
X57146153Y-130271671D01*
X57148997Y-130264803D01*
X57173694Y-130209932D01*
X57175519Y-130199970D01*
X57181545Y-130178348D01*
X57185140Y-130168872D01*
X57192389Y-130109165D01*
X57193516Y-130101762D01*
X57204357Y-130042606D01*
X57200726Y-129982577D01*
X57200500Y-129975090D01*
X57200500Y-128024921D01*
X57200726Y-128017434D01*
X57201026Y-128012472D01*
X57204358Y-127957394D01*
X57193507Y-127898185D01*
X57192390Y-127890841D01*
X57185140Y-127831128D01*
X57181547Y-127821656D01*
X57175522Y-127800044D01*
X57173695Y-127790069D01*
X57149009Y-127735220D01*
X57146152Y-127728326D01*
X57124818Y-127672070D01*
X57119053Y-127663719D01*
X57108036Y-127644183D01*
X57103878Y-127634944D01*
X57066788Y-127587603D01*
X57062352Y-127581574D01*
X57061743Y-127580692D01*
X57028183Y-127532071D01*
X56983145Y-127492171D01*
X56977707Y-127487051D01*
X56377940Y-126887283D01*
X56372822Y-126881847D01*
X56332929Y-126836817D01*
X56320048Y-126827926D01*
X56283436Y-126802654D01*
X56277405Y-126798216D01*
X56234730Y-126764783D01*
X56230057Y-126761122D01*
X56230055Y-126761121D01*
X56230054Y-126761120D01*
X56220813Y-126756961D01*
X56201273Y-126745941D01*
X56192930Y-126740182D01*
X56192927Y-126740181D01*
X56192926Y-126740180D01*
X56136701Y-126718856D01*
X56129783Y-126715991D01*
X56074929Y-126691303D01*
X56064952Y-126689475D01*
X56043338Y-126683450D01*
X56033872Y-126679860D01*
X56033871Y-126679859D01*
X56020274Y-126674703D01*
X55975455Y-126645318D01*
X55947221Y-126599764D01*
X55940849Y-126546550D01*
X55949222Y-126520978D01*
X55947374Y-126520441D01*
X55997597Y-126347572D01*
X55997596Y-126347572D01*
X55997598Y-126347569D01*
X56000500Y-126310694D01*
X56000500Y-125879306D01*
X55997598Y-125842431D01*
X55968974Y-125743909D01*
X55951744Y-125684602D01*
X55872456Y-125550533D01*
X55868081Y-125543135D01*
X55751865Y-125426919D01*
X55708855Y-125401483D01*
X55610397Y-125343255D01*
X55452572Y-125297402D01*
X55430443Y-125295660D01*
X55415694Y-125294500D01*
X55415692Y-125294500D01*
X55349500Y-125294500D01*
X55287500Y-125277887D01*
X55242113Y-125232500D01*
X55225500Y-125170500D01*
X55225500Y-122737325D01*
X55244278Y-122671717D01*
X55294926Y-122625980D01*
X55362103Y-122613967D01*
X55372201Y-122614998D01*
X55372203Y-122614999D01*
X55474991Y-122625500D01*
X56525008Y-122625499D01*
X56627797Y-122614999D01*
X56636494Y-122612116D01*
X56694361Y-122607265D01*
X56748092Y-122629292D01*
G37*
G04 #@! TD.AperFunction*
G04 #@! TA.AperFunction,Conductor*
G36*
X63738745Y-121732915D02*
G01*
X63783246Y-121778200D01*
X63799500Y-121839574D01*
X63799500Y-126169894D01*
X63783246Y-126231269D01*
X63738744Y-126276553D01*
X63677663Y-126293875D01*
X63616014Y-126278694D01*
X63569960Y-126234989D01*
X63567712Y-126231344D01*
X63567710Y-126231342D01*
X63567709Y-126231340D01*
X63443657Y-126107288D01*
X63294334Y-126015186D01*
X63127797Y-125960000D01*
X63025009Y-125949500D01*
X61991519Y-125949500D01*
X61944066Y-125940061D01*
X61903838Y-125913181D01*
X61607940Y-125617283D01*
X61602822Y-125611847D01*
X61562929Y-125566817D01*
X61513432Y-125532651D01*
X61507405Y-125528216D01*
X61472290Y-125500706D01*
X61460057Y-125491122D01*
X61460055Y-125491121D01*
X61460054Y-125491120D01*
X61450813Y-125486961D01*
X61431273Y-125475941D01*
X61422930Y-125470182D01*
X61422927Y-125470181D01*
X61422926Y-125470180D01*
X61366701Y-125448856D01*
X61359783Y-125445991D01*
X61304929Y-125421303D01*
X61294952Y-125419475D01*
X61273339Y-125413450D01*
X61263873Y-125409860D01*
X61204172Y-125402610D01*
X61196771Y-125401483D01*
X61137607Y-125390641D01*
X61077566Y-125394274D01*
X61070079Y-125394500D01*
X60680969Y-125394500D01*
X60617849Y-125377232D01*
X60560398Y-125343256D01*
X60560396Y-125343255D01*
X60560394Y-125343254D01*
X60402572Y-125297402D01*
X60380443Y-125295660D01*
X60365694Y-125294500D01*
X58584306Y-125294500D01*
X58572014Y-125295467D01*
X58547427Y-125297402D01*
X58389601Y-125343255D01*
X58387619Y-125344428D01*
X58325472Y-125361691D01*
X58263062Y-125345405D01*
X58217275Y-125299975D01*
X58200500Y-125237695D01*
X58200500Y-122879020D01*
X58209939Y-122831568D01*
X58236818Y-122791339D01*
X58301576Y-122726579D01*
X58366338Y-122661817D01*
X58406566Y-122634938D01*
X58454019Y-122625499D01*
X59025009Y-122625499D01*
X59089011Y-122618961D01*
X59127797Y-122614999D01*
X59294334Y-122559814D01*
X59443656Y-122467712D01*
X59464535Y-122446832D01*
X59511502Y-122417387D01*
X59566610Y-122411350D01*
X59618840Y-122429930D01*
X59646972Y-122458474D01*
X59647039Y-122458408D01*
X59781342Y-122592711D01*
X59834502Y-122625500D01*
X59930666Y-122684814D01*
X60042017Y-122721712D01*
X60097202Y-122739999D01*
X60106729Y-122740972D01*
X60199991Y-122750500D01*
X60800008Y-122750499D01*
X60902797Y-122739999D01*
X61069334Y-122684814D01*
X61176099Y-122618961D01*
X61241196Y-122600500D01*
X61710394Y-122600500D01*
X61720457Y-122600909D01*
X61724124Y-122601207D01*
X61773167Y-122605201D01*
X61851748Y-122594493D01*
X61855074Y-122594086D01*
X61887583Y-122590551D01*
X61934031Y-122585501D01*
X61956351Y-122580269D01*
X61956463Y-122580227D01*
X61956468Y-122580227D01*
X62030983Y-122552851D01*
X62034033Y-122551777D01*
X62109221Y-122526444D01*
X62109224Y-122526441D01*
X62109340Y-122526403D01*
X62130020Y-122516492D01*
X62130110Y-122516433D01*
X62130116Y-122516432D01*
X62197004Y-122473677D01*
X62199742Y-122471978D01*
X62267736Y-122431070D01*
X62267735Y-122431070D01*
X62267836Y-122431010D01*
X62285899Y-122416889D01*
X62285986Y-122416801D01*
X62285989Y-122416800D01*
X62342091Y-122360696D01*
X62344422Y-122358427D01*
X62402041Y-122303849D01*
X62402042Y-122303847D01*
X62402127Y-122303767D01*
X62416900Y-122285887D01*
X62565973Y-122136814D01*
X62606198Y-122109938D01*
X62653651Y-122100499D01*
X63000009Y-122100499D01*
X63051402Y-122095248D01*
X63102797Y-122089999D01*
X63269334Y-122034814D01*
X63418656Y-121942712D01*
X63542712Y-121818656D01*
X63569961Y-121774477D01*
X63616014Y-121730774D01*
X63677663Y-121715593D01*
X63738745Y-121732915D01*
G37*
G04 #@! TD.AperFunction*
G04 #@! TA.AperFunction,Conductor*
G36*
X81905258Y-91416644D02*
G01*
X81950508Y-91460873D01*
X81968045Y-91521669D01*
X81953301Y-91583203D01*
X81857996Y-91760529D01*
X81816633Y-91874896D01*
X81764621Y-92018705D01*
X81709833Y-92287720D01*
X81699500Y-92449130D01*
X81699500Y-96855870D01*
X81709833Y-97017280D01*
X81764621Y-97286295D01*
X81791554Y-97360762D01*
X81857996Y-97544470D01*
X81987961Y-97786287D01*
X82151759Y-98006618D01*
X82345881Y-98200740D01*
X82345884Y-98200742D01*
X82345885Y-98200743D01*
X82487019Y-98305665D01*
X82566212Y-98364538D01*
X82808029Y-98494503D01*
X82808032Y-98494504D01*
X82808034Y-98494505D01*
X83066205Y-98587879D01*
X83335220Y-98642667D01*
X83496630Y-98653000D01*
X85403365Y-98653000D01*
X85403370Y-98653000D01*
X85496480Y-98647039D01*
X85545103Y-98653656D01*
X85587353Y-98678618D01*
X86471841Y-99474657D01*
X86495150Y-99502915D01*
X86509187Y-99536751D01*
X86927087Y-101208348D01*
X86930279Y-101249652D01*
X86919688Y-101289703D01*
X86864902Y-101410317D01*
X86809904Y-101628583D01*
X86799500Y-101760786D01*
X86799500Y-102964214D01*
X86809904Y-103096416D01*
X86864902Y-103314681D01*
X86957990Y-103519622D01*
X86957993Y-103519626D01*
X86977930Y-103548403D01*
X86994353Y-103582023D01*
X87000000Y-103619016D01*
X87000000Y-105380984D01*
X86994353Y-105417977D01*
X86977930Y-105451596D01*
X86972261Y-105459780D01*
X86957990Y-105480377D01*
X86864902Y-105685318D01*
X86809904Y-105903583D01*
X86799500Y-106035786D01*
X86799500Y-107239214D01*
X86809904Y-107371416D01*
X86864902Y-107589681D01*
X86957990Y-107794622D01*
X86957993Y-107794626D01*
X86977930Y-107823403D01*
X86994353Y-107857023D01*
X87000000Y-107894016D01*
X87000000Y-109489737D01*
X86998313Y-109510123D01*
X86510380Y-112437716D01*
X86487811Y-112490999D01*
X86443521Y-112528239D01*
X85759769Y-112870114D01*
X85720558Y-112882137D01*
X85679570Y-112880711D01*
X85564781Y-112857333D01*
X85537878Y-112855610D01*
X85403370Y-112847000D01*
X83496630Y-112847000D01*
X83362121Y-112855610D01*
X83335219Y-112857333D01*
X83066205Y-112912121D01*
X82808029Y-113005496D01*
X82566212Y-113135461D01*
X82345881Y-113299259D01*
X82151759Y-113493381D01*
X81987961Y-113713712D01*
X81857996Y-113955529D01*
X81764621Y-114213705D01*
X81753292Y-114269334D01*
X81709833Y-114482720D01*
X81699500Y-114644130D01*
X81699500Y-119050870D01*
X81709833Y-119212280D01*
X81764621Y-119481295D01*
X81772398Y-119502797D01*
X81857996Y-119739470D01*
X81899556Y-119816797D01*
X81914300Y-119878331D01*
X81896763Y-119939127D01*
X81851513Y-119983356D01*
X81790332Y-119999500D01*
X75625002Y-119999500D01*
X75558315Y-119980041D01*
X75512558Y-119927772D01*
X75502092Y-119859098D01*
X75530200Y-119795571D01*
X75536736Y-119787819D01*
X75552070Y-119769632D01*
X75670574Y-119567690D01*
X75753245Y-119348626D01*
X75797705Y-119118741D01*
X75800500Y-119066122D01*
X75800500Y-114628878D01*
X75797705Y-114576259D01*
X75753245Y-114346374D01*
X75670574Y-114127310D01*
X75552070Y-113925368D01*
X75401142Y-113746358D01*
X75222132Y-113595430D01*
X75020190Y-113476926D01*
X74801126Y-113394255D01*
X74801123Y-113394254D01*
X74801122Y-113394254D01*
X74571238Y-113349794D01*
X74518631Y-113347000D01*
X74518622Y-113347000D01*
X72581378Y-113347000D01*
X72581369Y-113347000D01*
X72528761Y-113349794D01*
X72298877Y-113394254D01*
X72298874Y-113394254D01*
X72298874Y-113394255D01*
X72225341Y-113422005D01*
X72079807Y-113476927D01*
X71877868Y-113595430D01*
X71698858Y-113746358D01*
X71547930Y-113925368D01*
X71429427Y-114127307D01*
X71346754Y-114346377D01*
X71302294Y-114576261D01*
X71299500Y-114628869D01*
X71299500Y-114875500D01*
X71282887Y-114937500D01*
X71237500Y-114982887D01*
X71175500Y-114999500D01*
X70412231Y-114999500D01*
X70364778Y-114990061D01*
X70324550Y-114963181D01*
X70318657Y-114957288D01*
X70169334Y-114865186D01*
X70002797Y-114810000D01*
X69900009Y-114799500D01*
X69099991Y-114799500D01*
X68997203Y-114810000D01*
X68830665Y-114865186D01*
X68681344Y-114957287D01*
X68587680Y-115050951D01*
X68532092Y-115083044D01*
X68467905Y-115083044D01*
X68412318Y-115050950D01*
X68386819Y-115025451D01*
X68359939Y-114985223D01*
X68350500Y-114937770D01*
X68350500Y-114249499D01*
X68367113Y-114187499D01*
X68412500Y-114142112D01*
X68474500Y-114125499D01*
X68525009Y-114125499D01*
X68576402Y-114120248D01*
X68627797Y-114114999D01*
X68794334Y-114059814D01*
X68943656Y-113967712D01*
X69067712Y-113843656D01*
X69159814Y-113694334D01*
X69214999Y-113527797D01*
X69225500Y-113425009D01*
X69225499Y-112649992D01*
X69214999Y-112547203D01*
X69159814Y-112380666D01*
X69067712Y-112231344D01*
X69067711Y-112231342D01*
X68943657Y-112107288D01*
X68940821Y-112105539D01*
X68897640Y-112060432D01*
X68881917Y-112000000D01*
X68897640Y-111939568D01*
X68940821Y-111894461D01*
X68943654Y-111892713D01*
X68943656Y-111892712D01*
X69067712Y-111768656D01*
X69159814Y-111619334D01*
X69214999Y-111452797D01*
X69225500Y-111350009D01*
X69225499Y-110574992D01*
X69214999Y-110472203D01*
X69159814Y-110305666D01*
X69067712Y-110156344D01*
X69036820Y-110125452D01*
X69009939Y-110085223D01*
X69000500Y-110037770D01*
X69000500Y-109739238D01*
X69000540Y-109736096D01*
X69002756Y-109648639D01*
X69002755Y-109648638D01*
X69002756Y-109648636D01*
X68992345Y-109590554D01*
X68991042Y-109581263D01*
X68985074Y-109522562D01*
X68975964Y-109493528D01*
X68972223Y-109478286D01*
X68966857Y-109448343D01*
X68944976Y-109393565D01*
X68941816Y-109384689D01*
X68939056Y-109375892D01*
X68924159Y-109328412D01*
X68909395Y-109301812D01*
X68902660Y-109287631D01*
X68891377Y-109259383D01*
X68858917Y-109210131D01*
X68854036Y-109202074D01*
X68825409Y-109150498D01*
X68805582Y-109127403D01*
X68796146Y-109114888D01*
X68779402Y-109089481D01*
X68779400Y-109089479D01*
X68779399Y-109089477D01*
X68737693Y-109047772D01*
X68731287Y-109040860D01*
X68684653Y-108986538D01*
X68686545Y-108984913D01*
X68669553Y-108964979D01*
X68654835Y-108916641D01*
X68660622Y-108866449D01*
X68689999Y-108777797D01*
X68700500Y-108675009D01*
X68700499Y-107774992D01*
X68689999Y-107672203D01*
X68634814Y-107505666D01*
X68577593Y-107412895D01*
X68542711Y-107356342D01*
X68418657Y-107232288D01*
X68269334Y-107140186D01*
X68102797Y-107085000D01*
X68000009Y-107074500D01*
X67015390Y-107074500D01*
X66966655Y-107064521D01*
X66932362Y-107049863D01*
X66887987Y-107030896D01*
X66668537Y-106980809D01*
X66443671Y-106970709D01*
X66220611Y-107000925D01*
X66012850Y-107068431D01*
X65974532Y-107074500D01*
X64999991Y-107074500D01*
X64897203Y-107085000D01*
X64730665Y-107140186D01*
X64581342Y-107232288D01*
X64457288Y-107356342D01*
X64365186Y-107505665D01*
X64310000Y-107672202D01*
X64299500Y-107774990D01*
X64299500Y-108675008D01*
X64310000Y-108777796D01*
X64329452Y-108836496D01*
X64334303Y-108894363D01*
X64312276Y-108948093D01*
X64268202Y-108985903D01*
X64211746Y-108999500D01*
X62917158Y-108999500D01*
X62834442Y-109004635D01*
X62813762Y-109005919D01*
X62570383Y-109056950D01*
X62338727Y-109147343D01*
X62125103Y-109274634D01*
X61935349Y-109435349D01*
X61774634Y-109625103D01*
X61647343Y-109838727D01*
X61556950Y-110070383D01*
X61505919Y-110313762D01*
X61499500Y-110417162D01*
X61499500Y-112582838D01*
X61505919Y-112686237D01*
X61556950Y-112929616D01*
X61647343Y-113161272D01*
X61774634Y-113374896D01*
X61935349Y-113564650D01*
X62125103Y-113725365D01*
X62338727Y-113852656D01*
X62423203Y-113885619D01*
X62570386Y-113943050D01*
X62813763Y-113994081D01*
X62917158Y-114000500D01*
X65082838Y-114000500D01*
X65082842Y-114000500D01*
X65186237Y-113994081D01*
X65429614Y-113943050D01*
X65661273Y-113852656D01*
X65874894Y-113725366D01*
X65874893Y-113725366D01*
X65874896Y-113725365D01*
X66064650Y-113564650D01*
X66225365Y-113374896D01*
X66256353Y-113322890D01*
X66352656Y-113161273D01*
X66443050Y-112929614D01*
X66494081Y-112686237D01*
X66500500Y-112582842D01*
X66500500Y-110819336D01*
X66509938Y-110771884D01*
X66536815Y-110731658D01*
X66562821Y-110705652D01*
X66612180Y-110675405D01*
X66669896Y-110670861D01*
X66723384Y-110693016D01*
X66760985Y-110737040D01*
X66774500Y-110793335D01*
X66774500Y-111350008D01*
X66785000Y-111452796D01*
X66840186Y-111619334D01*
X66932288Y-111768657D01*
X67056344Y-111892713D01*
X67059181Y-111894463D01*
X67102360Y-111939569D01*
X67118082Y-112000000D01*
X67102360Y-112060431D01*
X67059181Y-112105537D01*
X67056344Y-112107286D01*
X66932288Y-112231342D01*
X66840186Y-112380665D01*
X66785000Y-112547202D01*
X66774500Y-112649991D01*
X66774500Y-113052814D01*
X66763039Y-113104879D01*
X66733644Y-113168416D01*
X66732194Y-113171441D01*
X66696908Y-113242590D01*
X66689293Y-113264219D01*
X66672219Y-113341783D01*
X66671453Y-113345049D01*
X66652289Y-113422110D01*
X66649500Y-113444890D01*
X66649500Y-113524273D01*
X66649455Y-113527630D01*
X66647303Y-113607051D01*
X66649500Y-113630150D01*
X66649500Y-114937770D01*
X66640061Y-114985224D01*
X66613182Y-115025449D01*
X66587682Y-115050950D01*
X66587680Y-115050952D01*
X66532092Y-115083044D01*
X66467906Y-115083044D01*
X66432432Y-115062562D01*
X66430993Y-115064897D01*
X66269334Y-114965186D01*
X66102797Y-114910000D01*
X66000009Y-114899500D01*
X64999991Y-114899500D01*
X64897203Y-114910000D01*
X64730665Y-114965186D01*
X64581342Y-115057288D01*
X64457288Y-115181342D01*
X64365186Y-115330665D01*
X64310000Y-115497202D01*
X64299500Y-115599990D01*
X64299500Y-116400008D01*
X64310000Y-116502796D01*
X64365186Y-116669334D01*
X64457288Y-116818657D01*
X64550950Y-116912319D01*
X64583044Y-116967906D01*
X64583044Y-117032092D01*
X64550952Y-117087679D01*
X64525449Y-117113182D01*
X64485224Y-117140061D01*
X64437770Y-117149500D01*
X63539606Y-117149500D01*
X63529543Y-117149091D01*
X63513904Y-117147817D01*
X63476833Y-117144799D01*
X63476832Y-117144799D01*
X63398264Y-117155502D01*
X63394936Y-117155910D01*
X63330508Y-117162917D01*
X63316090Y-117164486D01*
X63316089Y-117164486D01*
X63315972Y-117164499D01*
X63293636Y-117169734D01*
X63219105Y-117197114D01*
X63215942Y-117198228D01*
X63140667Y-117223592D01*
X63119978Y-117233507D01*
X63053026Y-117276300D01*
X63050176Y-117278067D01*
X62982169Y-117318986D01*
X62964096Y-117333115D01*
X62907959Y-117389251D01*
X62905556Y-117391589D01*
X62847875Y-117446229D01*
X62833094Y-117464115D01*
X62434028Y-117863181D01*
X62393800Y-117890061D01*
X62346347Y-117899500D01*
X61999991Y-117899500D01*
X61897203Y-117910000D01*
X61730665Y-117965186D01*
X61581345Y-118057286D01*
X61558373Y-118080259D01*
X61525448Y-118113183D01*
X61485223Y-118140061D01*
X61437770Y-118149500D01*
X60789606Y-118149500D01*
X60779543Y-118149091D01*
X60763904Y-118147817D01*
X60726833Y-118144799D01*
X60726832Y-118144799D01*
X60648264Y-118155502D01*
X60644936Y-118155910D01*
X60580508Y-118162917D01*
X60566090Y-118164486D01*
X60566089Y-118164486D01*
X60565972Y-118164499D01*
X60543636Y-118169734D01*
X60469075Y-118197125D01*
X60465912Y-118198239D01*
X60390674Y-118223591D01*
X60369756Y-118233614D01*
X60357237Y-118238215D01*
X60356276Y-118235601D01*
X60308715Y-118249500D01*
X60199991Y-118249500D01*
X60097203Y-118260000D01*
X59930665Y-118315186D01*
X59781342Y-118407288D01*
X59657288Y-118531342D01*
X59565186Y-118680665D01*
X59510000Y-118847202D01*
X59499500Y-118949991D01*
X59499500Y-119550008D01*
X59510000Y-119652796D01*
X59565186Y-119819334D01*
X59657288Y-119968657D01*
X59781342Y-120092711D01*
X59817349Y-120114920D01*
X59930666Y-120184814D01*
X60031038Y-120218074D01*
X60097202Y-120239999D01*
X60106729Y-120240972D01*
X60199991Y-120250500D01*
X60800008Y-120250499D01*
X60902797Y-120239999D01*
X61069334Y-120184814D01*
X61218656Y-120092712D01*
X61233912Y-120077455D01*
X61284877Y-120046697D01*
X61344306Y-120043235D01*
X61398501Y-120067868D01*
X61434969Y-120114920D01*
X61445308Y-120173545D01*
X61427132Y-120230233D01*
X61365186Y-120330665D01*
X61310000Y-120497202D01*
X61299500Y-120599991D01*
X61299500Y-120734979D01*
X61282434Y-120797758D01*
X61235932Y-120843256D01*
X61172796Y-120858950D01*
X61110404Y-120840518D01*
X61069334Y-120815186D01*
X60902797Y-120760000D01*
X60800009Y-120749500D01*
X60641899Y-120749500D01*
X60586806Y-120736589D01*
X60582407Y-120734407D01*
X60560780Y-120726792D01*
X60483233Y-120709723D01*
X60479964Y-120708957D01*
X60402886Y-120689789D01*
X60380116Y-120687000D01*
X60379997Y-120687000D01*
X60300727Y-120687000D01*
X60297370Y-120686955D01*
X60217948Y-120684803D01*
X60194850Y-120687000D01*
X59574730Y-120687000D01*
X59527277Y-120677561D01*
X59487048Y-120650680D01*
X59443656Y-120607288D01*
X59294334Y-120515186D01*
X59127797Y-120460000D01*
X59025009Y-120449500D01*
X57974991Y-120449500D01*
X57872203Y-120460000D01*
X57705665Y-120515186D01*
X57556342Y-120607288D01*
X57432288Y-120731342D01*
X57355539Y-120855774D01*
X57310432Y-120898955D01*
X57250000Y-120914678D01*
X57189568Y-120898955D01*
X57144461Y-120855774D01*
X57067711Y-120731342D01*
X56943657Y-120607288D01*
X56794334Y-120515186D01*
X56627797Y-120460000D01*
X56525009Y-120449500D01*
X55474991Y-120449500D01*
X55372203Y-120460000D01*
X55205665Y-120515186D01*
X55056342Y-120607288D01*
X54932288Y-120731342D01*
X54864901Y-120840596D01*
X54819794Y-120883777D01*
X54759362Y-120899500D01*
X54741196Y-120899500D01*
X54676100Y-120881039D01*
X54569334Y-120815186D01*
X54402797Y-120760000D01*
X54309535Y-120750473D01*
X54300008Y-120749500D01*
X53699991Y-120749500D01*
X53597203Y-120760000D01*
X53430667Y-120815185D01*
X53419700Y-120821949D01*
X53389592Y-120840519D01*
X53327204Y-120858950D01*
X53264067Y-120843257D01*
X53217565Y-120797759D01*
X53200499Y-120734980D01*
X53200499Y-120599991D01*
X53189999Y-120497203D01*
X53156378Y-120395743D01*
X53134814Y-120330666D01*
X53085367Y-120250499D01*
X53072867Y-120230233D01*
X53054691Y-120173546D01*
X53065029Y-120114921D01*
X53101497Y-120067869D01*
X53155691Y-120043235D01*
X53215120Y-120046697D01*
X53266087Y-120077456D01*
X53281342Y-120092711D01*
X53317349Y-120114920D01*
X53430666Y-120184814D01*
X53531038Y-120218074D01*
X53597202Y-120239999D01*
X53606729Y-120240972D01*
X53699991Y-120250500D01*
X53971488Y-120250499D01*
X53977769Y-120250658D01*
X54050935Y-120254369D01*
X54050935Y-120254368D01*
X54050936Y-120254369D01*
X54066862Y-120251928D01*
X54085641Y-120250499D01*
X54300009Y-120250499D01*
X54351402Y-120245248D01*
X54402797Y-120239999D01*
X54569334Y-120184814D01*
X54718656Y-120092712D01*
X54842712Y-119968656D01*
X54934814Y-119819334D01*
X54989999Y-119652797D01*
X55000500Y-119550009D01*
X55000500Y-119251113D01*
X55000500Y-118465783D01*
X55009939Y-118418330D01*
X55036819Y-118378102D01*
X55787970Y-117626951D01*
X59697389Y-113717529D01*
X59699559Y-113715413D01*
X59763053Y-113655059D01*
X59796759Y-113606630D01*
X59802428Y-113599113D01*
X59839698Y-113553407D01*
X59853783Y-113526439D01*
X59861918Y-113513015D01*
X59868373Y-113503740D01*
X59879295Y-113488049D01*
X59902568Y-113433815D01*
X59906598Y-113425331D01*
X59906767Y-113425009D01*
X59933909Y-113373049D01*
X59942278Y-113343797D01*
X59947534Y-113329032D01*
X59959540Y-113301058D01*
X59971418Y-113243256D01*
X59973651Y-113234156D01*
X59989887Y-113177418D01*
X59992197Y-113147077D01*
X59994376Y-113131535D01*
X60000500Y-113101741D01*
X60000500Y-113042758D01*
X60000858Y-113033344D01*
X60001272Y-113027905D01*
X60005337Y-112974524D01*
X60001493Y-112944348D01*
X60000500Y-112928683D01*
X60000500Y-97965783D01*
X60009939Y-97918330D01*
X60036819Y-97878102D01*
X61378101Y-96536819D01*
X61418329Y-96509939D01*
X61465782Y-96500500D01*
X62587769Y-96500500D01*
X62635222Y-96509939D01*
X62675450Y-96536819D01*
X62681342Y-96542711D01*
X62737895Y-96577593D01*
X62830666Y-96634814D01*
X62942017Y-96671712D01*
X62997202Y-96689999D01*
X63007702Y-96691071D01*
X63099991Y-96700500D01*
X63900008Y-96700499D01*
X64002797Y-96689999D01*
X64169334Y-96634814D01*
X64318656Y-96542712D01*
X64412319Y-96449048D01*
X64467905Y-96416955D01*
X64532092Y-96416955D01*
X64587680Y-96449049D01*
X64681342Y-96542711D01*
X64737895Y-96577593D01*
X64830666Y-96634814D01*
X64942017Y-96671712D01*
X64997202Y-96689999D01*
X65007702Y-96691071D01*
X65099991Y-96700500D01*
X65900008Y-96700499D01*
X66002797Y-96689999D01*
X66169334Y-96634814D01*
X66318656Y-96542712D01*
X66412320Y-96449047D01*
X66467906Y-96416955D01*
X66532093Y-96416955D01*
X66587681Y-96449049D01*
X66613181Y-96474549D01*
X66640061Y-96514777D01*
X66649500Y-96562230D01*
X66649500Y-98422894D01*
X66649091Y-98432957D01*
X66644799Y-98485667D01*
X66655502Y-98564232D01*
X66655910Y-98567562D01*
X66664498Y-98646525D01*
X66669732Y-98668856D01*
X66669772Y-98668967D01*
X66669773Y-98668968D01*
X66697129Y-98743434D01*
X66698228Y-98746554D01*
X66723594Y-98821833D01*
X66733509Y-98842525D01*
X66754979Y-98876113D01*
X66774500Y-98942897D01*
X66774500Y-99350008D01*
X66785000Y-99452796D01*
X66840186Y-99619334D01*
X66932288Y-99768657D01*
X67056344Y-99892713D01*
X67059181Y-99894463D01*
X67102360Y-99939569D01*
X67118082Y-100000000D01*
X67102360Y-100060431D01*
X67059181Y-100105537D01*
X67056344Y-100107286D01*
X66932288Y-100231342D01*
X66840186Y-100380665D01*
X66785000Y-100547202D01*
X66774500Y-100649990D01*
X66774500Y-101425008D01*
X66785000Y-101527796D01*
X66840186Y-101694334D01*
X66912913Y-101812245D01*
X66930669Y-101864141D01*
X66924302Y-101918620D01*
X66895056Y-101965022D01*
X66764455Y-102095622D01*
X66708870Y-102127715D01*
X66644683Y-102127715D01*
X66589095Y-102095621D01*
X66487040Y-101993566D01*
X66455876Y-101941266D01*
X66453360Y-101880442D01*
X66494081Y-101686237D01*
X66500500Y-101582842D01*
X66500500Y-99417158D01*
X66494081Y-99313763D01*
X66443050Y-99070386D01*
X66393303Y-98942897D01*
X66352656Y-98838727D01*
X66225365Y-98625103D01*
X66064650Y-98435349D01*
X65874896Y-98274634D01*
X65661272Y-98147343D01*
X65429616Y-98056950D01*
X65186237Y-98005919D01*
X65082842Y-97999500D01*
X62917158Y-97999500D01*
X62834441Y-98004635D01*
X62813762Y-98005919D01*
X62570383Y-98056950D01*
X62338727Y-98147343D01*
X62125103Y-98274634D01*
X61935349Y-98435349D01*
X61774634Y-98625103D01*
X61647343Y-98838727D01*
X61556950Y-99070383D01*
X61505919Y-99313762D01*
X61505919Y-99313763D01*
X61499500Y-99417158D01*
X61499500Y-101582842D01*
X61503043Y-101639904D01*
X61505919Y-101686237D01*
X61556950Y-101929616D01*
X61647343Y-102161272D01*
X61774634Y-102374896D01*
X61935349Y-102564650D01*
X62125103Y-102725365D01*
X62338727Y-102852656D01*
X62537095Y-102930060D01*
X62570386Y-102943050D01*
X62813763Y-102994081D01*
X62917158Y-103000500D01*
X63905664Y-103000500D01*
X63953117Y-103009939D01*
X63993345Y-103036819D01*
X64263181Y-103306655D01*
X64290061Y-103346883D01*
X64299500Y-103394336D01*
X64299500Y-104225008D01*
X64310000Y-104327796D01*
X64365186Y-104494334D01*
X64457288Y-104643657D01*
X64581342Y-104767711D01*
X64581344Y-104767712D01*
X64730666Y-104859814D01*
X64842017Y-104896712D01*
X64897202Y-104914999D01*
X64907703Y-104916071D01*
X64999991Y-104925500D01*
X65980682Y-104925499D01*
X66021637Y-104932458D01*
X66193218Y-104992498D01*
X66415540Y-105027710D01*
X66640578Y-105022660D01*
X66861096Y-104977508D01*
X66968528Y-104934413D01*
X67014694Y-104925499D01*
X68000009Y-104925499D01*
X68051402Y-104920249D01*
X68102797Y-104914999D01*
X68269334Y-104859814D01*
X68418656Y-104767712D01*
X68542712Y-104643656D01*
X68634814Y-104494334D01*
X68689999Y-104327797D01*
X68700500Y-104225009D01*
X68700499Y-103324992D01*
X68689999Y-103222203D01*
X68658731Y-103127845D01*
X68655780Y-103060247D01*
X68688755Y-103001164D01*
X68697409Y-102992510D01*
X68699579Y-102990394D01*
X68763053Y-102930059D01*
X68796757Y-102881633D01*
X68802426Y-102874116D01*
X68839698Y-102828407D01*
X68853783Y-102801439D01*
X68861918Y-102788015D01*
X68868373Y-102778740D01*
X68879295Y-102763049D01*
X68902568Y-102708815D01*
X68906588Y-102700350D01*
X68933909Y-102648049D01*
X68942275Y-102618808D01*
X68947539Y-102604019D01*
X68959540Y-102576058D01*
X68971417Y-102518256D01*
X68973652Y-102509148D01*
X68989886Y-102452418D01*
X68992196Y-102422078D01*
X68994376Y-102406540D01*
X69000500Y-102376742D01*
X69000500Y-102317756D01*
X69000858Y-102308341D01*
X69001154Y-102304449D01*
X69005337Y-102249524D01*
X69001494Y-102219348D01*
X69000500Y-102203683D01*
X69000500Y-101962230D01*
X69009939Y-101914777D01*
X69036820Y-101874548D01*
X69050188Y-101861180D01*
X69067712Y-101843656D01*
X69159814Y-101694334D01*
X69214999Y-101527797D01*
X69225500Y-101425009D01*
X69225499Y-100649992D01*
X69214999Y-100547203D01*
X69159814Y-100380666D01*
X69067712Y-100231344D01*
X69067711Y-100231342D01*
X68943657Y-100107288D01*
X68940821Y-100105539D01*
X68897640Y-100060432D01*
X68881917Y-100000000D01*
X68897640Y-99939568D01*
X68940821Y-99894461D01*
X68943654Y-99892713D01*
X68943656Y-99892712D01*
X69067712Y-99768656D01*
X69159814Y-99619334D01*
X69214999Y-99452797D01*
X69225500Y-99350009D01*
X69225499Y-98574992D01*
X69224569Y-98565892D01*
X69214999Y-98472203D01*
X69200330Y-98427935D01*
X69159814Y-98305666D01*
X69067712Y-98156344D01*
X69067711Y-98156342D01*
X68943657Y-98032288D01*
X68794334Y-97940186D01*
X68627797Y-97885000D01*
X68525009Y-97874500D01*
X68474500Y-97874500D01*
X68412500Y-97857887D01*
X68367113Y-97812500D01*
X68350500Y-97750500D01*
X68350500Y-96562230D01*
X68359938Y-96514778D01*
X68386814Y-96474553D01*
X68412320Y-96449047D01*
X68467904Y-96416956D01*
X68532092Y-96416955D01*
X68587680Y-96449049D01*
X68681342Y-96542711D01*
X68737895Y-96577593D01*
X68830666Y-96634814D01*
X68942017Y-96671712D01*
X68997202Y-96689999D01*
X69007702Y-96691071D01*
X69099991Y-96700500D01*
X69900008Y-96700499D01*
X70002797Y-96689999D01*
X70169334Y-96634814D01*
X70318656Y-96542712D01*
X70318656Y-96542711D01*
X70324550Y-96536819D01*
X70364778Y-96509939D01*
X70412231Y-96500500D01*
X71175500Y-96500500D01*
X71237500Y-96517113D01*
X71282887Y-96562500D01*
X71299500Y-96624500D01*
X71299500Y-96871131D01*
X71302294Y-96923738D01*
X71329840Y-97066165D01*
X71346755Y-97153626D01*
X71429426Y-97372690D01*
X71547930Y-97574632D01*
X71698858Y-97753642D01*
X71877868Y-97904570D01*
X72079810Y-98023074D01*
X72298874Y-98105745D01*
X72528759Y-98150205D01*
X72538326Y-98150713D01*
X72581369Y-98153000D01*
X72581378Y-98153000D01*
X74518622Y-98153000D01*
X74518631Y-98153000D01*
X74558086Y-98150903D01*
X74571241Y-98150205D01*
X74801126Y-98105745D01*
X75020190Y-98023074D01*
X75222132Y-97904570D01*
X75401142Y-97753642D01*
X75552070Y-97574632D01*
X75670574Y-97372690D01*
X75753245Y-97153626D01*
X75797705Y-96923741D01*
X75798919Y-96900882D01*
X75800500Y-96871131D01*
X75800500Y-92433869D01*
X75797705Y-92381261D01*
X75779614Y-92287719D01*
X75753245Y-92151374D01*
X75670574Y-91932310D01*
X75552070Y-91730368D01*
X75445887Y-91604429D01*
X75417779Y-91540903D01*
X75428245Y-91472228D01*
X75474002Y-91419959D01*
X75540689Y-91400500D01*
X81844077Y-91400500D01*
X81905258Y-91416644D01*
G37*
G04 #@! TD.AperFunction*
M02*
