%TF.GenerationSoftware,KiCad,Pcbnew,7.0.1*%
%TF.CreationDate,2023-05-25T18:43:55+02:00*%
%TF.ProjectId,K_Munin400,4b5f4d75-6e69-46e3-9430-302e6b696361,rev?*%
%TF.SameCoordinates,Original*%
%TF.FileFunction,Drillmap*%
%TF.FilePolarity,Positive*%
%FSLAX45Y45*%
G04 Gerber Fmt 4.5, Leading zero omitted, Abs format (unit mm)*
G04 Created by KiCad (PCBNEW 7.0.1) date 2023-05-25 18:43:55*
%MOMM*%
%LPD*%
G01*
G04 APERTURE LIST*
%ADD10C,0.150000*%
%ADD11C,0.100000*%
%ADD12C,0.200000*%
%ADD13C,0.360000*%
G04 APERTURE END LIST*
D10*
X6900000Y-12000000D02*
X8900000Y-12000000D01*
X8900000Y-14500000D01*
X6900000Y-14500000D01*
X6900000Y-12000000D01*
X6900000Y-6700000D02*
X8900000Y-6700000D01*
X8900000Y-9200000D01*
X6900000Y-9200000D01*
X6900000Y-6700000D01*
D11*
X5000000Y-6000000D02*
X17000000Y-6000000D01*
X17000000Y-17000000D01*
X5000000Y-17000000D01*
X5000000Y-6000000D01*
D12*
D13*
X7720000Y-7299250D02*
X8080000Y-7659250D01*
X8080000Y-7299250D02*
X7720000Y-7659250D01*
X7720000Y-13490750D02*
X8080000Y-13850750D01*
X8080000Y-13490750D02*
X7720000Y-13850750D01*
D12*
X5242619Y-17317524D02*
X5242619Y-17117524D01*
X5242619Y-17117524D02*
X5290238Y-17117524D01*
X5290238Y-17117524D02*
X5318810Y-17127048D01*
X5318810Y-17127048D02*
X5337857Y-17146095D01*
X5337857Y-17146095D02*
X5347381Y-17165143D01*
X5347381Y-17165143D02*
X5356905Y-17203238D01*
X5356905Y-17203238D02*
X5356905Y-17231810D01*
X5356905Y-17231810D02*
X5347381Y-17269905D01*
X5347381Y-17269905D02*
X5337857Y-17288952D01*
X5337857Y-17288952D02*
X5318810Y-17308000D01*
X5318810Y-17308000D02*
X5290238Y-17317524D01*
X5290238Y-17317524D02*
X5242619Y-17317524D01*
X5442619Y-17317524D02*
X5442619Y-17184190D01*
X5442619Y-17222286D02*
X5452143Y-17203238D01*
X5452143Y-17203238D02*
X5461667Y-17193714D01*
X5461667Y-17193714D02*
X5480714Y-17184190D01*
X5480714Y-17184190D02*
X5499762Y-17184190D01*
X5566429Y-17317524D02*
X5566429Y-17184190D01*
X5566429Y-17117524D02*
X5556905Y-17127048D01*
X5556905Y-17127048D02*
X5566429Y-17136571D01*
X5566429Y-17136571D02*
X5575952Y-17127048D01*
X5575952Y-17127048D02*
X5566429Y-17117524D01*
X5566429Y-17117524D02*
X5566429Y-17136571D01*
X5690238Y-17317524D02*
X5671190Y-17308000D01*
X5671190Y-17308000D02*
X5661667Y-17288952D01*
X5661667Y-17288952D02*
X5661667Y-17117524D01*
X5795000Y-17317524D02*
X5775952Y-17308000D01*
X5775952Y-17308000D02*
X5766428Y-17288952D01*
X5766428Y-17288952D02*
X5766428Y-17117524D01*
X6023571Y-17317524D02*
X6023571Y-17117524D01*
X6023571Y-17117524D02*
X6090238Y-17260381D01*
X6090238Y-17260381D02*
X6156905Y-17117524D01*
X6156905Y-17117524D02*
X6156905Y-17317524D01*
X6337857Y-17317524D02*
X6337857Y-17212762D01*
X6337857Y-17212762D02*
X6328333Y-17193714D01*
X6328333Y-17193714D02*
X6309286Y-17184190D01*
X6309286Y-17184190D02*
X6271190Y-17184190D01*
X6271190Y-17184190D02*
X6252143Y-17193714D01*
X6337857Y-17308000D02*
X6318809Y-17317524D01*
X6318809Y-17317524D02*
X6271190Y-17317524D01*
X6271190Y-17317524D02*
X6252143Y-17308000D01*
X6252143Y-17308000D02*
X6242619Y-17288952D01*
X6242619Y-17288952D02*
X6242619Y-17269905D01*
X6242619Y-17269905D02*
X6252143Y-17250857D01*
X6252143Y-17250857D02*
X6271190Y-17241333D01*
X6271190Y-17241333D02*
X6318809Y-17241333D01*
X6318809Y-17241333D02*
X6337857Y-17231810D01*
X6433095Y-17184190D02*
X6433095Y-17384190D01*
X6433095Y-17193714D02*
X6452143Y-17184190D01*
X6452143Y-17184190D02*
X6490238Y-17184190D01*
X6490238Y-17184190D02*
X6509286Y-17193714D01*
X6509286Y-17193714D02*
X6518809Y-17203238D01*
X6518809Y-17203238D02*
X6528333Y-17222286D01*
X6528333Y-17222286D02*
X6528333Y-17279429D01*
X6528333Y-17279429D02*
X6518809Y-17298476D01*
X6518809Y-17298476D02*
X6509286Y-17308000D01*
X6509286Y-17308000D02*
X6490238Y-17317524D01*
X6490238Y-17317524D02*
X6452143Y-17317524D01*
X6452143Y-17317524D02*
X6433095Y-17308000D01*
X6614048Y-17298476D02*
X6623571Y-17308000D01*
X6623571Y-17308000D02*
X6614048Y-17317524D01*
X6614048Y-17317524D02*
X6604524Y-17308000D01*
X6604524Y-17308000D02*
X6614048Y-17298476D01*
X6614048Y-17298476D02*
X6614048Y-17317524D01*
X6614048Y-17193714D02*
X6623571Y-17203238D01*
X6623571Y-17203238D02*
X6614048Y-17212762D01*
X6614048Y-17212762D02*
X6604524Y-17203238D01*
X6604524Y-17203238D02*
X6614048Y-17193714D01*
X6614048Y-17193714D02*
X6614048Y-17212762D01*
X4795000Y-17545000D02*
X4995000Y-17745000D01*
X4995000Y-17545000D02*
X4795000Y-17745000D01*
X5223571Y-17537524D02*
X5347381Y-17537524D01*
X5347381Y-17537524D02*
X5280714Y-17613714D01*
X5280714Y-17613714D02*
X5309286Y-17613714D01*
X5309286Y-17613714D02*
X5328333Y-17623238D01*
X5328333Y-17623238D02*
X5337857Y-17632762D01*
X5337857Y-17632762D02*
X5347381Y-17651810D01*
X5347381Y-17651810D02*
X5347381Y-17699429D01*
X5347381Y-17699429D02*
X5337857Y-17718476D01*
X5337857Y-17718476D02*
X5328333Y-17728000D01*
X5328333Y-17728000D02*
X5309286Y-17737524D01*
X5309286Y-17737524D02*
X5252143Y-17737524D01*
X5252143Y-17737524D02*
X5233095Y-17728000D01*
X5233095Y-17728000D02*
X5223571Y-17718476D01*
X5433095Y-17718476D02*
X5442619Y-17728000D01*
X5442619Y-17728000D02*
X5433095Y-17737524D01*
X5433095Y-17737524D02*
X5423571Y-17728000D01*
X5423571Y-17728000D02*
X5433095Y-17718476D01*
X5433095Y-17718476D02*
X5433095Y-17737524D01*
X5614048Y-17537524D02*
X5575952Y-17537524D01*
X5575952Y-17537524D02*
X5556905Y-17547048D01*
X5556905Y-17547048D02*
X5547381Y-17556571D01*
X5547381Y-17556571D02*
X5528333Y-17585143D01*
X5528333Y-17585143D02*
X5518810Y-17623238D01*
X5518810Y-17623238D02*
X5518810Y-17699429D01*
X5518810Y-17699429D02*
X5528333Y-17718476D01*
X5528333Y-17718476D02*
X5537857Y-17728000D01*
X5537857Y-17728000D02*
X5556905Y-17737524D01*
X5556905Y-17737524D02*
X5595000Y-17737524D01*
X5595000Y-17737524D02*
X5614048Y-17728000D01*
X5614048Y-17728000D02*
X5623571Y-17718476D01*
X5623571Y-17718476D02*
X5633095Y-17699429D01*
X5633095Y-17699429D02*
X5633095Y-17651810D01*
X5633095Y-17651810D02*
X5623571Y-17632762D01*
X5623571Y-17632762D02*
X5614048Y-17623238D01*
X5614048Y-17623238D02*
X5595000Y-17613714D01*
X5595000Y-17613714D02*
X5556905Y-17613714D01*
X5556905Y-17613714D02*
X5537857Y-17623238D01*
X5537857Y-17623238D02*
X5528333Y-17632762D01*
X5528333Y-17632762D02*
X5518810Y-17651810D01*
X5756905Y-17537524D02*
X5775952Y-17537524D01*
X5775952Y-17537524D02*
X5795000Y-17547048D01*
X5795000Y-17547048D02*
X5804524Y-17556571D01*
X5804524Y-17556571D02*
X5814048Y-17575619D01*
X5814048Y-17575619D02*
X5823571Y-17613714D01*
X5823571Y-17613714D02*
X5823571Y-17661333D01*
X5823571Y-17661333D02*
X5814048Y-17699429D01*
X5814048Y-17699429D02*
X5804524Y-17718476D01*
X5804524Y-17718476D02*
X5795000Y-17728000D01*
X5795000Y-17728000D02*
X5775952Y-17737524D01*
X5775952Y-17737524D02*
X5756905Y-17737524D01*
X5756905Y-17737524D02*
X5737857Y-17728000D01*
X5737857Y-17728000D02*
X5728333Y-17718476D01*
X5728333Y-17718476D02*
X5718809Y-17699429D01*
X5718809Y-17699429D02*
X5709286Y-17661333D01*
X5709286Y-17661333D02*
X5709286Y-17613714D01*
X5709286Y-17613714D02*
X5718809Y-17575619D01*
X5718809Y-17575619D02*
X5728333Y-17556571D01*
X5728333Y-17556571D02*
X5737857Y-17547048D01*
X5737857Y-17547048D02*
X5756905Y-17537524D01*
X5947381Y-17537524D02*
X5966429Y-17537524D01*
X5966429Y-17537524D02*
X5985476Y-17547048D01*
X5985476Y-17547048D02*
X5995000Y-17556571D01*
X5995000Y-17556571D02*
X6004524Y-17575619D01*
X6004524Y-17575619D02*
X6014048Y-17613714D01*
X6014048Y-17613714D02*
X6014048Y-17661333D01*
X6014048Y-17661333D02*
X6004524Y-17699429D01*
X6004524Y-17699429D02*
X5995000Y-17718476D01*
X5995000Y-17718476D02*
X5985476Y-17728000D01*
X5985476Y-17728000D02*
X5966429Y-17737524D01*
X5966429Y-17737524D02*
X5947381Y-17737524D01*
X5947381Y-17737524D02*
X5928333Y-17728000D01*
X5928333Y-17728000D02*
X5918809Y-17718476D01*
X5918809Y-17718476D02*
X5909286Y-17699429D01*
X5909286Y-17699429D02*
X5899762Y-17661333D01*
X5899762Y-17661333D02*
X5899762Y-17613714D01*
X5899762Y-17613714D02*
X5909286Y-17575619D01*
X5909286Y-17575619D02*
X5918809Y-17556571D01*
X5918809Y-17556571D02*
X5928333Y-17547048D01*
X5928333Y-17547048D02*
X5947381Y-17537524D01*
X6099762Y-17737524D02*
X6099762Y-17604190D01*
X6099762Y-17623238D02*
X6109286Y-17613714D01*
X6109286Y-17613714D02*
X6128333Y-17604190D01*
X6128333Y-17604190D02*
X6156905Y-17604190D01*
X6156905Y-17604190D02*
X6175952Y-17613714D01*
X6175952Y-17613714D02*
X6185476Y-17632762D01*
X6185476Y-17632762D02*
X6185476Y-17737524D01*
X6185476Y-17632762D02*
X6195000Y-17613714D01*
X6195000Y-17613714D02*
X6214048Y-17604190D01*
X6214048Y-17604190D02*
X6242619Y-17604190D01*
X6242619Y-17604190D02*
X6261667Y-17613714D01*
X6261667Y-17613714D02*
X6271190Y-17632762D01*
X6271190Y-17632762D02*
X6271190Y-17737524D01*
X6366429Y-17737524D02*
X6366429Y-17604190D01*
X6366429Y-17623238D02*
X6375952Y-17613714D01*
X6375952Y-17613714D02*
X6395000Y-17604190D01*
X6395000Y-17604190D02*
X6423571Y-17604190D01*
X6423571Y-17604190D02*
X6442619Y-17613714D01*
X6442619Y-17613714D02*
X6452143Y-17632762D01*
X6452143Y-17632762D02*
X6452143Y-17737524D01*
X6452143Y-17632762D02*
X6461667Y-17613714D01*
X6461667Y-17613714D02*
X6480714Y-17604190D01*
X6480714Y-17604190D02*
X6509286Y-17604190D01*
X6509286Y-17604190D02*
X6528333Y-17613714D01*
X6528333Y-17613714D02*
X6537857Y-17632762D01*
X6537857Y-17632762D02*
X6537857Y-17737524D01*
X6928333Y-17528000D02*
X6756905Y-17785143D01*
X7185476Y-17537524D02*
X7204524Y-17537524D01*
X7204524Y-17537524D02*
X7223572Y-17547048D01*
X7223572Y-17547048D02*
X7233095Y-17556571D01*
X7233095Y-17556571D02*
X7242619Y-17575619D01*
X7242619Y-17575619D02*
X7252143Y-17613714D01*
X7252143Y-17613714D02*
X7252143Y-17661333D01*
X7252143Y-17661333D02*
X7242619Y-17699429D01*
X7242619Y-17699429D02*
X7233095Y-17718476D01*
X7233095Y-17718476D02*
X7223572Y-17728000D01*
X7223572Y-17728000D02*
X7204524Y-17737524D01*
X7204524Y-17737524D02*
X7185476Y-17737524D01*
X7185476Y-17737524D02*
X7166429Y-17728000D01*
X7166429Y-17728000D02*
X7156905Y-17718476D01*
X7156905Y-17718476D02*
X7147381Y-17699429D01*
X7147381Y-17699429D02*
X7137857Y-17661333D01*
X7137857Y-17661333D02*
X7137857Y-17613714D01*
X7137857Y-17613714D02*
X7147381Y-17575619D01*
X7147381Y-17575619D02*
X7156905Y-17556571D01*
X7156905Y-17556571D02*
X7166429Y-17547048D01*
X7166429Y-17547048D02*
X7185476Y-17537524D01*
X7337857Y-17718476D02*
X7347381Y-17728000D01*
X7347381Y-17728000D02*
X7337857Y-17737524D01*
X7337857Y-17737524D02*
X7328333Y-17728000D01*
X7328333Y-17728000D02*
X7337857Y-17718476D01*
X7337857Y-17718476D02*
X7337857Y-17737524D01*
X7537857Y-17737524D02*
X7423572Y-17737524D01*
X7480714Y-17737524D02*
X7480714Y-17537524D01*
X7480714Y-17537524D02*
X7461667Y-17566095D01*
X7461667Y-17566095D02*
X7442619Y-17585143D01*
X7442619Y-17585143D02*
X7423572Y-17594667D01*
X7709286Y-17604190D02*
X7709286Y-17737524D01*
X7661667Y-17528000D02*
X7614048Y-17670857D01*
X7614048Y-17670857D02*
X7737857Y-17670857D01*
X7918810Y-17737524D02*
X7804524Y-17737524D01*
X7861667Y-17737524D02*
X7861667Y-17537524D01*
X7861667Y-17537524D02*
X7842619Y-17566095D01*
X7842619Y-17566095D02*
X7823572Y-17585143D01*
X7823572Y-17585143D02*
X7804524Y-17594667D01*
X7985476Y-17537524D02*
X8118810Y-17537524D01*
X8118810Y-17537524D02*
X8033095Y-17737524D01*
X8185476Y-17537524D02*
X8185476Y-17575619D01*
X8261667Y-17537524D02*
X8261667Y-17575619D01*
X8556905Y-17813714D02*
X8547381Y-17804190D01*
X8547381Y-17804190D02*
X8528334Y-17775619D01*
X8528334Y-17775619D02*
X8518810Y-17756571D01*
X8518810Y-17756571D02*
X8509286Y-17728000D01*
X8509286Y-17728000D02*
X8499762Y-17680381D01*
X8499762Y-17680381D02*
X8499762Y-17642286D01*
X8499762Y-17642286D02*
X8509286Y-17594667D01*
X8509286Y-17594667D02*
X8518810Y-17566095D01*
X8518810Y-17566095D02*
X8528334Y-17547048D01*
X8528334Y-17547048D02*
X8547381Y-17518476D01*
X8547381Y-17518476D02*
X8556905Y-17508952D01*
X8623572Y-17556571D02*
X8633096Y-17547048D01*
X8633096Y-17547048D02*
X8652143Y-17537524D01*
X8652143Y-17537524D02*
X8699762Y-17537524D01*
X8699762Y-17537524D02*
X8718810Y-17547048D01*
X8718810Y-17547048D02*
X8728334Y-17556571D01*
X8728334Y-17556571D02*
X8737857Y-17575619D01*
X8737857Y-17575619D02*
X8737857Y-17594667D01*
X8737857Y-17594667D02*
X8728334Y-17623238D01*
X8728334Y-17623238D02*
X8614048Y-17737524D01*
X8614048Y-17737524D02*
X8737857Y-17737524D01*
X8975953Y-17737524D02*
X8975953Y-17537524D01*
X9061667Y-17737524D02*
X9061667Y-17632762D01*
X9061667Y-17632762D02*
X9052143Y-17613714D01*
X9052143Y-17613714D02*
X9033096Y-17604190D01*
X9033096Y-17604190D02*
X9004524Y-17604190D01*
X9004524Y-17604190D02*
X8985477Y-17613714D01*
X8985477Y-17613714D02*
X8975953Y-17623238D01*
X9185477Y-17737524D02*
X9166429Y-17728000D01*
X9166429Y-17728000D02*
X9156905Y-17718476D01*
X9156905Y-17718476D02*
X9147381Y-17699429D01*
X9147381Y-17699429D02*
X9147381Y-17642286D01*
X9147381Y-17642286D02*
X9156905Y-17623238D01*
X9156905Y-17623238D02*
X9166429Y-17613714D01*
X9166429Y-17613714D02*
X9185477Y-17604190D01*
X9185477Y-17604190D02*
X9214048Y-17604190D01*
X9214048Y-17604190D02*
X9233096Y-17613714D01*
X9233096Y-17613714D02*
X9242619Y-17623238D01*
X9242619Y-17623238D02*
X9252143Y-17642286D01*
X9252143Y-17642286D02*
X9252143Y-17699429D01*
X9252143Y-17699429D02*
X9242619Y-17718476D01*
X9242619Y-17718476D02*
X9233096Y-17728000D01*
X9233096Y-17728000D02*
X9214048Y-17737524D01*
X9214048Y-17737524D02*
X9185477Y-17737524D01*
X9366429Y-17737524D02*
X9347381Y-17728000D01*
X9347381Y-17728000D02*
X9337858Y-17708952D01*
X9337858Y-17708952D02*
X9337858Y-17537524D01*
X9518810Y-17728000D02*
X9499762Y-17737524D01*
X9499762Y-17737524D02*
X9461667Y-17737524D01*
X9461667Y-17737524D02*
X9442619Y-17728000D01*
X9442619Y-17728000D02*
X9433096Y-17708952D01*
X9433096Y-17708952D02*
X9433096Y-17632762D01*
X9433096Y-17632762D02*
X9442619Y-17613714D01*
X9442619Y-17613714D02*
X9461667Y-17604190D01*
X9461667Y-17604190D02*
X9499762Y-17604190D01*
X9499762Y-17604190D02*
X9518810Y-17613714D01*
X9518810Y-17613714D02*
X9528334Y-17632762D01*
X9528334Y-17632762D02*
X9528334Y-17651810D01*
X9528334Y-17651810D02*
X9433096Y-17670857D01*
X9604524Y-17728000D02*
X9623572Y-17737524D01*
X9623572Y-17737524D02*
X9661667Y-17737524D01*
X9661667Y-17737524D02*
X9680715Y-17728000D01*
X9680715Y-17728000D02*
X9690239Y-17708952D01*
X9690239Y-17708952D02*
X9690239Y-17699429D01*
X9690239Y-17699429D02*
X9680715Y-17680381D01*
X9680715Y-17680381D02*
X9661667Y-17670857D01*
X9661667Y-17670857D02*
X9633096Y-17670857D01*
X9633096Y-17670857D02*
X9614048Y-17661333D01*
X9614048Y-17661333D02*
X9604524Y-17642286D01*
X9604524Y-17642286D02*
X9604524Y-17632762D01*
X9604524Y-17632762D02*
X9614048Y-17613714D01*
X9614048Y-17613714D02*
X9633096Y-17604190D01*
X9633096Y-17604190D02*
X9661667Y-17604190D01*
X9661667Y-17604190D02*
X9680715Y-17613714D01*
X9756905Y-17813714D02*
X9766429Y-17804190D01*
X9766429Y-17804190D02*
X9785477Y-17775619D01*
X9785477Y-17775619D02*
X9795000Y-17756571D01*
X9795000Y-17756571D02*
X9804524Y-17728000D01*
X9804524Y-17728000D02*
X9814048Y-17680381D01*
X9814048Y-17680381D02*
X9814048Y-17642286D01*
X9814048Y-17642286D02*
X9804524Y-17594667D01*
X9804524Y-17594667D02*
X9795000Y-17566095D01*
X9795000Y-17566095D02*
X9785477Y-17547048D01*
X9785477Y-17547048D02*
X9766429Y-17518476D01*
X9766429Y-17518476D02*
X9756905Y-17508952D01*
X10118810Y-17813714D02*
X10109286Y-17804190D01*
X10109286Y-17804190D02*
X10090239Y-17775619D01*
X10090239Y-17775619D02*
X10080715Y-17756571D01*
X10080715Y-17756571D02*
X10071191Y-17728000D01*
X10071191Y-17728000D02*
X10061667Y-17680381D01*
X10061667Y-17680381D02*
X10061667Y-17642286D01*
X10061667Y-17642286D02*
X10071191Y-17594667D01*
X10071191Y-17594667D02*
X10080715Y-17566095D01*
X10080715Y-17566095D02*
X10090239Y-17547048D01*
X10090239Y-17547048D02*
X10109286Y-17518476D01*
X10109286Y-17518476D02*
X10118810Y-17508952D01*
X10195000Y-17604190D02*
X10195000Y-17737524D01*
X10195000Y-17623238D02*
X10204524Y-17613714D01*
X10204524Y-17613714D02*
X10223572Y-17604190D01*
X10223572Y-17604190D02*
X10252143Y-17604190D01*
X10252143Y-17604190D02*
X10271191Y-17613714D01*
X10271191Y-17613714D02*
X10280715Y-17632762D01*
X10280715Y-17632762D02*
X10280715Y-17737524D01*
X10404524Y-17737524D02*
X10385477Y-17728000D01*
X10385477Y-17728000D02*
X10375953Y-17718476D01*
X10375953Y-17718476D02*
X10366429Y-17699429D01*
X10366429Y-17699429D02*
X10366429Y-17642286D01*
X10366429Y-17642286D02*
X10375953Y-17623238D01*
X10375953Y-17623238D02*
X10385477Y-17613714D01*
X10385477Y-17613714D02*
X10404524Y-17604190D01*
X10404524Y-17604190D02*
X10433096Y-17604190D01*
X10433096Y-17604190D02*
X10452143Y-17613714D01*
X10452143Y-17613714D02*
X10461667Y-17623238D01*
X10461667Y-17623238D02*
X10471191Y-17642286D01*
X10471191Y-17642286D02*
X10471191Y-17699429D01*
X10471191Y-17699429D02*
X10461667Y-17718476D01*
X10461667Y-17718476D02*
X10452143Y-17728000D01*
X10452143Y-17728000D02*
X10433096Y-17737524D01*
X10433096Y-17737524D02*
X10404524Y-17737524D01*
X10528334Y-17604190D02*
X10604524Y-17604190D01*
X10556905Y-17537524D02*
X10556905Y-17708952D01*
X10556905Y-17708952D02*
X10566429Y-17728000D01*
X10566429Y-17728000D02*
X10585477Y-17737524D01*
X10585477Y-17737524D02*
X10604524Y-17737524D01*
X10823572Y-17604190D02*
X10823572Y-17804190D01*
X10823572Y-17613714D02*
X10842620Y-17604190D01*
X10842620Y-17604190D02*
X10880715Y-17604190D01*
X10880715Y-17604190D02*
X10899762Y-17613714D01*
X10899762Y-17613714D02*
X10909286Y-17623238D01*
X10909286Y-17623238D02*
X10918810Y-17642286D01*
X10918810Y-17642286D02*
X10918810Y-17699429D01*
X10918810Y-17699429D02*
X10909286Y-17718476D01*
X10909286Y-17718476D02*
X10899762Y-17728000D01*
X10899762Y-17728000D02*
X10880715Y-17737524D01*
X10880715Y-17737524D02*
X10842620Y-17737524D01*
X10842620Y-17737524D02*
X10823572Y-17728000D01*
X11033096Y-17737524D02*
X11014048Y-17728000D01*
X11014048Y-17728000D02*
X11004524Y-17708952D01*
X11004524Y-17708952D02*
X11004524Y-17537524D01*
X11195000Y-17737524D02*
X11195000Y-17632762D01*
X11195000Y-17632762D02*
X11185477Y-17613714D01*
X11185477Y-17613714D02*
X11166429Y-17604190D01*
X11166429Y-17604190D02*
X11128334Y-17604190D01*
X11128334Y-17604190D02*
X11109286Y-17613714D01*
X11195000Y-17728000D02*
X11175953Y-17737524D01*
X11175953Y-17737524D02*
X11128334Y-17737524D01*
X11128334Y-17737524D02*
X11109286Y-17728000D01*
X11109286Y-17728000D02*
X11099762Y-17708952D01*
X11099762Y-17708952D02*
X11099762Y-17689905D01*
X11099762Y-17689905D02*
X11109286Y-17670857D01*
X11109286Y-17670857D02*
X11128334Y-17661333D01*
X11128334Y-17661333D02*
X11175953Y-17661333D01*
X11175953Y-17661333D02*
X11195000Y-17651810D01*
X11261667Y-17604190D02*
X11337858Y-17604190D01*
X11290239Y-17537524D02*
X11290239Y-17708952D01*
X11290239Y-17708952D02*
X11299762Y-17728000D01*
X11299762Y-17728000D02*
X11318810Y-17737524D01*
X11318810Y-17737524D02*
X11337858Y-17737524D01*
X11480715Y-17728000D02*
X11461667Y-17737524D01*
X11461667Y-17737524D02*
X11423572Y-17737524D01*
X11423572Y-17737524D02*
X11404524Y-17728000D01*
X11404524Y-17728000D02*
X11395000Y-17708952D01*
X11395000Y-17708952D02*
X11395000Y-17632762D01*
X11395000Y-17632762D02*
X11404524Y-17613714D01*
X11404524Y-17613714D02*
X11423572Y-17604190D01*
X11423572Y-17604190D02*
X11461667Y-17604190D01*
X11461667Y-17604190D02*
X11480715Y-17613714D01*
X11480715Y-17613714D02*
X11490239Y-17632762D01*
X11490239Y-17632762D02*
X11490239Y-17651810D01*
X11490239Y-17651810D02*
X11395000Y-17670857D01*
X11661667Y-17737524D02*
X11661667Y-17537524D01*
X11661667Y-17728000D02*
X11642620Y-17737524D01*
X11642620Y-17737524D02*
X11604524Y-17737524D01*
X11604524Y-17737524D02*
X11585477Y-17728000D01*
X11585477Y-17728000D02*
X11575953Y-17718476D01*
X11575953Y-17718476D02*
X11566429Y-17699429D01*
X11566429Y-17699429D02*
X11566429Y-17642286D01*
X11566429Y-17642286D02*
X11575953Y-17623238D01*
X11575953Y-17623238D02*
X11585477Y-17613714D01*
X11585477Y-17613714D02*
X11604524Y-17604190D01*
X11604524Y-17604190D02*
X11642620Y-17604190D01*
X11642620Y-17604190D02*
X11661667Y-17613714D01*
X11737858Y-17813714D02*
X11747381Y-17804190D01*
X11747381Y-17804190D02*
X11766429Y-17775619D01*
X11766429Y-17775619D02*
X11775953Y-17756571D01*
X11775953Y-17756571D02*
X11785477Y-17728000D01*
X11785477Y-17728000D02*
X11795000Y-17680381D01*
X11795000Y-17680381D02*
X11795000Y-17642286D01*
X11795000Y-17642286D02*
X11785477Y-17594667D01*
X11785477Y-17594667D02*
X11775953Y-17566095D01*
X11775953Y-17566095D02*
X11766429Y-17547048D01*
X11766429Y-17547048D02*
X11747381Y-17518476D01*
X11747381Y-17518476D02*
X11737858Y-17508952D01*
M02*
