G04 #@! TF.GenerationSoftware,KiCad,Pcbnew,7.0.1*
G04 #@! TF.CreationDate,2023-05-27T09:10:50+02:00*
G04 #@! TF.ProjectId,K_Munin400,4b5f4d75-6e69-46e3-9430-302e6b696361,rev?*
G04 #@! TF.SameCoordinates,Original*
G04 #@! TF.FileFunction,Paste,Top*
G04 #@! TF.FilePolarity,Positive*
%FSLAX46Y46*%
G04 Gerber Fmt 4.6, Leading zero omitted, Abs format (unit mm)*
G04 Created by KiCad (PCBNEW 7.0.1) date 2023-05-27 09:10:50*
%MOMM*%
%LPD*%
G01*
G04 APERTURE LIST*
G04 Aperture macros list*
%AMRoundRect*
0 Rectangle with rounded corners*
0 $1 Rounding radius*
0 $2 $3 $4 $5 $6 $7 $8 $9 X,Y pos of 4 corners*
0 Add a 4 corners polygon primitive as box body*
4,1,4,$2,$3,$4,$5,$6,$7,$8,$9,$2,$3,0*
0 Add four circle primitives for the rounded corners*
1,1,$1+$1,$2,$3*
1,1,$1+$1,$4,$5*
1,1,$1+$1,$6,$7*
1,1,$1+$1,$8,$9*
0 Add four rect primitives between the rounded corners*
20,1,$1+$1,$2,$3,$4,$5,0*
20,1,$1+$1,$4,$5,$6,$7,0*
20,1,$1+$1,$6,$7,$8,$9,0*
20,1,$1+$1,$8,$9,$2,$3,0*%
G04 Aperture macros list end*
%ADD10RoundRect,0.500000X-0.500000X1.500000X-0.500000X-1.500000X0.500000X-1.500000X0.500000X1.500000X0*%
%ADD11RoundRect,1.625000X-1.625000X1.625000X-1.625000X-1.625000X1.625000X-1.625000X1.625000X1.625000X0*%
%ADD12RoundRect,0.250000X0.475000X-0.337500X0.475000X0.337500X-0.475000X0.337500X-0.475000X-0.337500X0*%
%ADD13RoundRect,0.250000X-0.475000X0.337500X-0.475000X-0.337500X0.475000X-0.337500X0.475000X0.337500X0*%
%ADD14RoundRect,1.000000X-1.000000X-3.000000X1.000000X-3.000000X1.000000X3.000000X-1.000000X3.000000X0*%
%ADD15RoundRect,0.250000X-0.537500X-1.450000X0.537500X-1.450000X0.537500X1.450000X-0.537500X1.450000X0*%
%ADD16RoundRect,0.250000X0.337500X0.475000X-0.337500X0.475000X-0.337500X-0.475000X0.337500X-0.475000X0*%
%ADD17R,3.150000X1.000000*%
%ADD18R,1.190000X2.790000*%
%ADD19RoundRect,0.250000X0.250000X-0.250000X0.250000X0.250000X-0.250000X0.250000X-0.250000X-0.250000X0*%
%ADD20RoundRect,0.250000X-0.450000X0.350000X-0.450000X-0.350000X0.450000X-0.350000X0.450000X0.350000X0*%
%ADD21RoundRect,0.250000X-0.350000X-0.450000X0.350000X-0.450000X0.350000X0.450000X-0.350000X0.450000X0*%
%ADD22RoundRect,0.250000X1.450000X-0.537500X1.450000X0.537500X-1.450000X0.537500X-1.450000X-0.537500X0*%
%ADD23RoundRect,0.250000X-0.250000X0.250000X-0.250000X-0.250000X0.250000X-0.250000X0.250000X0.250000X0*%
%ADD24RoundRect,0.250000X-1.025000X0.875000X-1.025000X-0.875000X1.025000X-0.875000X1.025000X0.875000X0*%
%ADD25RoundRect,0.249999X-4.550001X4.150001X-4.550001X-4.150001X4.550001X-4.150001X4.550001X4.150001X0*%
%ADD26RoundRect,0.249999X2.450001X-0.737501X2.450001X0.737501X-2.450001X0.737501X-2.450001X-0.737501X0*%
%ADD27RoundRect,0.491801X1.008199X1.008199X-1.008199X1.008199X-1.008199X-1.008199X1.008199X-1.008199X0*%
%ADD28RoundRect,0.150000X0.825000X0.150000X-0.825000X0.150000X-0.825000X-0.150000X0.825000X-0.150000X0*%
%ADD29RoundRect,0.250000X-1.450000X0.400000X-1.450000X-0.400000X1.450000X-0.400000X1.450000X0.400000X0*%
%ADD30RoundRect,0.250000X-1.450000X0.537500X-1.450000X-0.537500X1.450000X-0.537500X1.450000X0.537500X0*%
%ADD31RoundRect,0.150000X-0.825000X-0.150000X0.825000X-0.150000X0.825000X0.150000X-0.825000X0.150000X0*%
%ADD32RoundRect,0.875000X-0.875000X-2.125000X0.875000X-2.125000X0.875000X2.125000X-0.875000X2.125000X0*%
%ADD33RoundRect,0.250001X-0.799999X1.999999X-0.799999X-1.999999X0.799999X-1.999999X0.799999X1.999999X0*%
%ADD34R,2.100000X2.600000*%
%ADD35RoundRect,0.750000X1.250000X0.750000X-1.250000X0.750000X-1.250000X-0.750000X1.250000X-0.750000X0*%
%ADD36RoundRect,0.250000X0.350000X0.450000X-0.350000X0.450000X-0.350000X-0.450000X0.350000X-0.450000X0*%
%ADD37RoundRect,1.625000X1.625000X1.625000X-1.625000X1.625000X-1.625000X-1.625000X1.625000X-1.625000X0*%
%ADD38RoundRect,0.150000X0.150000X-0.587500X0.150000X0.587500X-0.150000X0.587500X-0.150000X-0.587500X0*%
%ADD39RoundRect,1.000000X1.000000X-1.000000X1.000000X1.000000X-1.000000X1.000000X-1.000000X-1.000000X0*%
%ADD40RoundRect,0.250000X-0.350000X0.850000X-0.350000X-0.850000X0.350000X-0.850000X0.350000X0.850000X0*%
%ADD41RoundRect,0.250000X-1.125000X1.275000X-1.125000X-1.275000X1.125000X-1.275000X1.125000X1.275000X0*%
%ADD42RoundRect,0.491801X-1.008199X1.008199X-1.008199X-1.008199X1.008199X-1.008199X1.008199X1.008199X0*%
%ADD43RoundRect,1.625000X1.625000X-1.625000X1.625000X1.625000X-1.625000X1.625000X-1.625000X-1.625000X0*%
%ADD44RoundRect,0.500000X0.500000X-1.500000X0.500000X1.500000X-0.500000X1.500000X-0.500000X-1.500000X0*%
G04 APERTURE END LIST*
D10*
X93900000Y-101100000D03*
D11*
X116700000Y-111000000D03*
X95900000Y-110900000D03*
X116900000Y-120500000D03*
D12*
X58500000Y-121537500D03*
X58500000Y-119462500D03*
D13*
X156000000Y-155962500D03*
X156000000Y-158037500D03*
D14*
X66300000Y-88000000D03*
X91700000Y-88000000D03*
D15*
X122225000Y-117550000D03*
X126500000Y-117550000D03*
D16*
X54037500Y-144500000D03*
X51962500Y-144500000D03*
D17*
X78975000Y-160700000D03*
X84025000Y-160700000D03*
X78975000Y-163240000D03*
X84025000Y-163240000D03*
X78975000Y-165780000D03*
X84025000Y-165780000D03*
D18*
X129440000Y-133985000D03*
X126900000Y-138815000D03*
X124360000Y-133985000D03*
D19*
X54000000Y-107250000D03*
X54000000Y-104750000D03*
D15*
X122225000Y-97550000D03*
X126500000Y-97550000D03*
D20*
X117600000Y-144400000D03*
X117600000Y-146400000D03*
D21*
X67500000Y-116000000D03*
X69500000Y-116000000D03*
D13*
X86000000Y-154962500D03*
X86000000Y-157037500D03*
D22*
X89500000Y-106637500D03*
X89500000Y-102362500D03*
D23*
X66500000Y-80250000D03*
X66500000Y-82750000D03*
D20*
X65500000Y-116000000D03*
X65500000Y-118000000D03*
D24*
X73000000Y-152300000D03*
X73000000Y-158700000D03*
D25*
X124700000Y-150250000D03*
X124700000Y-163750000D03*
D26*
X153600000Y-133737500D03*
X153600000Y-128462500D03*
D27*
X86500000Y-152000000D03*
X78500000Y-152000000D03*
D28*
X120100000Y-141680000D03*
X120100000Y-140410000D03*
X120100000Y-139140000D03*
X120100000Y-137870000D03*
X120100000Y-136600000D03*
X120100000Y-135330000D03*
X120100000Y-134060000D03*
X115150000Y-134060000D03*
X115150000Y-135330000D03*
X115150000Y-136600000D03*
X115150000Y-137870000D03*
X115150000Y-139140000D03*
X115150000Y-140410000D03*
X115150000Y-141680000D03*
D12*
X62500000Y-127037500D03*
X62500000Y-124962500D03*
D21*
X52000000Y-142000000D03*
X54000000Y-142000000D03*
D15*
X122225000Y-122500000D03*
X126500000Y-122500000D03*
D23*
X60500000Y-119250000D03*
X60500000Y-121750000D03*
D22*
X90100000Y-97837500D03*
X90100000Y-93562500D03*
D12*
X62000000Y-149037500D03*
X62000000Y-146962500D03*
D15*
X122125000Y-92900000D03*
X126400000Y-92900000D03*
X122225000Y-102500000D03*
X126500000Y-102500000D03*
D12*
X68000000Y-101037500D03*
X68000000Y-98962500D03*
D29*
X66500000Y-103775000D03*
X66500000Y-108225000D03*
D30*
X90000000Y-114225000D03*
X90000000Y-118500000D03*
D16*
X81837500Y-147000000D03*
X79762500Y-147000000D03*
D31*
X54525000Y-126095000D03*
X54525000Y-127365000D03*
X54525000Y-128635000D03*
X54525000Y-129905000D03*
X59475000Y-129905000D03*
X59475000Y-128635000D03*
X59475000Y-127365000D03*
X59475000Y-126095000D03*
D16*
X137975000Y-151000000D03*
X135900000Y-151000000D03*
D13*
X63000000Y-141962500D03*
X63000000Y-144037500D03*
D22*
X102000000Y-107637500D03*
X102000000Y-103362500D03*
D16*
X137937500Y-153200000D03*
X135862500Y-153200000D03*
D18*
X51960000Y-139330000D03*
X54500000Y-134500000D03*
X57040000Y-139330000D03*
D12*
X73500000Y-165537500D03*
X73500000Y-163462500D03*
D28*
X145737500Y-153240000D03*
X145737500Y-151970000D03*
X145737500Y-150700000D03*
X145737500Y-149430000D03*
X140787500Y-149430000D03*
X140787500Y-150700000D03*
X140787500Y-151970000D03*
X140787500Y-153240000D03*
D12*
X56000000Y-121537500D03*
X56000000Y-119462500D03*
D29*
X146600000Y-136150000D03*
X146600000Y-140600000D03*
D20*
X62500000Y-119000000D03*
X62500000Y-121000000D03*
D18*
X62960000Y-139330000D03*
X65500000Y-134500000D03*
X68040000Y-139330000D03*
D14*
X66300000Y-124000000D03*
X91700000Y-124000000D03*
D12*
X90000000Y-152075000D03*
X90000000Y-150000000D03*
D32*
X73550000Y-116847500D03*
X79000000Y-116847500D03*
X84450000Y-116847500D03*
D33*
X93000000Y-154400000D03*
X93000000Y-161600000D03*
D20*
X52000000Y-119000000D03*
X52000000Y-121000000D03*
D34*
X71550000Y-147000000D03*
X76450000Y-147000000D03*
D35*
X138100000Y-143000000D03*
X138100000Y-132400000D03*
D13*
X66000000Y-141962500D03*
X66000000Y-144037500D03*
D19*
X55000000Y-151250000D03*
X55000000Y-148750000D03*
D36*
X65500000Y-95500000D03*
X63500000Y-95500000D03*
D11*
X131400000Y-99700000D03*
X153600000Y-88900000D03*
X153600000Y-100300000D03*
D37*
X131600000Y-109700000D03*
D23*
X66000000Y-129250000D03*
X66000000Y-131750000D03*
D29*
X154600000Y-136150000D03*
X154600000Y-140600000D03*
D32*
X73550000Y-94652500D03*
X79000000Y-94652500D03*
X84450000Y-94652500D03*
D38*
X57550000Y-148937500D03*
X59450000Y-148937500D03*
X58500000Y-147062500D03*
D13*
X154000000Y-155962500D03*
X154000000Y-158037500D03*
D39*
X54000000Y-100500000D03*
X54000000Y-111500000D03*
X64000000Y-111500000D03*
X64000000Y-100500000D03*
D16*
X67537500Y-150000000D03*
X65462500Y-150000000D03*
D30*
X97500000Y-116862500D03*
X97500000Y-121137500D03*
D29*
X150600000Y-136150000D03*
X150600000Y-140600000D03*
D15*
X122225000Y-112500000D03*
X126500000Y-112500000D03*
D40*
X68780000Y-152460000D03*
D41*
X68025000Y-157085000D03*
X64975000Y-157085000D03*
X68025000Y-160435000D03*
X64975000Y-160435000D03*
D40*
X64220000Y-152460000D03*
D42*
X60000000Y-133000000D03*
X60000000Y-141000000D03*
D22*
X97000000Y-94137500D03*
X97000000Y-89862500D03*
D15*
X122125000Y-87950000D03*
X126400000Y-87950000D03*
D43*
X116200000Y-90500000D03*
X95400000Y-99900000D03*
X116200000Y-100000000D03*
D44*
X93400000Y-109900000D03*
D36*
X126700000Y-141800000D03*
X124700000Y-141800000D03*
D20*
X122700000Y-141800000D03*
X122700000Y-143800000D03*
D21*
X57500000Y-151000000D03*
X59500000Y-151000000D03*
X67500000Y-95500000D03*
X69500000Y-95500000D03*
D13*
X68000000Y-110962500D03*
X68000000Y-113037500D03*
D15*
X122225000Y-107550000D03*
X126500000Y-107550000D03*
D23*
X54000000Y-119250000D03*
X54000000Y-121750000D03*
M02*
